<svg version="1.1" xmlns="http://www.w3.org/2000/svg" xmlns:xlink="http://www.w3.org/1999/xlink" width="44.25001" height="55.0946" viewBox="0,0,44.25001,55.0946"><defs><radialGradient cx="241.56923" cy="178.78634" r="20.9824" gradientUnits="userSpaceOnUse" id="color-1"><stop offset="0" stop-color="#ffffff"/><stop offset="1" stop-color="#85ff9c"/></radialGradient></defs><g transform="translate(-219.08419,-145.25151)"><g data-paper-data="{&quot;isPaintingLayer&quot;:true}" fill="none" fill-rule="nonzero" stroke="none" stroke-width="none" stroke-linecap="none" stroke-linejoin="miter" stroke-miterlimit="10" stroke-dasharray="" stroke-dashoffset="0" font-family="none" font-weight="none" font-size="none" text-anchor="none" style="mix-blend-mode: normal"><path d="M220.2268,157.2387h41.9648v41.9648h-41.9648z" data-paper-data="{&quot;origPos&quot;:null}" id="ID0.6338139399886131" fill="url(#color-1)" stroke="#51ff88" stroke-width="2.28521" stroke-linecap="butt"/><path d="M226.0664,166.2072h12.0597v12.0597h-12.0597z" data-paper-data="{&quot;origPos&quot;:null}" id="ID0.42519977083429694" fill="#51ff88" stroke="none" stroke-width="0.24612" stroke-linecap="butt"/><path d="M243.8164,166.3572h12.0597v12.0597h-12.0597z" id="ID0.42519977083429694" fill="#51ff88" stroke="none" stroke-width="0.24612" stroke-linecap="butt"/><path d="M248.488,186.1303h3.9472v4.3627h-3.9472z" id="ID0.42832814808934927" fill="#51ff88" stroke="none" stroke-width="0.20775" stroke-linecap="butt"/><path d="M241.56923,156.75482v-6.29472" fill="none" stroke="#51ff88" stroke-width="2.28521" stroke-linecap="round"/><path d="M246.76244,147.23192c0.05049,0.62272 -0.31962,0.88793 -0.60448,0.99929c-0.00487,0.00811 -0.00982,0.01622 -0.01484,0.02431l0.43413,-0.07897c-0.40401,2.42403 -2.05178,2.8719 -3.83337,2.48306c-0.0163,0.97534 -0.9998,0.97534 -0.9998,0.97534c-2.36238,0 -4.48195,-1.07219 -4.67192,-3.6228c-0.0323,-0.4337 -0.00214,-1.78406 0.40102,-2.06476c1.34521,-0.93658 1.98552,-0.88029 3.23449,-0.11493c0.54447,0.33365 1.32628,1.82791 1.45498,0.81751c0.37726,-0.08084 2.30802,-0.79712 2.64729,-0.65352c0.32172,0.13618 0.58654,0.27845 0.80066,0.42489l0.0743,-0.10534c0,0 0.99673,-0.08082 1.07754,0.91591z" fill="#51ff88" stroke="none" stroke-width="0.5" stroke-linecap="butt"/></g></g></svg>