<svg version="1.1" xmlns="http://www.w3.org/2000/svg" xmlns:xlink="http://www.w3.org/1999/xlink" width="3.75902" height="8.137" viewBox="0,0,3.75902,8.137"><g transform="translate(-226.98696,-175.41698)"><g data-paper-data="{&quot;isPaintingLayer&quot;:true}" fill="none" fill-rule="nonzero" stroke="none" stroke-width="0.5" stroke-linecap="butt" stroke-linejoin="miter" stroke-miterlimit="10" stroke-dasharray="" stroke-dashoffset="0" font-family="none" font-weight="none" font-size="none" text-anchor="none" style="mix-blend-mode: normal"><g data-paper-data="{&quot;origPos&quot;:null}"><path d="M230.12327,179.66995l0.11024,-0.00412c0.00018,-0.00212 0.00035,-0.00423 0.00051,-0.00634c0.04557,-0.50119 -0.0386,-0.94163 -0.20519,-1.34507c-0.02378,0.02814 -0.05284,0.04723 -0.08116,0.06017l0.01822,-0.0044c-0.28348,0.24829 -0.53303,0.42285 -0.76521,0.52923c0.06444,0.24382 0.10876,0.49273 0.11877,0.74988c0.00505,0.18839 0.01656,0.37441 0.03116,0.5591c0.24885,-0.17458 0.50229,-0.45734 0.77266,-0.53845zM229.45746,181.44141c0.20958,-0.4218 0.45924,-0.8605 0.61831,-1.23629c-0.27673,0.07962 -0.50715,0.13699 -0.71106,0.17165c0.03132,0.35628 0.07039,0.70869 0.09275,1.06464zM229.63645,177.99407l0.18906,-0.09093c-0.2645,-0.46047 -0.62548,-0.87889 -0.99908,-1.29734c-0.06899,-0.07762 -0.14642,-0.1458 -0.22988,-0.2065c0.29255,0.5368 0.3511,1.18415 0.38193,1.8263c0.02575,0.06807 0.05095,0.13632 0.07523,0.20482c0.16469,-0.09038 0.35198,-0.23425 0.58273,-0.43635zM229.08664,183.54961c-0.24626,0.04305 -0.29305,-0.24626 -0.29305,-0.24626v-0.21213c0.00213,-0.36908 -0.0079,-0.74016 -0.02634,-1.1119c-0.49206,-0.75922 -1.68877,-1.34528 -1.77605,-2.56726c-0.07695,-1.2582 0.92504,-1.92825 0.60619,-2.77852c0,0 -0.00563,-0.01503 -0.01024,-0.03891l-0.00082,0.00016l-0.0303,-0.15152c-0.01479,-0.14974 -0.0406,-0.30936 -0.04942,-0.46599l-0.12443,0.04148l-0.08907,-0.26719c-0.0095,-0.02642 -0.01467,-0.05491 -0.01467,-0.0846c0,-0.13807 0.11193,-0.25 0.25,-0.25c0.02969,0 0.05817,0.00518 0.08459,0.01468l0.3581,0.11936l-0.00052,0.00158c0.45184,0.15927 0.90827,0.35961 1.22953,0.72102c0.87631,0.99096 1.66116,2.00844 1.53182,3.43115c-0.07053,0.69642 -0.66829,2.27014 -1.25579,3.03253c0.00061,0.02707 0.00158,0.05415 0.003,0.0812h0.02654v0.30303c0,0.12532 -0.09221,0.22911 -0.21249,0.24721c-0.00979,0.06339 -0.05171,0.15381 -0.20659,0.18088zM228.56718,179.93017c-0.02488,-0.31473 -0.04647,-0.61857 -0.072,-0.91656c-0.28571,-0.04419 -0.572,-0.19939 -0.89827,-0.45239c-0.0831,0.24356 -0.1333,0.50888 -0.107,0.81522c0.00055,0.00779 0.00116,0.01556 0.00181,0.02329c0.40622,0.21075 0.72789,0.51677 1.08991,0.75937c-0.00342,-0.07652 -0.00812,-0.15286 -0.01446,-0.22893zM228.58369,181.11372c0.00328,-0.24287 0.00861,-0.48702 0.00463,-0.73004c-0.27349,-0.05154 -0.55235,-0.16452 -0.92103,-0.34084c0.21044,0.43208 0.57178,0.74961 0.9164,1.07088zM228.37323,177.95368c-0.08695,-0.21408 -0.17512,-0.42771 -0.25274,-0.64318c-0.06497,0.26681 -0.19474,0.51479 -0.32034,0.77441c0.25885,0.21734 0.45813,0.36339 0.64655,0.42699c-0.0206,-0.18687 -0.04447,-0.3725 -0.07347,-0.55822z" data-paper-data="{&quot;origPos&quot;:null}" fill="#51ff88"/><path d="M229.04606,178.47983c-0.02428,-0.0685 -0.05561,-0.13809 -0.08136,-0.20616c-0.03083,-0.64216 -0.10148,-1.38034 -0.39404,-1.91715c0.08346,0.0607 0.16531,0.12651 0.2343,0.20413c0.37359,0.41844 0.79519,0.91313 1.05969,1.3736l-0.1986,0.10013c-0.23075,0.2021 -0.4553,0.35507 -0.61999,0.44546z" data-paper-data="{&quot;noHover&quot;:false,&quot;origItem&quot;:[&quot;Path&quot;,{&quot;applyMatrix&quot;:true,&quot;segments&quot;:[[[483.45471,353.56389],[-0.46151,0.40421],[0,0]],[[483.83283,353.38203],[0,0],[-0.52899,-0.92094]],[[481.83468,350.78736],[0.74719,0.83689],[-0.13798,-0.15523]],[[481.37492,350.37435],[0.16693,0.1214],[0.5851,1.07361]],[[482.13879,354.02696],[-0.06167,-1.28431],[0.0515,0.13614]],[[482.28925,354.43659],[-0.04857,-0.137],[0.32938,-0.18077]]],&quot;closed&quot;:true}]}" fill="#73ff9f"/><path d="M228.4704,178.55593c-0.18841,-0.0636 -0.45543,-0.23001 -0.71428,-0.44735c0.1256,-0.25962 0.29916,-0.58127 0.36413,-0.84807c0.07762,0.21547 0.21533,0.48748 0.30228,0.70156c0.02901,0.18572 0.02728,0.407 0.04788,0.59387z" data-paper-data="{&quot;noHover&quot;:false,&quot;origItem&quot;:[&quot;Path&quot;,{&quot;applyMatrix&quot;:true,&quot;segments&quot;:[[[480.92828,353.48312],[0.05801,0.37144],[-0.1739,-0.42815]],[[480.4228,352.19676],[0.15523,0.43094],[-0.12994,0.53362]],[[479.78213,353.74558],[0.2512,-0.51924],[0.51769,0.43469]],[[481.07522,354.59956],[-0.37683,-0.1272],[-0.0412,-0.37373]]],&quot;closed&quot;:true}]}" fill="#73ff9f"/><path d="M229.33357,180.33765c0.20391,-0.03466 0.49041,-0.09625 0.76714,-0.17587c-0.15908,0.37579 -0.45324,0.90384 -0.66281,1.32564c-0.02236,-0.35595 -0.07301,-0.79349 -0.10433,-1.14977z" data-paper-data="{&quot;noHover&quot;:false,&quot;origItem&quot;:[&quot;Path&quot;,{&quot;applyMatrix&quot;:true,&quot;segments&quot;:[[[483.09674,360.45857],[-0.04471,-0.7119],[0.41915,-0.8436]],[[484.33337,357.98599],[-0.31815,0.75158],[-0.55346,0.15924]],[[482.91124,358.32929],[0.40783,-0.06932],[0.06264,0.71256]]],&quot;closed&quot;:true}]}" fill="#73ff9f"/><path d="M227.63466,180.00496c0.36868,0.17632 0.72622,0.3077 0.99971,0.35924c0.00399,0.24302 -0.01501,0.54475 -0.01829,0.78762c-0.34463,-0.32127 -0.77098,-0.71478 -0.98142,-1.14686z" data-paper-data="{&quot;noHover&quot;:false,&quot;origItem&quot;:[&quot;Path&quot;,{&quot;applyMatrix&quot;:true,&quot;segments&quot;:[[[481.3492,359.8032],[-0.68925,-0.64253],[0.00656,-0.48574]],[[481.35846,358.34312],[0.00797,0.48604],[-0.54698,-0.10308]],[[479.51639,357.66144],[0.73737,0.35264],[0.42089,0.86416]]],&quot;closed&quot;:true}]}" fill="#73ff9f"/><path d="M228.60997,180.2003c-0.36202,-0.24259 -0.76189,-0.58616 -1.1681,-0.79691c-0.00064,-0.00773 -0.00136,-0.01765 -0.00191,-0.02544c-0.0263,-0.30634 0.04994,-0.61707 0.13305,-0.86063c0.32627,0.25301 0.6765,0.42214 0.96221,0.46633c0.02552,0.29799 0.04131,0.66825 0.06619,0.98298c0.00634,0.07608 0.00515,0.15715 0.00857,0.23367z" data-paper-data="{&quot;noHover&quot;:false,&quot;origItem&quot;:[&quot;Path&quot;,{&quot;applyMatrix&quot;:true,&quot;segments&quot;:[[[481.31618,357.43609],[0.01268,0.15215],[-0.04976,-0.62946]],[[481.17218,355.60297],[0.05105,0.59597],[-0.57142,-0.08838]],[[479.37565,354.69819],[0.65254,0.50601],[-0.16621,0.48712]],[[479.16166,356.32864],[-0.0526,-0.61269],[0.00111,0.01559]],[[479.16527,356.37522],[-0.00129,-0.01546],[0.81244,0.4215]],[[481.34509,357.89395],[-0.72404,-0.48518],[-0.00684,-0.15304]]],&quot;closed&quot;:true}]}" fill="#73ff9f"/><path d="M229.33229,180.25492c-0.0146,-0.18469 -0.04385,-0.3826 -0.0489,-0.57099c-0.01002,-0.25715 -0.05937,-0.56915 -0.12381,-0.81297c0.23218,-0.10638 0.53596,-0.30072 0.81943,-0.54901l-0.01909,0.00417c0.02832,-0.01294 0.06048,-0.03114 0.08425,-0.05928c0.16658,0.40344 0.27484,0.92222 0.22927,1.42342c-0.00016,0.00211 -0.00059,0.00454 -0.00076,0.00665l-0.11444,0.00879c-0.27038,0.08112 -0.5771,0.37466 -0.82595,0.54924z" data-paper-data="{&quot;noHover&quot;:false,&quot;origItem&quot;:[&quot;Path&quot;,{&quot;applyMatrix&quot;:true,&quot;segments&quot;:[[[484.42835,356.91565],[-0.54075,0.16223],[0,0]],[[484.64883,356.90742],[0,0],[0.00035,-0.00423]],[[484.64984,356.89475],[-0.00032,0.00421],[0.09113,-1.00238]],[[484.23947,354.2046],[0.33317,0.80688],[-0.04755,0.05629]],[[484.07714,354.32494],[0.05665,-0.02588],[0,0]],[[484.11358,354.31615],[0,0],[-0.56695,0.49657]],[[482.58317,355.37461],[0.46435,-0.21277],[0.12888,0.48764]],[[482.82071,356.87437],[-0.02003,-0.5143],[0.0101,0.37677]],[[482.88303,357.99256],[-0.0292,-0.36937],[0.4977,-0.34916]]],&quot;closed&quot;:true}]}" fill="#73ff9f"/></g></g></g></svg>