<svg xmlns="http://www.w3.org/2000/svg" xmlns:xlink="http://www.w3.org/1999/xlink" version="1.1" width="56.351600646972656" height="87.09190368652344" viewBox="-0.3999999761581421 0.4081001281738281 56.351600646972656 87.09190368652344">
  <!-- Exported by Scratch - http://scratch.mit.edu/ -->
  <path id="ID0.9138425071723759" fill="#FFFFFF" stroke="#E5E5E5" stroke-width="3" d="M 2.75 51.5 L 8 51.5 L 8 85.25 L 2.75 85.25 L 2.75 51.5 Z "/>
  <path id="ID0.9138425071723759" fill="#FFFFFF" stroke="#E5E5E5" stroke-width="3" d="M 24 52.25 L 29.25 52.25 L 29.25 86 L 24 86 L 24 52.25 Z "/>
  <path id="ID0.9930293457582593" fill="#FFFFFF" stroke="#E5E5E5" stroke-width="3" d="M 11.5 55.75 L 20.5 55.75 L 20.5 78.25 L 11.5 78.25 L 11.5 55.75 Z "/>
  <path id="ID0.37744807358831167" fill="#FFFFFF" stroke="#E5E5E5" stroke-width="3" d="M 27.25 55.75 L 36.25 55.75 L 36.25 69.5 L 27.25 69.5 L 27.25 55.75 Z "/>
  <path id="ID0.06596323195844889" fill="#FFFFFF" stroke="#E5E5E5" stroke-width="3" d="M 43.25 55.5 L 50.75 55.5 L 50.75 84 L 43.25 84 L 43.25 55.5 Z "/>
  <path id="ID0.7102306736633182" fill="#FFFFFF" stroke="#E5E5E5" stroke-width="2.1483870148658752" d="M 1.1 1.9081 L 54.4516 1.9081 L 54.4516 55.2597 L 1.1 55.2597 L 1.1 1.9081 Z "/>
  <path id="ID0.731122356839478" fill="#B2B2B2" stroke="none" d="M 10.5 21.25 L 21.25 21.25 L 21.25 24.25 L 10.5 24.25 L 10.5 21.25 Z " stroke-width="1"/>
  <path id="ID0.07207755977287889" fill="#B2B2B2" stroke="none" d="M 33.75 21.5 L 44.25 21.5 L 44.25 24.25 L 33.75 24.25 L 33.75 21.5 Z " stroke-width="1"/>
  <path id="ID0.9401252828538418" fill="none" stroke="#B2B2B2" stroke-width="2" d="M 23 32.25 L 33.75 32.25 L 33.75 42.75 L 23 42.75 L 23 32.25 Z "/>
</svg>