<svg xmlns="http://www.w3.org/2000/svg" xmlns:xlink="http://www.w3.org/1999/xlink" version="1.1" width="196.6499939437295" height="194.50000004724512" viewBox="0.3500000002192918 0.4999999763774339 196.6499939437295 194.50000004724512">
  <!-- Exported by Scratch - http://scratch.mit.edu/ -->
  <g id="ID0.08171165455132723">
    <path id="ID0.22421117965131998" fill="#000000" stroke="none" d="M 40.0517 40.039 L 157.0561 40.039 L 157.0561 156.539 L 40.0517 156.539 L 40.0517 40.039 Z " stroke-width="1.0086580514907837"/>
    <g id="ID0.030063223093748093">
      <path id="ID0.2203458435833454" fill="#FFFF99" stroke="#E4E489" stroke-width="3" d="M 40.5 2 L 77.5 2 L 77.5 39 L 40.5 39 L 40.5 2 Z "/>
      <path id="ID0.2203458435833454" fill="#FFFF99" stroke="#E4E489" stroke-width="3" d="M 79 2 L 116 2 L 116 39 L 79 39 L 79 2 Z "/>
      <path id="ID0.2203458435833454" fill="#FFFF99" stroke="#E4E489" stroke-width="3" d="M 118.25 2 L 155.25 2 L 155.25 39 L 118.25 39 L 118.25 2 Z "/>
      <path id="ID0.2203458435833454" fill="#FFFF99" stroke="#E4E489" stroke-width="3" d="M 38.85 155.85 L 38.85 118.85 L 1.85 118.85 L 1.85 155.85 L 38.85 155.85 Z "/>
      <path id="ID0.2203458435833454" fill="#FFFF99" stroke="#E4E489" stroke-width="3" d="M 38.85 117.35 L 38.85 80.35 L 1.85 80.35 L 1.85 117.35 L 38.85 117.35 Z "/>
      <path id="ID0.2203458435833454" fill="#FFFF99" stroke="#E4E489" stroke-width="3" d="M 38.85 78.1 L 38.85 41.1 L 1.85 41.1 L 1.85 78.1 L 38.85 78.1 Z "/>
      <path id="ID0.2203458435833454" fill="#FFFF99" stroke="#E4E489" stroke-width="3" d="M 195.5 156.35 L 195.5 119.35 L 158.5 119.35 L 158.5 156.35 L 195.5 156.35 Z "/>
      <path id="ID0.2203458435833454" fill="#FFFF99" stroke="#E4E489" stroke-width="3" d="M 195.5 117.85 L 195.5 80.85 L 158.5 80.85 L 158.5 117.85 L 195.5 117.85 Z "/>
      <path id="ID0.2203458435833454" fill="#FFFF99" stroke="#E4E489" stroke-width="3" d="M 195.5 78.6 L 195.5 41.6 L 158.5 41.6 L 158.5 78.6 L 195.5 78.6 Z "/>
      <path id="ID0.2203458435833454" fill="#FFFF99" stroke="#E4E489" stroke-width="3" d="M 39.55 156.5 L 76.55 156.5 L 76.55 193.5 L 39.55 193.5 L 39.55 156.5 Z "/>
      <path id="ID0.2203458435833454" fill="#FFFF99" stroke="#E4E489" stroke-width="3" d="M 78.1 156.5 L 115.1 156.5 L 115.1 193.5 L 78.1 193.5 L 78.1 156.5 Z "/>
      <path id="ID0.2203458435833454" fill="#FFFF99" stroke="#E4E489" stroke-width="3" d="M 117.35 156.5 L 154.35 156.5 L 154.35 193.5 L 117.35 193.5 L 117.35 156.5 Z "/>
      <g id="ID0.2817839924246073">
        <g id="ID0.7857311917468905">
          <path id="ID0.2418159293010831" fill="#7CFF84" stroke="#006622" stroke-width="3" d="M 56.75 7.5 C 59.992 7.5 62.929 8.817 65.056 10.944 C 67.183 13.071 68.5 16.008 68.5 19.25 C 68.5 22.492 67.183 25.429 65.056 27.556 C 62.929 29.683 59.992 31 56.75 31 C 53.508 31 50.571 29.683 48.444 27.556 C 46.317 25.429 45 22.492 45 19.25 C 45 16.008 46.317 13.071 48.444 10.944 C 50.571 8.817 53.508 7.5 56.75 7.5 Z "/>
          <path id="ID0.3018890544772148" fill="none" stroke="#A8FFF4" stroke-width="1" d="M 57.125 9.25 C 59.849 9.25 62.318 10.357 64.106 12.144 C 65.893 13.932 67 16.401 67 19.125 C 67 21.849 65.893 24.318 64.106 26.106 C 62.318 27.893 59.849 29 57.125 29 C 54.401 29 51.932 27.893 50.144 26.106 C 48.357 24.318 47.25 21.849 47.25 19.125 C 47.25 16.401 48.357 13.932 50.144 12.144 C 51.932 10.357 54.401 9.25 57.125 9.25 Z "/>
          <path id="ID0.49519494362175465" fill="none" stroke="#006622" stroke-width="2.666879261472647" d="M 56.4548 9.5 C 57.2433 9.5 57.9572 10.649 58.4746 12.504 C 58.9919 14.36 59.3119 16.922 59.3119 19.75 C 59.3119 22.578 58.9919 25.14 58.4746 26.996 C 57.9572 28.851 57.2433 30 56.4548 30 C 55.6662 30 54.9523 28.851 54.435 26.996 C 53.9176 25.14 53.5976 22.578 53.5976 19.75 C 53.5976 16.922 53.9176 14.36 54.435 12.504 C 54.9523 10.649 55.6662 9.5 56.4548 9.5 Z "/>
        </g>
        <g id="ID0.7857311917468905">
          <path id="ID0.2418159293010831" fill="#7CFF84" stroke="#006622" stroke-width="3" d="M 98 8.25 C 101.242 8.25 104.179 9.567 106.306 11.694 C 108.433 13.821 109.75 16.758 109.75 20 C 109.75 23.242 108.433 26.179 106.306 28.306 C 104.179 30.433 101.242 31.75 98 31.75 C 94.758 31.75 91.821 30.433 89.694 28.306 C 87.567 26.179 86.25 23.242 86.25 20 C 86.25 16.758 87.567 13.821 89.694 11.694 C 91.821 9.567 94.758 8.25 98 8.25 Z "/>
          <path id="ID0.3018890544772148" fill="none" stroke="#A8FFF4" stroke-width="1" d="M 98.375 10 C 101.099 10 103.568 11.107 105.356 12.894 C 107.143 14.682 108.25 17.151 108.25 19.875 C 108.25 22.599 107.143 25.068 105.356 26.856 C 103.568 28.643 101.099 29.75 98.375 29.75 C 95.651 29.75 93.182 28.643 91.394 26.856 C 89.607 25.068 88.5 22.599 88.5 19.875 C 88.5 17.151 89.607 14.682 91.394 12.894 C 93.182 11.107 95.651 10 98.375 10 Z "/>
          <path id="ID0.49519494362175465" fill="none" stroke="#006622" stroke-width="2.666879261472647" d="M 97.7048 10.25 C 98.4933 10.25 99.2072 11.399 99.7246 13.254 C 100.2419 15.11 100.5619 17.672 100.5619 20.5 C 100.5619 23.328 100.2419 25.89 99.7246 27.746 C 99.2072 29.601 98.4933 30.75 97.7048 30.75 C 96.9162 30.75 96.2023 29.601 95.685 27.746 C 95.1676 25.89 94.8476 23.328 94.8476 20.5 C 94.8476 17.672 95.1676 15.11 95.685 13.254 C 96.2023 11.399 96.9162 10.25 97.7048 10.25 Z "/>
        </g>
        <g id="ID0.7857311917468905">
          <path id="ID0.2418159293010831" fill="#7CFF84" stroke="#006622" stroke-width="3" d="M 136 8.75 C 139.242 8.75 142.179 10.067 144.306 12.194 C 146.433 14.321 147.75 17.258 147.75 20.5 C 147.75 23.742 146.433 26.679 144.306 28.806 C 142.179 30.933 139.242 32.25 136 32.25 C 132.758 32.25 129.821 30.933 127.694 28.806 C 125.567 26.679 124.25 23.742 124.25 20.5 C 124.25 17.258 125.567 14.321 127.694 12.194 C 129.821 10.067 132.758 8.75 136 8.75 Z "/>
          <path id="ID0.3018890544772148" fill="none" stroke="#A8FFF4" stroke-width="1" d="M 136.375 10.5 C 139.099 10.5 141.568 11.607 143.356 13.394 C 145.143 15.182 146.25 17.651 146.25 20.375 C 146.25 23.099 145.143 25.568 143.356 27.356 C 141.568 29.143 139.099 30.25 136.375 30.25 C 133.651 30.25 131.182 29.143 129.394 27.356 C 127.607 25.568 126.5 23.099 126.5 20.375 C 126.5 17.651 127.607 15.182 129.394 13.394 C 131.182 11.607 133.651 10.5 136.375 10.5 Z "/>
          <path id="ID0.49519494362175465" fill="none" stroke="#006622" stroke-width="2.666879261472647" d="M 135.7048 10.75 C 136.4933 10.75 137.2072 11.899 137.7246 13.754 C 138.2419 15.61 138.5619 18.172 138.5619 21 C 138.5619 23.828 138.2419 26.39 137.7246 28.246 C 137.2072 30.101 136.4933 31.25 135.7048 31.25 C 134.9162 31.25 134.2023 30.101 133.685 28.246 C 133.1676 26.39 132.8476 23.828 132.8476 21 C 132.8476 18.172 133.1676 15.61 133.685 13.754 C 134.2023 11.899 134.9162 10.75 135.7048 10.75 Z "/>
        </g>
      </g>
      <g id="ID0.2817839924246073">
        <g id="ID0.7857311917468905">
          <path id="ID0.2418159293010831" fill="#7CFF84" stroke="#006622" stroke-width="3.0000000472451323" d="M 31.8686 60.268 C 31.8994 63.5099 30.6104 66.4593 28.5037 68.6064 C 26.397 70.7535 23.4726 72.0983 20.2307 72.1291 C 16.9889 72.1599 14.0395 70.8708 11.8924 68.7641 C 9.7453 66.6574 8.4005 63.733 8.3697 60.4912 C 8.3389 57.2493 9.628 54.2999 11.7347 52.1528 C 13.8414 50.0057 16.7658 48.6609 20.0076 48.6301 C 23.2495 48.5994 26.1988 49.8884 28.3459 51.9951 C 30.493 54.1018 31.8379 57.0262 31.8686 60.268 Z "/>
          <path id="ID0.3018890544772148" fill="none" stroke="#A8FFF4" stroke-width="1.0000000157483775" d="M 30.1628 60.6549 C 30.1886 63.3788 29.1051 65.8582 27.3352 67.6631 C 25.5642 69.467 23.1058 70.5974 20.382 70.6233 C 17.6581 70.6491 15.1787 69.5656 13.3738 67.7957 C 11.5699 66.0247 10.4395 63.5663 10.4137 60.8425 C 10.3878 58.1186 11.4713 55.6392 13.2412 53.8343 C 15.0122 52.0304 17.4706 50.9 20.1944 50.8741 C 22.9183 50.8483 25.3977 51.9318 27.2026 53.7017 C 29.0065 55.4727 30.1369 57.9311 30.1628 60.6549 Z "/>
          <path id="ID0.49519494362175465" fill="none" stroke="#006622" stroke-width="2.666879303471658" d="M 29.9049 60.025 C 29.9124 60.8135 28.7702 61.5383 26.9202 62.0732 C 25.0692 62.6082 22.5103 62.9525 19.6825 62.9793 C 16.8546 63.0062 14.2897 62.7105 12.4288 62.2108 C 10.569 61.7112 9.4133 61.0082 9.4058 60.2197 C 9.3983 59.4311 10.5405 58.7063 12.3905 58.1714 C 14.2415 57.6365 16.8003 57.2922 19.6282 57.2653 C 22.4561 57.2385 25.021 57.5341 26.8818 58.0338 C 28.7417 58.5335 29.8974 59.2365 29.9049 60.025 Z "/>
        </g>
        <g id="ID0.7857311917468905">
          <path id="ID0.2418159293010831" fill="#7CFF84" stroke="#006622" stroke-width="3.0000000472451323" d="M 31.5186 101.518 C 31.5494 104.7599 30.2604 107.7093 28.1537 109.8564 C 26.047 112.0035 23.1226 113.3483 19.8807 113.3791 C 16.6389 113.4099 13.6895 112.1208 11.5424 110.0141 C 9.3953 107.9074 8.0505 104.983 8.0197 101.7412 C 7.9889 98.4993 9.278 95.5499 11.3847 93.4028 C 13.4914 91.2557 16.4158 89.9109 19.6576 89.8801 C 22.8995 89.8494 25.8488 91.1384 27.9959 93.2451 C 30.143 95.3518 31.4879 98.2762 31.5186 101.518 Z "/>
          <path id="ID0.3018890544772148" fill="none" stroke="#A8FFF4" stroke-width="1.0000000157483775" d="M 29.7628 101.9549 C 29.7886 104.6788 28.7051 107.1582 26.9352 108.9631 C 25.1642 110.767 22.7058 111.8974 19.982 111.9233 C 17.2581 111.9491 14.7787 110.8656 12.9738 109.0957 C 11.1699 107.3247 10.0395 104.8663 10.0137 102.1425 C 9.9878 99.4186 11.0713 96.9392 12.8412 95.1343 C 14.6122 93.3304 17.0706 92.2 19.7944 92.1741 C 22.5183 92.1483 24.9977 93.2318 26.8026 95.0017 C 28.6065 96.7727 29.7369 99.2311 29.7628 101.9549 Z "/>
          <path id="ID0.49519494362175465" fill="none" stroke="#006622" stroke-width="2.666879303471658" d="M 29.5049 101.275 C 29.5124 102.0635 28.3702 102.7883 26.5202 103.3232 C 24.6692 103.8582 22.1103 104.2025 19.2825 104.2293 C 16.4546 104.2562 13.8897 103.9605 12.0288 103.4608 C 10.169 102.9612 9.0133 102.2582 9.0058 101.4697 C 8.9983 100.6811 10.1405 99.9563 11.9905 99.4214 C 13.8415 98.8865 16.4003 98.5422 19.2282 98.5153 C 22.0561 98.4885 24.621 98.7841 26.4818 99.2838 C 28.3417 99.7835 29.4974 100.4865 29.5049 101.275 Z "/>
        </g>
        <g id="ID0.7857311917468905">
          <path id="ID0.2418159293010831" fill="#7CFF84" stroke="#006622" stroke-width="3.0000000472451323" d="M 31.3686 139.568 C 31.3994 142.8099 30.1104 145.7593 28.0037 147.9064 C 25.897 150.0535 22.9726 151.3983 19.7307 151.4291 C 16.4889 151.4599 13.5395 150.1708 11.3924 148.0641 C 9.2453 145.9574 7.9005 143.033 7.8697 139.7912 C 7.8389 136.5493 9.128 133.5999 11.2347 131.4528 C 13.3414 129.3057 16.2658 127.9609 19.5076 127.9301 C 22.7495 127.8994 25.6988 129.1884 27.8459 131.2951 C 29.993 133.4018 31.3379 136.3262 31.3686 139.568 Z "/>
          <path id="ID0.3018890544772148" fill="none" stroke="#A8FFF4" stroke-width="1.0000000157483775" d="M 29.6628 139.9549 C 29.6886 142.6788 28.6051 145.1582 26.8352 146.9631 C 25.0642 148.767 22.6058 149.8974 19.882 149.9233 C 17.1581 149.9491 14.6787 148.8656 12.8738 147.0957 C 11.0699 145.3247 9.9395 142.8663 9.9137 140.1425 C 9.8878 137.4186 10.9713 134.9392 12.7412 133.1343 C 14.5122 131.3304 16.9706 130.2 19.6944 130.1741 C 22.4183 130.1483 24.8977 131.2318 26.7026 133.0017 C 28.5065 134.7727 29.6369 137.2311 29.6628 139.9549 Z "/>
          <path id="ID0.49519494362175465" fill="none" stroke="#006622" stroke-width="2.666879303471658" d="M 29.4049 139.275 C 29.4124 140.0635 28.2702 140.7883 26.4202 141.3232 C 24.5692 141.8582 22.0103 142.2025 19.1825 142.2293 C 16.3546 142.2562 13.7897 141.9605 11.9288 141.4608 C 10.069 140.9612 8.9133 140.2582 8.9058 139.4697 C 8.8983 138.6811 10.0405 137.9563 11.8905 137.4214 C 13.7415 136.8865 16.3003 136.5422 19.1282 136.5153 C 21.9561 136.4885 24.521 136.7841 26.3818 137.2838 C 28.2417 137.7835 29.3974 138.4865 29.4049 139.275 Z "/>
        </g>
      </g>
      <g id="ID0.2817839924246073">
        <g id="ID0.7857311917468905">
          <path id="ID0.2418159293010831" fill="#7CFF84" stroke="#006622" stroke-width="3.0000000472451323" d="M 187.4686 56.718 C 187.4994 59.9599 186.2104 62.9093 184.1037 65.0564 C 181.997 67.2035 179.0726 68.5483 175.8307 68.5791 C 172.5889 68.6099 169.6395 67.3208 167.4924 65.2141 C 165.3453 63.1074 164.0005 60.183 163.9697 56.9412 C 163.9389 53.6993 165.228 50.7499 167.3347 48.6028 C 169.4414 46.4557 172.3658 45.1109 175.6076 45.0801 C 178.8495 45.0494 181.7988 46.3384 183.9459 48.4451 C 186.093 50.5518 187.4379 53.4762 187.4686 56.718 Z "/>
          <path id="ID0.3018890544772148" fill="none" stroke="#A8FFF4" stroke-width="1.0000000157483775" d="M 185.7628 57.1049 C 185.7886 59.8288 184.7051 62.3082 182.9352 64.1131 C 181.1642 65.917 178.7058 67.0474 175.982 67.0733 C 173.2581 67.0991 170.7787 66.0156 168.9738 64.2457 C 167.1699 62.4747 166.0395 60.0163 166.0137 57.2925 C 165.9878 54.5686 167.0713 52.0892 168.8412 50.2843 C 170.6122 48.4804 173.0706 47.35 175.7944 47.3241 C 178.5183 47.2983 180.9977 48.3818 182.8026 50.1517 C 184.6065 51.9227 185.7369 54.3811 185.7628 57.1049 Z "/>
          <path id="ID0.49519494362175465" fill="none" stroke="#006622" stroke-width="2.666879303471658" d="M 185.5049 56.475 C 185.5124 57.2635 184.3702 57.9883 182.5202 58.5232 C 180.6692 59.0582 178.1103 59.4025 175.2825 59.4293 C 172.4546 59.4562 169.8897 59.1605 168.0288 58.6608 C 166.169 58.1612 165.0133 57.4582 165.0058 56.6697 C 164.9983 55.8811 166.1405 55.1563 167.9905 54.6214 C 169.8415 54.0865 172.4003 53.7422 175.2282 53.7153 C 178.0561 53.6885 180.621 53.9841 182.4818 54.4838 C 184.3417 54.9835 185.4974 55.6865 185.5049 56.475 Z "/>
        </g>
        <g id="ID0.7857311917468905">
          <path id="ID0.2418159293010831" fill="#7CFF84" stroke="#006622" stroke-width="3.0000000472451323" d="M 187.1186 97.968 C 187.1494 101.2099 185.8604 104.1593 183.7537 106.3064 C 181.647 108.4535 178.7226 109.7983 175.4807 109.8291 C 172.2389 109.8599 169.2895 108.5708 167.1424 106.4641 C 164.9953 104.3574 163.6505 101.433 163.6197 98.1912 C 163.5889 94.9493 164.878 91.9999 166.9847 89.8528 C 169.0914 87.7057 172.0158 86.3609 175.2576 86.3301 C 178.4995 86.2994 181.4488 87.5884 183.5959 89.6951 C 185.743 91.8018 187.0879 94.7262 187.1186 97.968 Z "/>
          <path id="ID0.3018890544772148" fill="none" stroke="#A8FFF4" stroke-width="1.0000000157483775" d="M 185.3628 98.4049 C 185.3886 101.1288 184.3051 103.6082 182.5352 105.4131 C 180.7642 107.217 178.3058 108.3474 175.582 108.3733 C 172.8581 108.3991 170.3787 107.3156 168.5738 105.5457 C 166.7699 103.7747 165.6395 101.3163 165.6137 98.5925 C 165.5878 95.8686 166.6713 93.3892 168.4412 91.5843 C 170.2122 89.7804 172.6706 88.65 175.3944 88.6241 C 178.1183 88.5983 180.5977 89.6818 182.4026 91.4517 C 184.2065 93.2227 185.3369 95.6811 185.3628 98.4049 Z "/>
          <path id="ID0.49519494362175465" fill="none" stroke="#006622" stroke-width="2.666879303471658" d="M 185.1049 97.725 C 185.1124 98.5135 183.9702 99.2383 182.1202 99.7732 C 180.2692 100.3082 177.7103 100.6525 174.8825 100.6793 C 172.0546 100.7062 169.4897 100.4105 167.6288 99.9108 C 165.769 99.4112 164.6133 98.7082 164.6058 97.9197 C 164.5983 97.1311 165.7405 96.4063 167.5905 95.8714 C 169.4415 95.3365 172.0003 94.9922 174.8282 94.9653 C 177.6561 94.9385 180.221 95.2341 182.0818 95.7338 C 183.9417 96.2335 185.0974 96.9365 185.1049 97.725 Z "/>
        </g>
        <g id="ID0.7857311917468905">
          <path id="ID0.2418159293010831" fill="#7CFF84" stroke="#006622" stroke-width="3.0000000472451323" d="M 186.9686 136.018 C 186.9994 139.2599 185.7104 142.2093 183.6037 144.3564 C 181.497 146.5035 178.5726 147.8483 175.3307 147.8791 C 172.0889 147.9099 169.1395 146.6208 166.9924 144.5141 C 164.8453 142.4074 163.5005 139.483 163.4697 136.2412 C 163.4389 132.9993 164.728 130.0499 166.8347 127.9028 C 168.9414 125.7557 171.8658 124.4109 175.1076 124.3801 C 178.3495 124.3494 181.2988 125.6384 183.4459 127.7451 C 185.593 129.8518 186.9379 132.7762 186.9686 136.018 Z "/>
          <path id="ID0.3018890544772148" fill="none" stroke="#A8FFF4" stroke-width="1.0000000157483775" d="M 185.2628 136.4049 C 185.2886 139.1288 184.2051 141.6082 182.4352 143.4131 C 180.6642 145.217 178.2058 146.3474 175.482 146.3733 C 172.7581 146.3991 170.2787 145.3156 168.4738 143.5457 C 166.6699 141.7747 165.5395 139.3163 165.5137 136.5925 C 165.4878 133.8686 166.5713 131.3892 168.3412 129.5843 C 170.1122 127.7804 172.5706 126.65 175.2944 126.6241 C 178.0183 126.5983 180.4977 127.6818 182.3026 129.4517 C 184.1065 131.2227 185.2369 133.6811 185.2628 136.4049 Z "/>
          <path id="ID0.49519494362175465" fill="none" stroke="#006622" stroke-width="2.666879303471658" d="M 185.0049 135.725 C 185.0124 136.5135 183.8702 137.2383 182.0202 137.7732 C 180.1692 138.3082 177.6103 138.6525 174.7825 138.6793 C 171.9546 138.7062 169.3897 138.4105 167.5288 137.9108 C 165.669 137.4112 164.5133 136.7082 164.5058 135.9197 C 164.4983 135.1311 165.6405 134.4063 167.4905 133.8714 C 169.3415 133.3365 171.9003 132.9922 174.7282 132.9653 C 177.5561 132.9385 180.121 133.2341 181.9818 133.7338 C 183.8417 134.2335 184.9974 134.9365 185.0049 135.725 Z "/>
        </g>
      </g>
      <g id="ID0.2817839924246073">
        <g id="ID0.7857311917468905">
          <path id="ID0.2418159293010831" fill="#7CFF84" stroke="#006622" stroke-width="3" d="M 55.85 162.55 C 59.092 162.55 62.029 163.867 64.156 165.994 C 66.283 168.121 67.6 171.058 67.6 174.3 C 67.6 177.542 66.283 180.479 64.156 182.606 C 62.029 184.733 59.092 186.05 55.85 186.05 C 52.608 186.05 49.671 184.733 47.544 182.606 C 45.417 180.479 44.1 177.542 44.1 174.3 C 44.1 171.058 45.417 168.121 47.544 165.994 C 49.671 163.867 52.608 162.55 55.85 162.55 Z "/>
          <path id="ID0.3018890544772148" fill="none" stroke="#A8FFF4" stroke-width="1" d="M 56.225 164.3 C 58.949 164.3 61.418 165.407 63.206 167.194 C 64.993 168.982 66.1 171.451 66.1 174.175 C 66.1 176.899 64.993 179.368 63.206 181.156 C 61.418 182.943 58.949 184.05 56.225 184.05 C 53.501 184.05 51.032 182.943 49.244 181.156 C 47.457 179.368 46.35 176.899 46.35 174.175 C 46.35 171.451 47.457 168.982 49.244 167.194 C 51.032 165.407 53.501 164.3 56.225 164.3 Z "/>
          <path id="ID0.49519494362175465" fill="none" stroke="#006622" stroke-width="2.666879261472647" d="M 55.5548 164.55 C 56.3433 164.55 57.0572 165.699 57.5746 167.554 C 58.0919 169.41 58.4119 171.972 58.4119 174.8 C 58.4119 177.628 58.0919 180.19 57.5746 182.046 C 57.0572 183.901 56.3433 185.05 55.5548 185.05 C 54.7662 185.05 54.0523 183.901 53.535 182.046 C 53.0176 180.19 52.6976 177.628 52.6976 174.8 C 52.6976 171.972 53.0176 169.41 53.535 167.554 C 54.0523 165.699 54.7662 164.55 55.5548 164.55 Z "/>
        </g>
        <g id="ID0.7857311917468905">
          <path id="ID0.2418159293010831" fill="#7CFF84" stroke="#006622" stroke-width="3" d="M 97.1 163.3 C 100.342 163.3 103.279 164.617 105.406 166.744 C 107.533 168.871 108.85 171.808 108.85 175.05 C 108.85 178.292 107.533 181.229 105.406 183.356 C 103.279 185.483 100.342 186.8 97.1 186.8 C 93.858 186.8 90.921 185.483 88.794 183.356 C 86.667 181.229 85.35 178.292 85.35 175.05 C 85.35 171.808 86.667 168.871 88.794 166.744 C 90.921 164.617 93.858 163.3 97.1 163.3 Z "/>
          <path id="ID0.3018890544772148" fill="none" stroke="#A8FFF4" stroke-width="1" d="M 97.475 165.05 C 100.199 165.05 102.668 166.157 104.456 167.944 C 106.243 169.732 107.35 172.201 107.35 174.925 C 107.35 177.649 106.243 180.118 104.456 181.906 C 102.668 183.693 100.199 184.8 97.475 184.8 C 94.751 184.8 92.282 183.693 90.494 181.906 C 88.707 180.118 87.6 177.649 87.6 174.925 C 87.6 172.201 88.707 169.732 90.494 167.944 C 92.282 166.157 94.751 165.05 97.475 165.05 Z "/>
          <path id="ID0.49519494362175465" fill="none" stroke="#006622" stroke-width="2.666879261472647" d="M 96.8048 165.3 C 97.5933 165.3 98.3072 166.449 98.8246 168.304 C 99.3419 170.16 99.6619 172.722 99.6619 175.55 C 99.6619 178.378 99.3419 180.94 98.8246 182.796 C 98.3072 184.651 97.5933 185.8 96.8048 185.8 C 96.0162 185.8 95.3023 184.651 94.785 182.796 C 94.2676 180.94 93.9476 178.378 93.9476 175.55 C 93.9476 172.722 94.2676 170.16 94.785 168.304 C 95.3023 166.449 96.0162 165.3 96.8048 165.3 Z "/>
        </g>
        <g id="ID0.7857311917468905">
          <path id="ID0.2418159293010831" fill="#7CFF84" stroke="#006622" stroke-width="3" d="M 135.1 163.8 C 138.342 163.8 141.279 165.117 143.406 167.244 C 145.533 169.371 146.85 172.308 146.85 175.55 C 146.85 178.792 145.533 181.729 143.406 183.856 C 141.279 185.983 138.342 187.3 135.1 187.3 C 131.858 187.3 128.921 185.983 126.794 183.856 C 124.667 181.729 123.35 178.792 123.35 175.55 C 123.35 172.308 124.667 169.371 126.794 167.244 C 128.921 165.117 131.858 163.8 135.1 163.8 Z "/>
          <path id="ID0.3018890544772148" fill="none" stroke="#A8FFF4" stroke-width="1" d="M 135.475 165.55 C 138.199 165.55 140.668 166.657 142.456 168.444 C 144.243 170.232 145.35 172.701 145.35 175.425 C 145.35 178.149 144.243 180.618 142.456 182.406 C 140.668 184.193 138.199 185.3 135.475 185.3 C 132.751 185.3 130.282 184.193 128.494 182.406 C 126.707 180.618 125.6 178.149 125.6 175.425 C 125.6 172.701 126.707 170.232 128.494 168.444 C 130.282 166.657 132.751 165.55 135.475 165.55 Z "/>
          <path id="ID0.49519494362175465" fill="none" stroke="#006622" stroke-width="2.666879261472647" d="M 134.8048 165.8 C 135.5933 165.8 136.3072 166.949 136.8246 168.804 C 137.3419 170.66 137.6619 173.222 137.6619 176.05 C 137.6619 178.878 137.3419 181.44 136.8246 183.296 C 136.3072 185.151 135.5933 186.3 134.8048 186.3 C 134.0162 186.3 133.3023 185.151 132.785 183.296 C 132.2676 181.44 131.9476 178.878 131.9476 176.05 C 131.9476 173.222 132.2676 170.66 132.785 168.804 C 133.3023 166.949 134.0162 165.8 134.8048 165.8 Z "/>
        </g>
      </g>
    </g>
    <path id="ID0.5991973825730383" fill="none" stroke="#FFFFFF" stroke-width="2" stroke-linecap="round" d="M 89.5 116.5 L 89.8 116.8 "/>
    <path id="ID0.03437589108943939" fill="none" stroke="#FFFFFF" stroke-width="2" stroke-linecap="round" d="M 69 82 L 69.3 82.3 "/>
    <path id="ID0.8091568411327899" fill="none" stroke="#FFFFFF" stroke-width="2" stroke-linecap="round" d="M 107.5 55.5 L 107.8 55.8 "/>
    <path id="ID0.9535058694891632" fill="none" stroke="#FFFFFF" stroke-width="2" stroke-linecap="round" d="M 127 64.5 L 127.3 64.8 "/>
    <path id="ID0.9747521840035915" fill="none" stroke="#FFFFFF" stroke-width="2" stroke-linecap="round" d="M 140 85.5 L 140.3 85.8 "/>
    <path id="ID0.83709014672786" fill="none" stroke="#FFFFFF" stroke-width="2" stroke-linecap="round" d="M 82 80.5 L 82.3 80.8 "/>
    <path id="ID0.17883287509903312" fill="none" stroke="#FFFFFF" stroke-width="2" stroke-linecap="round" d="M 115 81 L 115.3 81.3 "/>
    <path id="ID0.18193703517317772" fill="none" stroke="#FFFFFF" stroke-width="2" stroke-linecap="round" d="M 115 81 L 115.3 81.3 "/>
    <path id="ID0.25288054160773754" fill="none" stroke="#FFFFFF" stroke-width="2" stroke-linecap="round" d="M 124.5 98.5 L 124.8 98.8 "/>
    <path id="ID0.3610241152346134" fill="none" stroke="#FFFFFF" stroke-width="2" stroke-linecap="round" d="M 43 114 L 43.3 114.3 "/>
    <path id="ID0.26089201867580414" fill="none" stroke="#FFFFFF" stroke-width="2" stroke-linecap="round" d="M 80.5 133 L 80.8 133.3 "/>
    <path id="ID0.8369097784161568" fill="none" stroke="#FFFFFF" stroke-width="2" stroke-linecap="round" d="M 105 129 L 105.3 129.3 "/>
    <path id="ID0.28264011070132256" fill="none" stroke="#FFFFFF" stroke-width="2" stroke-linecap="round" d="M 115.5 125 L 115.8 125.3 "/>
    <path id="ID0.892070815898478" fill="none" stroke="#FFFFFF" stroke-width="2" stroke-linecap="round" d="M 131 133 L 131.3 133.3 "/>
    <path id="ID0.4642385430634022" fill="none" stroke="#FFFFFF" stroke-width="2" stroke-linecap="round" d="M 144.5 100 L 144.8 100.3 "/>
    <path id="ID0.501466725487262" fill="none" stroke="#FFFFFF" stroke-width="2" stroke-linecap="round" d="M 95 96 L 95.3 96.3 "/>
    <path id="ID0.7145800963044167" fill="none" stroke="#FFFFFF" stroke-width="2" stroke-linecap="round" d="M 62.5 60 L 62.8 60.3 "/>
    <path id="ID0.4457754623144865" fill="none" stroke="#FFFFFF" stroke-width="2" stroke-linecap="round" d="M 70 102.5 L 70.3 102.8 "/>
    <path id="ID0.9519479586742818" fill="none" stroke="#FFFFFF" stroke-width="2" stroke-linecap="round" d="M 144.5 55.5 L 144.8 55.8 "/>
    <path id="ID0.5980620789341629" fill="none" stroke="#FFFFFF" stroke-width="2" stroke-linecap="round" d="M 91.5 149 L 91.8 149.3 "/>
    <path id="ID0.49738239450380206" fill="none" stroke="#FFFFFF" stroke-width="2" stroke-linecap="round" d="M 48 137 L 48.3 137.3 "/>
    <path id="ID0.10183264454826713" fill="none" stroke="#FFFFFF" stroke-width="2" stroke-linecap="round" d="M 151 146.5 L 151.3 146.8 "/>
  </g>
</svg>