<svg version="1.1" xmlns="http://www.w3.org/2000/svg" xmlns:xlink="http://www.w3.org/1999/xlink" width="27.77121" height="15.75271" viewBox="0,0,27.77121,15.75271"><g transform="translate(-229.02828,-171.24225)"><g data-paper-data="{&quot;isPaintingLayer&quot;:true}" fill="#00deff" fill-rule="nonzero" stroke="#15a3a3" stroke-width="1" stroke-linecap="butt" stroke-linejoin="miter" stroke-miterlimit="10" stroke-dasharray="" stroke-dashoffset="0" font-family="none" font-weight="none" font-size="none" text-anchor="none" style="mix-blend-mode: normal"><g data-paper-data="{&quot;origPos&quot;:null}"><g data-paper-data="{&quot;origRot&quot;:0,&quot;origPos&quot;:null}"><path d="M242.93775,179.86082c0,0 -2.79947,0.69739 -4.73429,1.77185c-2.48563,1.38036 -6.59255,4.51831 -6.59255,4.51831l-0.96135,-3.40096l5.89108,-3.66853l14.28436,-6.13388z" data-paper-data="{&quot;origPos&quot;:null,&quot;origRot&quot;:0}"/><path d="M240.9937,181.67011c0,0 -1.99831,-2.08092 -3.89327,-3.22421c-2.43444,-1.46877 -7.20027,-3.46885 -7.20027,-3.46885l2.47121,-2.52663l6.11408,3.28343l12.4301,9.33596z" data-paper-data="{&quot;origPos&quot;:null,&quot;origRot&quot;:0}"/></g><path d="M243.45122,180.96583c0,0 -2.81131,-0.64806 -5.023,-0.56791c-2.84132,0.10297 -7.92473,1.03712 -7.92473,1.03712l0.68558,-3.46708l6.91415,-0.59787l15.51273,1.01136z" data-paper-data="{&quot;origPos&quot;:null,&quot;origRot&quot;:0}"/></g></g></g></svg>