<svg xmlns="http://www.w3.org/2000/svg" xmlns:xlink="http://www.w3.org/1999/xlink" version="1.1" width="156.40836596488953" height="195.1897838115692" viewBox="0.024265408515930176 0.18814074993133545 156.40836596488953 195.1897838115692">
  <!-- Exported by Scratch - http://scratch.mit.edu/ -->
  <g id="ID0.08133917348459363">
    <path id="ID0.6631466881372035" fill="#FF0000" stroke="#CC0000" stroke-width="4.182980418205261" stroke-linecap="round" d="M 21.7483 50.6547 C 23.8078 41.6236 30.23 36.7114 37.0859 36.7114 C 41.3665 36.7114 42.9198 43.0194 45.4519 46.4717 C 48.0426 50.0035 49.7171 54.1823 52.4235 57.6263 C 54.858 60.7245 56.8631 65.6646 60.7895 65.9923 C 64.4036 66.2935 66.9803 61.9222 69.1555 59.0207 C 71.2776 56.1916 70.9444 51.8622 73.3384 49.2604 C 81.7978 40.0662 90.8986 31.1941 101.225 24.1625 C 112.8983 16.2148 126.0161 10.4855 138.8718 4.6419 C 142.0857 3.1807 145.2411 1.2509 147.2378 3.2476 C 150.2648 6.2747 150.527 11.5452 150.0264 15.7965 C 149.5412 19.9209 146.535 23.3594 144.4491 26.9511 C 138.1718 37.7627 131.4609 48.361 124.9285 59.0207 C 122.639 62.7547 115.7037 66.419 117.9569 70.1753 C 121.6965 76.4065 131.7175 75.5044 137.4775 79.9356 C 143.989 84.944 153.5541 89.8729 154.2094 98.0618 C 154.788 105.2914 142.4496 107.8779 140.2661 114.7937 C 139.1395 118.3632 145.0793 120.8897 145.8434 124.554 C 147.4567 132.2953 149.049 140.5609 147.2378 148.2576 C 146.7065 150.5178 142.5877 148.2576 140.2661 148.2576 C 136.5516 148.2576 132.3589 146.4533 129.1115 148.2576 C 127.0423 149.4079 127.455 152.8756 127.7172 155.2292 C 127.9458 157.2928 129.7766 158.8628 130.5058 160.8065 C 131.1779 162.5996 132.7075 164.7692 131.9002 166.3838 C 131.3131 167.5578 129.1101 166.3838 127.7172 166.3838 C 122.1454 166.3838 115.2519 162.8018 110.9853 166.3838 C 103.191 172.9274 106.1483 192.303 95.9962 193.0155 C 73.4611 194.5966 50.53 184.1461 31.5086 171.9611 C 26.1614 168.5353 36.1099 158.8015 33.5304 152.9983 C 29.9498 144.9433 21.5754 139.9251 14.7767 134.3143 C 13.077 132.9116 10.6523 134.1665 9.1994 132.92 C 7.1442 131.1575 2.9152 127.655 5.0164 125.9483 C 12.4454 119.9123 22.7941 118.755 31.5086 114.7937 C 33.6866 113.8038 36.7945 113.2655 35.6916 112.0051 C 32.1263 107.9295 26.7554 105.7013 21.7483 103.6391 C 18.7129 102.3884 15.1448 103.1469 11.9881 102.2448 C 8.5887 101.2729 2.2278 100.4322 2.2278 98.0618 C 2.2278 95.552 8.4939 93.8286 11.9881 92.4845 C 14.6247 91.4708 17.5974 91.7023 20.354 91.0902 C 21.7874 90.7723 25.8979 90.6496 24.537 89.6958 C 19.0908 85.8838 11.942 85.0179 6.4107 81.3299 C 4.6832 80.1782 2.0451 77.1037 3.6221 75.7526 C 6.8723 72.9667 12.1958 74.5535 16.171 72.9639 C 19.2804 71.7202 23.151 70.4346 24.537 67.3866 C 25.8951 64.3972 23.7297 60.857 23.1427 57.6263 C 22.7997 55.7426 22.4204 53.8421 21.7483 52.049 C 21.0191 50.1053 17.4915 47.9399 18.9597 46.4717 Z "/>
    <path id="ID0.6631466881372035" fill="#FFFF00" stroke="#CCCC00" stroke-width="4.407068967819214" stroke-linecap="round" d="M 51.9058 80.9922 C 51.3968 75.8477 50.2848 69.8159 53.3749 69.9745 C 62.5827 70.4468 70.0703 82.2034 79.0828 80.2577 C 94.0095 77.0347 112.5809 53.473 118.0119 56.0188 C 123.3738 58.5323 101.6477 78.4949 102.5871 91.2754 C 103.1755 99.2771 122.264 97.9631 121.6844 105.9656 C 120.6598 120.1108 111.0634 134.6395 98.9146 141.9567 C 86.942 149.1674 64.9236 146.5165 57.0474 144.8947 C 53.1949 144.1014 73.5071 143.0357 73.9412 136.8151 C 74.5839 127.6073 65.9277 119.6841 59.2509 113.3107 C 54.6507 108.9198 43.196 112.1274 41.6227 105.9656 C 39.2693 96.7475 47.4833 87.8327 50.4368 78.7887 Z "/>
  </g>
</svg>