<svg version="1.1" xmlns="http://www.w3.org/2000/svg" xmlns:xlink="http://www.w3.org/1999/xlink" width="54.09989" height="57.77899"><defs><linearGradient x1="238.83668" y1="158.36812" x2="238.83668" y2="200.33292" gradientUnits="userSpaceOnUse" id="color-1"><stop offset="0" stop-color="#feffb0"/><stop offset="1" stop-color="#dae600"/></linearGradient></defs><g transform="translate(-206.8618,-143.69654)"><g data-paper-data="{&quot;isPaintingLayer&quot;:true}" fill="none" fill-rule="nonzero" stroke="none" stroke-width="none" stroke-linecap="butt" stroke-linejoin="miter" stroke-miterlimit="10" stroke-dasharray="" stroke-dashoffset="0" font-family="none" font-weight="none" font-size="none" text-anchor="none" style="mix-blend-mode: normal"><path d="M206.8618,144.44654c0,-0.41422 0.33578,-0.75 0.75,-0.75c0.41422,0 0.75,0.33578 0.75,0.75c0,0.41422 -0.33578,0.75 -0.75,0.75c-0.41422,0 -0.75,-0.33578 -0.75,-0.75z" fill="#c9c9c9" stroke="none" stroke-width="0.5"/><path d="M217.85429,158.36812h41.9648v41.9648h-41.9648z" data-paper-data="{&quot;origPos&quot;:null}" id="ID0.6338139399886131" fill="url(#color-1)" stroke="#dadc00" stroke-width="2.28521"/><path d="M256.55463,180.2136c0.04164,1.24931 -0.36542,0.92553 -0.36542,0.92553l-0.44314,0.44314c-1.84658,1.62567 -2.3714,4.35557 -4.14307,6.11386c-2.16007,2.14375 -4.73311,2.8481 -7.41807,3.94883c-6.082,2.30247 -11.22375,-0.2537 -14.522,-5.45422c-1.09701,-1.72971 -2.19593,-2.93577 -2.19593,-5.04921c0,0 0,-1.25 1.25,-1.25c1.25,0 1.25,1.25 1.25,1.25c0,1.79857 0.78398,2.10745 1.80509,3.70702c2.51806,3.94458 6.6553,6.71939 11.46454,4.48325c2.62002,-1.07411 4.81162,-1.57336 6.90825,-3.6664c1.63375,-1.63096 2.21367,-4.13835 3.83343,-5.85089l0.44314,-0.44314c0,0 2.09155,-0.40707 2.13319,0.84224z" data-paper-data="{&quot;origPos&quot;:null}" fill="#dadc00" stroke="none" stroke-width="0.5"/><g data-paper-data="{&quot;origPos&quot;:null}"><path d="M238.68762,170.50619c0,3.79345 -4.43431,0.22157 -9.08435,0.22157c-4.65004,0 -7.75493,3.57188 -7.75493,-0.22157c0,-3.79345 3.7696,-6.86865 8.41964,-6.86865c4.65004,0 8.41964,3.0752 8.41964,6.86865z" data-paper-data="{&quot;origPos&quot;:null}" fill="#ffffff" stroke="#e7e7e7" stroke-width="2.28521"/><path d="M240.01704,169.50913c0,1.89673 -1.5376,3.43433 -3.43433,3.43433c-1.89673,0 -3.43433,-1.5376 -3.43433,-3.43433c0,-1.89673 1.5376,-3.43433 3.43433,-3.43433c1.89673,0 3.43433,1.5376 3.43433,3.43433z" data-paper-data="{&quot;origPos&quot;:null}" fill="#000000" stroke="none" stroke-width="0"/></g><g data-paper-data="{&quot;origPos&quot;:null}"><path d="M257.86805,170.63166c0,3.79345 -4.43431,0.22157 -9.08435,0.22157c-4.65004,0 -7.75493,3.57188 -7.75493,-0.22157c0,-3.79345 3.7696,-6.86865 8.41964,-6.86865c4.65004,0 8.41964,3.0752 8.41964,6.86865z" data-paper-data="{&quot;origPos&quot;:null}" fill="#ffffff" stroke="#e7e7e7" stroke-width="2.28521"/><path d="M259.19748,169.63461c0,1.89673 -1.5376,3.43433 -3.43433,3.43433c-1.89673,0 -3.43433,-1.5376 -3.43433,-3.43433c0,-1.89673 1.5376,-3.43433 3.43433,-3.43433c1.89673,0 3.43433,1.5376 3.43433,3.43433z" data-paper-data="{&quot;origPos&quot;:null}" fill="#000000" stroke="none" stroke-width="0"/></g></g></g></svg>