<?xml version="1.0" encoding="UTF-8"?><svg xmlns="http://www.w3.org/2000/svg" xmlns:xlink="http://www.w3.org/1999/xlink" width="75.20000457763672" height="110.62548065185547" viewBox="-0.29999999701976776 0 75.20000457763672 110.62548065185547" version="1.1">
    <!-- Generator: Sketch 39.1 (31720) - http://www.bohemiancoding.com/sketch -->
    <title>群组</title>
    <desc>Created with Sketch.</desc>
    <defs/>
    <g id="Page-1" stroke="none" fill-rule="evenodd">
        <g id="kaka">
            <g id="群组">
                <path d="M26,105.7 C26.6,105.4 35.8,99.4 36.6,98.9 L26.2,90.7 C25.8,91.3 25,91.9 24.5,92.5 C22.1,95.3 19.5,98.1 19.5,98.1 C18.6,98.7 17.3,99.5 17.3,99.5 C15.2,100.7 19,105 19,105 C22.6,109.2 24.1,110 24.7,110.1 C25.1,110.2 25.6,110 26.2,109.6 L26.2,109.6 C27.1,108.8 26.8,107.5 26.5,106.6 C26.2,106 26,105.7 26,105.7 L26,105.7 Z" id="形状" fill="#DB373C" stroke-width="1"/>
                <path d="M62.2,79.6 C62.2,79.6 57.1,72.7 50,68.4 C50,68.4 48.8,67.6 48.3,67.5 C48.3,67.5 45.1,66.1 43.1,67.2 C40.6,68.6 42,70.5 42.6,71.4 C43.2,72.3 44,73.5 44.9,74.8 C46,76.7 47.2,78.8 48.5,80.8 C50.9,84.7 52.7,86.9 54.5,88.1 C54.9,88.4 58.1,90.8 61.7,88.2 C62.9,87.3 63.4,85.8 63.6,85.2 C64,83.7 63.9,81.8 62.2,79.6 L62.2,79.6 Z" id="形状" fill="#DB373C" stroke-width="1"/>
                <g id="形状">
                    <path d="M 51 79.3 C 50.5 77.6 48.4 70.3 47.7 68.5 C 45.4 69.3 41.6 69.9 37.3 69.9 C 35.4 69.9 33.6 69.8 32 69.6 C 32 69.6 29.8 69.6 29.2 68.8 C 29 68.8 28.8 68.7 28.6 68.7 C 28.5 70.7 28.1 76 27.7 79.8 C 27.5 82.3 26.2 84.8 25.8 86.7 C 24.5 93.8 32.4 100.1 39.9 99.3 C 40.3 99.3 41.5 99.1 41.9 99.1 C 44.2 98.7 46.4 97.8 48.2 96.5 C 49.8 95 51.1 92.9 51.7 90.3 L 51.7 90.3 C 52.6 87.5 52.3 83.5 51 79.3 L 51 79.3 Z " fill="#F4474D" stroke-width="1"/>
                    <g>
                        <path d="M 46.1 64.7 C 44.3 62.1 41.2 61.6 34.5 62.6 C 32.8 62.8 31.1 63.6 30 64.7 L 30 64.7 L 29.9 64.8 C 29.8 64.9 29.6 65.2 29.4 65.4 C 31.2 65.5 33.2 65.6 35.2 65.6 C 39.6 65.5 43.3 65.2 46.1 64.7 L 46.1 64.7 Z " fill="#DB373C" stroke-width="1"/>
                        <g>
                            <path d="M 50.9 78.9 C 50.4 77.2 48.3 69.9 47.6 68.1 C 45.3 68.9 41.5 69.5 37.2 69.5 C 35.3 69.5 33.5 69.4 31.9 69.2 C 29.3 79.1 29.4 95 44.6 93.4 L 44.6 93.4 C 47.6 93.1 50 91.8 51.5 90 C 52.4 87.2 52.2 83.1 50.9 78.9 L 50.9 78.9 Z " fill="#FF555F" stroke-width="1"/>
                            <path d="M 47 66.4 C 46.9 66.2 46.8 66 46.8 65.9 C 46.6 65.5 46.4 65 46.1 64.7 C 43.3 65.2 39.5 65.6 35.3 65.6 C 33.2 65.6 31.3 65.5 29.5 65.4 C 29.2 65.8 28.9 66.3 28.8 66.8 C 28.7 67.1 28.6 67.6 28.6 68 C 28.6 68 28.5 68.6 28.5 68.9 C 29.1 69.8 35.3 69.9 37.2 69.9 C 41.5 69.9 45.3 69.1 47.6 68.2 C 47.5 67.6 47.2 67 47 66.4 L 47 66.4 Z " fill="#DB373C" stroke-width="1"/>
                        </g>
                    </g>
                </g>
                <path d="M50.7,92.1 C51.2,92.8 57.1,99.9 57.5,99.7 C57.4,99.8 59.5,98.5 60.5,99.8 C61,100.3 61.2,100.8 61.1,101.2 C61,101.8 60.3,103.4 56.3,107.2 C56.3,107.2 52.2,111.2 50.9,109.2 C50.9,109.2 50.1,108 49.4,107.1 C49.4,107.1 46.5,104.6 43.6,102.3 C43,101.8 41,98.9 40.4,98.5 L50.7,92.1 L50.7,92.1 Z" id="形状" fill="#F4474D" stroke-width="1"/>
                <g>
                    <polygon id="矩形_2_8_" fill="#C2B5B5" points="36.9 7.9 39.2 7.9 39.6 12.3 36.6 12.3" stroke-width="1"/>
                    <path d="M72.5,31.4 L72.5,31.4 L72.5,31.4 L66.6,31.4 L66.6,49.6 L72.5,49.6 L72.5,49.6 L72.5,49.6 C73.5,49.6 74.4,45.5 74.4,40.5 C74.4,35.5 73.6,31.4 72.5,31.4 L72.5,31.4 Z" id="形状" fill="#D9262C" stroke-width="1"/>
                    <path d="M67.6,57.2 C66.9,59.3 65,62.6 60,63.9 C55.9,65 49.1,66.1 38.1,66.1 C27,66.1 20.3,65 16.2,63.9 C11.2,62.6 9.3,59.2 8.6,57.2 C7.4,53.8 6.1,48.1 6.1,40.2 C6.1,30.4 7,24.6 8.1,21.2 C9.1,18.1 11.2,16.2 14.8,15 C19.7,13.4 28.1,11.1 38.1,11.1 C48.1,11.1 56.5,13.4 61.4,15 C65.1,16.2 67.1,18.1 68.1,21.2 C69.2,24.5 70.1,30.4 70.1,40.2 C70.1,48.1 68.8,53.8 67.6,57.2 L67.6,57.2 Z" id="矩形_1_拷贝_8_" fill="#FF555F" stroke-width="1"/>
                    <path d="M24.1,63.3 C19.1,62 17.2,58.6 16.5,56.6 C15.3,53.2 14,47.5 14,39.6 C14,29.8 14.9,24 16,20.6 C17,17.5 19.1,15.6 22.7,14.4 C25.7,13.4 27.9,12.2 33,11.4 C25.2,12 18.7,13.8 14.7,15.1 C11,16.3 9,18.2 8,21.3 C6.9,24.6 6,30.5 6,40.3 C6,48.2 7.3,53.9 8.5,57.3 C9.2,59.4 11.1,62.7 16.1,64 C20.2,65.1 27,66.2 38,66.2 C45.3,66.2 50.7,65.6 54.7,65 C51.7,65.2 48.2,65.5 44,65.5 C33,65.4 28.2,64.3 24.1,63.3 L24.1,63.3 Z" id="形状" fill="#F4474D" stroke-width="1"/>
                    <g id="形状">
                        <path d="M 38 66.1 L 41.6 66.1 L 36.4 66.1 L 38 66.1 L 38 66.1 Z " stroke-width="1" fill="#F4474D"/>
                        <path d="M 52.7 12.7 L 52.7 12.7 C 52.4 12.6 52.2 12.6 51.9 12.5 C 52.2 12.6 52.4 12.7 52.7 12.7 L 52.7 12.7 Z " stroke-width="1" fill="#F4474D"/>
                    </g>
                    <path d="M66.7,28 C66.4,27 57.8,23 45.2,23 L45.1,23 L45,23 C41.6,23 38.3,23.3 35,23.9 C25,25.7 23.9,27.1 23.5,28 C22.8,30.1 22.9,35 23,41.3 C23,46.7 23.9,53.3 24.5,53.9 C25.4,54.8 27.4,55.3 30.6,56.1 C33.3,56.8 37.8,57.7 45,57.7 L45,57.7 L45.1,57.7 C52.4,57.7 56.9,56.8 59.6,56.1 C62.9,55.3 64.8,54.8 65.8,53.9 C66.4,53.3 67.2,46.7 67.3,41.3 C67.2,35 67.4,30.1 66.7,28 L66.7,28 Z" id="形状" fill="#600E12" stroke-width="1"/>
                    <g id="椭圆_2_拷贝_9_">
                        <path d="M 33.7 36.3 C 37.2 36.3 39.7 40.2 37.3 43.9 C 37.2 44.1 37 44.3 36.8 44.4 C 33.1 46.9 29.2 44.3 29.2 40.8 L 29.2 40.8 C 29.1 38.3 31.1 36.3 33.7 36.3 L 33.7 36.3 Z M 52.5 38 C 57.4 33.5 63.3 38.9 60 43.9 C 59.9 44.1 59.7 44.3 59.5 44.4 C 55.8 46.9 51.9 44.3 51.9 40.8 L 51.9 39.4 C 51.9 38.9 52.1 38.4 52.5 38 L 52.5 38 Z " id="形状" stroke-width="1" fill="#FFFFFF"/>
                    </g>
                    <g>
                        <circle id="椭圆_1_8_" fill="#6F87ED" cx="5" cy="4.7" r="4.2" stroke-width="1" transform="matrix(1,0,0,1,33,0)"/>
                        <circle id="椭圆_21_8_" fill="#FFFFFF" cx="7.1" cy="3" r="1.3" stroke-width="1" transform="matrix(1,0,0,1,33,0)"/>
                    </g>
                    <path d="M23.6,45.4 C25.7,45.4 27.4,46.2 27.4,47.3 C27.4,48.3 25.7,49.2 23.6,49.2 C21.5,49.2 19.8,48.4 19.8,47.3 C19.8,46.2 21.5,45.4 23.6,45.4 L23.6,45.4 Z" id="椭圆_3_8_" fill="#FFD155" stroke-width="1"/>
                    <path d="M66.8,45.4 C68.9,45.4 70.6,46.2 70.6,47.3 C70.6,48.3 68.9,49.2 66.8,49.2 C64.7,49.2 63,48.4 63,47.3 C63,46.2 64.7,45.4 66.8,45.4 L66.8,45.4 Z" id="椭圆_3_拷贝_8_" fill="#FFD155" stroke-width="1"/>
                    <g id="形状">
                        <path d="M 7 49.6 C 7.4 49.6 7.8 49.4 8.1 49.1 C 7.7 49.4 7.2 49.5 6.7 49.6 L 7 49.6 L 7 49.6 Z " fill="#F4474D" stroke-width="1"/>
                        <path d="M 7 31.4 L 6.7 31.4 C 7.4 31.5 8 31.7 8.5 32.1 C 8.1 31.7 7.6 31.4 7 31.4 L 7 31.4 Z " fill="#F4474D" stroke-width="1"/>
                        <path d="M 9.8 32.2 C 9.3 31.8 8.7 31.5 8 31.5 L 7.6 31.5 L 3.4 31.5 L 3.4 31.5 L 3.4 31.5 C 2.4 31.5 3.4 35.6 3.4 40.6 C 3.4 45.6 2.3 49.7 3.4 49.7 L 3.4 49.7 L 3.4 49.7 L 7.6 49.7 L 8 49.7 C 8.5 49.6 9 49.5 9.4 49.2 C 10.6 48 11.5 44.6 11.5 40.6 C 11.5 36.8 10.9 33.6 9.8 32.2 L 9.8 32.2 Z " fill="#D9262C" stroke-width="1"/>
                    </g>
                    <path d="M0.2,40.5 C0.2,45.5 1.2,49.6 3.1,49.6 C5.1,49.6 6.3,45.5 6.3,40.5 C6.3,35.5 5.4,31.4 3.1,31.4 C1.1,31.4 0.2,35.5 0.2,40.5 L0.2,40.5 Z" id="形状" fill="#DB373C" stroke-width="1"/>
                </g>
                <g id="形状">
                    <path d="M 32 66.6 L 32 66.6 C 31.8 66.6 31.7 66.5 31.6 66.5 C 31.3 66.4 31 66.4 30.7 66.5 C 30.4 66.5 29.9 66.5 30 66.4 C 24.5 67.3 14.6 81.9 14.6 81.9 C 13.2 84.3 13.3 86.2 13.9 87.6 C 14.1 88.1 14.8 89.6 16.1 90.3 C 20 92.4 22.8 89.7 23.2 89.3 C 24.8 87.9 25.6 86.8 27.4 82.6 C 29.9 76.9 30.4 75.6 30.5 75.4 C 31.2 74.1 32.1 72.7 33 71.2 C 33.2 71 33.3 70.6 33.5 70.1 C 33.5 70.2 33.5 70 33.5 70.1 C 33.8 68.8 33.9 67.2 32 66.6 L 32 66.6 Z " fill="#DB373C" stroke-width="1"/>
                    <path d="M 31.5 66.5 C 34.6 67 33.6 70.3 33 71.2 C 26.6 81.8 25.5 84.8 23 87.9 C 23 87.9 20.1 91.1 16.6 88.8 C 16.6 88.8 13 86.2 15.6 82.4 C 21.7 73.3 27.3 65.8 31.5 66.5 L 31.5 66.5 Z " fill="#F4474D" stroke-width="1"/>
                    <path d="M 30.5 67.3 C 32.6 67.7 33.3 69 33.4 70.3 C 33.8 68.9 33.8 66.9 31.5 66.5 C 30.4 66.3 29.3 66.7 28 67.5 C 28.8 67.2 29.7 67.1 30.5 67.3 L 30.5 67.3 Z " fill="#DB373C" stroke-width="1"/>
                </g>
            </g>
        </g>
    </g>
</svg>