<svg version="1.1" xmlns="http://www.w3.org/2000/svg" xmlns:xlink="http://www.w3.org/1999/xlink" width="128.5" height="128.5"><g transform="translate(-179.80899,-119.98262)"><g data-paper-data="{&quot;isPaintingLayer&quot;:true}" fill="none" fill-rule="nonzero" stroke="none" stroke-width="none" stroke-linecap="butt" stroke-linejoin="miter" stroke-miterlimit="10" stroke-dasharray="" stroke-dashoffset="0" font-family="none" font-weight="none" font-size="none" text-anchor="none" style="mix-blend-mode: normal"><path d="M224.12794,178.93039c0,-9.03388 7.32341,-16.35729 16.35729,-16.35729c9.03389,0 16.35729,7.3234 16.35729,16.35729c0,9.03388 -7.3234,16.3573 -16.35729,16.3573c-9.03388,0 -16.35729,-7.32341 -16.35729,-16.3573z" data-paper-data="{&quot;origPos&quot;:null}" fill="#8040ff" stroke="#7300b1" stroke-width="2.5"/><path d="M249.45558,172.51813c0,1.8674 -4.43599,1.22953 -9.52889,1.22953c-5.0929,0 -8.91413,0.63786 -8.91413,-1.22953c0,-1.8674 4.12861,-3.38122 9.22151,-3.38122c5.0929,0 9.22151,1.51382 9.22151,3.38122z" data-paper-data="{&quot;origPos&quot;:null}" fill="#a070ff" stroke="none" stroke-width="0"/><path d="M239.31192,183.27656c0,2.88598 -1.99549,5.22552 -4.45706,5.22552c-2.46157,0 -4.45706,-2.33955 -4.45706,-5.22552c0,-2.88598 1.99549,-5.22552 4.45706,-5.22552c2.46157,0 4.45706,2.33955 4.45706,5.22552z" fill="#a070ff" stroke="none" stroke-width="0"/><path d="M251.60726,179.58795c0,1.69763 -1.44501,3.07384 -3.22753,3.07384c-1.78251,0 -3.22753,-1.3762 -3.22753,-3.07384c0,-1.69763 1.44501,-3.07384 3.22753,-3.07384c1.78251,0 3.22753,1.3762 3.22753,3.07384z" fill="#a070ff" stroke="none" stroke-width="0"/><path d="M181.05899,184.23262c0,-34.79394 28.20606,-63 63,-63c34.79394,0 63,28.20606 63,63c0,34.79394 -28.20606,63 -63,63c-34.79394,0 -63,-28.20606 -63,-63z" fill="#8040ff" stroke="#7300b1" stroke-width="2.5"/></g></g></svg>