<svg version="1.1" xmlns="http://www.w3.org/2000/svg" xmlns:xlink="http://www.w3.org/1999/xlink" width="330" height="224"><g transform="translate(-100,-56)"><g data-paper-data="{&quot;isPaintingLayer&quot;:true}" fill="#ff0000" fill-rule="nonzero" stroke="none" stroke-width="0" stroke-linecap="butt" stroke-linejoin="miter" stroke-miterlimit="10" stroke-dasharray="" stroke-dashoffset="0" font-family="none" font-weight="none" font-size="none" text-anchor="none" style="mix-blend-mode: normal"><path d="M258,155c0,22.09139 -17.68475,40 -39.5,40c-21.81525,0 -39.5,-17.90861 -39.5,-40c0,-22.09139 17.68475,-40 39.5,-40c21.81525,0 39.5,17.90861 39.5,40z"/><path d="M236,171c0,-29.27109 24.40048,-53 54.5,-53c30.09952,0 54.5,23.72891 54.5,53c0,29.27109 -24.40048,53 -54.5,53c-30.09952,0 -54.5,-23.72891 -54.5,-53z"/><path d="M280,213.5c0,36.72694 -32.2355,66.5 -72,66.5c-39.7645,0 -72,-29.77306 -72,-66.5c0,-36.72694 32.2355,-66.5 72,-66.5c39.7645,0 72,29.77306 72,66.5z"/><path d="M295,114.5c0,32.30866 -28.20606,58.5 -63,58.5c-34.79394,0 -63,-26.19134 -63,-58.5c0,-32.30866 28.20606,-58.5 63,-58.5c34.79394,0 63,26.19134 63,58.5z"/><path d="M241,196.5c0,-42.80207 32.45936,-77.5 72.5,-77.5c40.04064,0 72.5,34.69793 72.5,77.5c0,42.80207 -32.45936,77.5 -72.5,77.5c-40.04064,0 -72.5,-34.69793 -72.5,-77.5z" data-paper-data="{&quot;origPos&quot;:null}"/><path d="M233,129.5c0,30.6518 -25.51977,55.5 -57,55.5c-31.48023,0 -57,-24.8482 -57,-55.5c0,-30.6518 25.51977,-55.5 57,-55.5c31.48023,0 57,24.8482 57,55.5z"/><path d="M273,115.5c0,26.23353 22.60962,47.5 50.5,47.5c27.89038,0 50.5,-21.26647 50.5,-47.5c0,-26.23353 -22.60962,-47.5 -50.5,-47.5c-27.89038,0 -50.5,21.26647 -50.5,47.5z" data-paper-data="{&quot;origPos&quot;:null}"/><path d="M430,160.5c0,26.23353 -18.80404,47.5 -42,47.5c-23.19596,0 -42,-21.26647 -42,-47.5c0,-26.23353 18.80404,-47.5 42,-47.5c23.19596,0 42,21.26647 42,47.5z" data-paper-data="{&quot;origPos&quot;:null}"/><path d="M178,171c0,22.64367 -17.46089,41 -39,41c-21.53911,0 -39,-18.35633 -39,-41c0,-22.64367 17.46089,-41 39,-41c21.53911,0 39,18.35633 39,41z"/></g></g></svg>