<svg version="1.1" xmlns="http://www.w3.org/2000/svg" xmlns:xlink="http://www.w3.org/1999/xlink" width="98.33358" height="63.51012" viewBox="0,0,98.33358,63.51012"><defs><linearGradient x1="250.93192" y1="159.26308" x2="218.83014" y2="159.22966" gradientUnits="userSpaceOnUse" id="color-1"><stop offset="0" stop-color="#e0e0e0"/><stop offset="1" stop-color="#b7b7b7"/></linearGradient><linearGradient x1="217.93809" y1="160.47147" x2="258.60104" y2="160.47147" gradientUnits="userSpaceOnUse" id="color-2"><stop offset="0" stop-color="#dae600"/><stop offset="1" stop-color="#feffb0"/></linearGradient></defs><g transform="translate(-190.4623,-117.76726)"><g data-paper-data="{&quot;isPaintingLayer&quot;:true}" fill="none" fill-rule="nonzero" stroke="none" stroke-width="none" stroke-linecap="none" stroke-linejoin="miter" stroke-miterlimit="10" stroke-dasharray="" stroke-dashoffset="0" font-family="none" font-weight="none" font-size="none" text-anchor="none" style="mix-blend-mode: normal"><path d="M253.70957,126.40987c0,4.14214 -6.71573,7.5 -15,7.5c-8.28427,0 -15,-3.35786 -15,-7.5c0,-4.14214 6.71573,-7.5 15,-7.5c8.28427,0 15,3.35786 15,7.5z" data-paper-data="{&quot;origPos&quot;:null}" fill="none" stroke="#e8e000" stroke-width="2.28521" stroke-linecap="butt"/><g data-paper-data="{&quot;origPos&quot;:null}" stroke-linecap="butt"><path d="M219.26474,158.50299c0.36656,0 0.47419,0.32822 0.48843,0.66383c0.14292,0.1082 0.26157,0.28785 0.26157,0.58617c0,0.75 -0.75,0.75 -0.75,0.75c-0.13601,0 -0.27263,-0.00836 -0.40975,-0.02456c-0.06294,0.05883 -0.12433,0.1193 -0.18492,0.17989c-2.12969,2.04004 -4.91349,6.74087 -6.06882,10.20684c-0.66346,1.05701 0.14432,1.66448 -1.08651,2.88783c-0.3504,0.34827 -2.33423,-0.24126 -2.7043,-0.34049c-2.15796,-0.57861 -4.32111,-0.73181 -6.18383,-2.14094c-2.27587,-1.94693 -5.16192,-3.00796 -7.36187,-5.20791c-1.50879,-1.50879 -2.21641,-3.1273 0.16337,-3.9027c0.67627,-0.21151 1.82414,-0.54948 2.75436,-0.60911c-0.41859,-0.19744 -0.8121,-0.43965 -1.25314,-0.62803c-1.63457,-0.69816 -4.05287,-1.88163 -4.5172,-3.73892c0.09927,-0.20818 -1.51434,-2.06444 -1.64739,-2.43191c-0.59286,-1.63743 -0.36228,-6.04356 1.1223,-6.90107c0.33718,-0.19476 2.24241,1.63237 2.51057,1.8469c1.4048,1.12511 2.6049,2.39094 4.34382,2.96276c0.35469,0.11664 0.80265,0.04471 1.20319,0.04429c-0.27957,-0.52773 -0.46907,-1.08346 -0.76089,-1.61847c-2.33705,-4.28459 -5.05857,-8.48877 -2.66689,-13.26162c0.44293,-0.80682 0.88166,-1.20288 1.4752,-1.87c1.00206,-1.12629 1.3269,-2.01861 2.98421,-1.18995c0.59846,0.29923 0.1147,1.76718 0.23485,2.20863c0.36475,1.34017 1.16054,3.33679 1.92768,4.48752c2.42004,3.6301 5.09146,7.94586 8.15629,11.01069c1.72449,1.72449 4.81989,5.62173 7.19504,6.39536l0.35861,-0.23907c0,0 -0.33398,-0.12597 0.41602,-0.12597zM217.2647,159.97815c-2.6726,-1.31197 -5.33571,-4.75025 -7.03029,-6.44483c-3.13646,-3.13646 -5.87152,-7.53106 -8.3437,-11.23931c-0.75137,-1.12706 -1.75423,-3.42309 -2.07232,-4.76248c-0.09972,-0.4199 -0.0569,-0.91971 -0.05381,-1.35677c-0.42255,0.75527 -1.64913,1.70249 -1.90667,2.32301c-2.11508,4.22087 0.52221,7.98381 2.64268,11.87134c0.32386,0.59374 0.50236,1.30004 0.8882,1.84285c0.06068,0.08536 0.784,1.07838 0.75,1.125c-2.32646,3.18951 -6.68634,-0.87529 -8.67821,-2.46685c-0.2055,-0.1644 -0.71057,-0.48444 -1.17597,-0.82165c-0.00368,0.92345 -0.01986,2.07693 -0.01986,2.20452c0,2.43372 0.80991,2.48123 1.60261,4.5681c0.33266,1.33063 2.75545,2.44264 4.00956,2.84539c0.71119,0.22839 1.85425,0.14371 2.06974,0.85891c0.53657,1.78096 -0.10542,2.20311 -1.5683,2.57613c-0.81855,0.20872 -1.67933,0.20601 -2.48553,0.48564c-0.19904,0.06485 -0.58994,0.13492 -0.91767,0.17865c0.59211,0.21722 1.1607,1.13646 1.88059,1.76751c2.07538,1.81925 4.47147,2.97693 6.67585,4.54198c1.68148,1.27203 3.66256,1.41487 5.64267,1.88198c0.56795,0.13398 1.10463,0.257 1.68744,0.302c0.21705,0.01676 0.86979,0.01404 0.65305,-0.00629c-0.89051,-0.08354 -0.55599,-1.04035 -0.33651,-1.86217c1.19639,-3.58917 3.61915,-7.6282 6.08648,-10.41267z" data-paper-data="{&quot;origPos&quot;:null}" fill="#fcffde" stroke="none" stroke-width="0.5"/><path d="M211.14149,170.38211c-0.21948,0.82182 -0.58997,1.68533 0.30054,1.76887c0.21674,0.02033 -0.40246,0.11724 -0.61951,0.10048c-0.58281,-0.045 -1.12344,-0.16686 -1.69138,-0.30084c-1.98011,-0.46711 -3.97713,-0.60863 -5.65861,-1.88066c-2.20437,-1.56504 -4.62525,-2.7316 -6.70063,-4.55086c-0.71989,-0.63105 -1.29564,-1.55636 -1.88774,-1.77358c0.32773,-0.04373 0.78882,-0.185 0.98786,-0.24985c0.80621,-0.27963 1.6618,-0.28121 2.48034,-0.48993c1.46287,-0.37302 2.04531,-0.71487 1.50874,-2.49582c-0.21548,-0.7152 -1.3674,-0.63923 -2.07859,-0.86762c-1.25411,-0.40275 -3.68632,-1.53417 -4.01898,-2.8648c-0.7927,-2.08687 -1.60336,-2.15376 -1.60336,-4.58748c0,-0.1276 0.01815,-1.28915 0.02183,-2.2126c0.4654,0.33721 1.06583,0.68733 1.27132,0.85173c1.99187,1.59156 6.25644,5.62617 8.5829,2.43666c0.034,-0.04662 -0.6849,-1.04925 -0.74558,-1.13461c-0.38584,-0.54281 -0.55848,-1.25705 -0.88233,-1.85079c-2.12047,-3.88753 -4.74077,-7.66272 -2.62569,-11.88359c0.25754,-0.62052 1.49087,-1.57015 1.91342,-2.32542c-0.00308,0.43706 -0.04676,0.93711 0.05295,1.35701c0.31809,1.33939 1.32344,3.63475 2.07482,4.76181c2.47218,3.70825 5.26857,8.14521 8.40503,11.28167c1.69458,1.69458 4.3535,5.16003 7.0261,6.472c-2.46733,2.78447 -4.91706,6.84906 -6.11345,10.43823z" data-paper-data="{&quot;noHover&quot;:false,&quot;origItem&quot;:[&quot;Path&quot;,{&quot;applyMatrix&quot;:true,&quot;segments&quot;:[[[434.5294,320.5666],[-4.93466,5.56894],[-5.34519,-2.62394]],[[420.46881,307.67693],[3.38917,3.38917],[-6.27292,-6.27292]],[[403.7814,285.19832],[4.94436,7.41649],[-1.50275,-2.25413]],[[399.63676,275.67336],[0.63619,2.67878],[-0.19944,-0.8398]],[[399.52913,272.95982],[-0.00617,0.87412],[-0.84511,1.51053]],[[395.71579,277.60585],[0.51508,-1.24104],[-4.23017,8.44174]],[[401.00115,301.34852],[-4.24094,-7.77506],[0.64771,1.18747]],[[402.77755,305.03422],[-0.77169,-1.08563],[0.12136,0.17073]],[[404.27755,307.28422],[0.068,-0.09323],[-4.65291,6.37902]],[[386.92113,302.35053],[3.98375,3.18312],[-0.41099,-0.3288]],[[384.56919,300.70722],[0.9308,0.67443],[-0.00736,1.84691]],[[384.52947,305.11627],[0,-0.25519],[0,4.86744]],[[387.73469,314.25247],[-1.5854,-4.17375],[0.66532,2.66126]],[[395.75381,319.94325],[-2.50821,-0.80549],[1.42237,0.45678]],[[399.89328,321.66106],[-0.43096,-1.4304],[1.07315,3.56192]],[[396.75668,326.81333],[2.92575,-0.74604],[-1.63709,0.41745]],[[391.78561,327.7846],[1.61241,-0.55925],[-0.39808,0.12971]],[[389.95027,328.14191],[0.65547,-0.08747],[1.18421,0.43443]],[[393.71145,331.67693],[-1.43978,-1.2621],[4.15075,3.63851]],[[407.06315,340.76089],[-4.40875,-3.13009],[3.36296,2.54406]],[[418.34849,344.52486],[-3.96022,-0.93422],[1.13589,0.26796]],[[421.72337,345.12886],[-1.16562,-0.09],[0.4341,0.03352]],[[423.02947,345.11627],[0.43348,0.04067],[-1.78103,-0.16708]],[[422.35645,341.39193],[-0.43896,1.64365],[2.39278,-7.17834]]],&quot;closed&quot;:true}],&quot;origPos&quot;:null}" fill="#fffeeb" stroke="none" stroke-width="0.5"/><path d="M204.76474,126.80815z" fill="none" stroke="#cc99ff" stroke-width="2.28521"/></g><g data-paper-data="{&quot;origPos&quot;:null,&quot;index&quot;:null}" stroke-linecap="butt"><path d="M259.99343,158.31503c0.75,0 0.41602,0.12597 0.41602,0.12597l0.35861,0.23907c2.37515,-0.77363 5.47055,-4.67087 7.19504,-6.39536c3.06483,-3.06483 5.73625,-7.38059 8.15629,-11.01069c0.76714,-1.15073 1.56293,-3.14735 1.92768,-4.48752c0.12015,-0.44145 -0.36361,-1.9094 0.23485,-2.20863c1.65731,-0.82866 1.98215,0.06366 2.98421,1.18995c0.59354,0.66712 1.03227,1.06318 1.4752,1.87c2.39168,4.77285 -0.32984,8.97703 -2.66689,13.26162c-0.29182,0.53501 -0.48132,1.09074 -0.76089,1.61847c0.40054,0.00042 0.8485,0.07235 1.20319,-0.04429c1.73892,-0.57182 2.93902,-1.83765 4.34382,-2.96276c0.26816,-0.21453 2.17339,-2.04166 2.51057,-1.8469c1.48458,0.85751 1.71516,5.26364 1.1223,6.90107c-0.13305,0.36747 -1.74666,2.22373 -1.64739,2.43191c-0.46433,1.85729 -2.88263,3.04076 -4.5172,3.73892c-0.44104,0.18838 -0.83455,0.43059 -1.25314,0.62803c0.93022,0.05963 2.07809,0.3976 2.75436,0.60911c2.37978,0.7754 1.67216,2.39391 0.16337,3.9027c-2.19995,2.19995 -5.086,3.26098 -7.36187,5.20791c-1.86272,1.40913 -4.02587,1.56233 -6.18383,2.14094c-0.37007,0.09923 -2.3539,0.68876 -2.7043,0.34049c-1.23083,-1.22335 -0.42305,-1.83082 -1.08651,-2.88783c-1.15533,-3.46597 -3.93913,-8.1668 -6.06882,-10.20684c-0.06059,-0.06059 -0.12198,-0.12106 -0.18492,-0.17989c-0.13712,0.0162 -0.27374,0.02456 -0.40975,0.02456c0,0 -0.75,0 -0.75,-0.75c0,-0.29832 0.11865,-0.47797 0.26157,-0.58617c0.01424,-0.33561 0.12187,-0.66383 0.48843,-0.66383zM261.99344,159.79018c2.46733,2.78447 4.89009,6.8235 6.08648,10.41267c0.21948,0.82182 0.554,1.77863 -0.33651,1.86217c-0.21674,0.02033 0.436,0.02305 0.65305,0.00629c0.58281,-0.045 1.11949,-0.16802 1.68744,-0.302c1.98011,-0.46711 3.96119,-0.60995 5.64267,-1.88198c2.20438,-1.56505 4.60047,-2.72273 6.67585,-4.54198c0.71989,-0.63105 1.28848,-1.55029 1.88059,-1.76751c-0.32773,-0.04373 -0.71863,-0.1138 -0.91767,-0.17865c-0.8062,-0.27963 -1.66698,-0.27692 -2.48553,-0.48564c-1.46288,-0.37302 -2.10487,-0.79517 -1.5683,-2.57613c0.21549,-0.7152 1.35855,-0.63052 2.06974,-0.85891c1.25411,-0.40275 3.6769,-1.51476 4.00956,-2.84539c0.7927,-2.08687 1.60261,-2.13438 1.60261,-4.5681c0,-0.12759 -0.01618,-1.28107 -0.01986,-2.20452c-0.4654,0.33721 -0.97047,0.65725 -1.17597,0.82165c-1.99187,1.59156 -6.35175,5.65636 -8.67821,2.46685c-0.034,-0.04662 0.68932,-1.03964 0.75,-1.125c0.38584,-0.54281 0.56434,-1.24911 0.8882,-1.84285c2.12047,-3.88753 4.75776,-7.65047 2.64268,-11.87134c-0.25754,-0.62052 -1.48412,-1.56774 -1.90667,-2.32301c0.00309,0.43706 0.04591,0.93687 -0.05381,1.35677c-0.31809,1.33939 -1.32095,3.63542 -2.07232,4.76248c-2.47218,3.70825 -5.20724,8.10285 -8.3437,11.23931c-1.69458,1.69458 -4.35769,5.13286 -7.03029,6.44483z" data-paper-data="{&quot;origPos&quot;:null}" fill="#fcffde" stroke="none" stroke-width="0.5"/><path d="M268.11669,170.19418c-1.19639,-3.58917 -3.64612,-7.65376 -6.11345,-10.43823c2.6726,-1.31197 5.33152,-4.77742 7.0261,-6.472c3.13646,-3.13646 5.93285,-7.57342 8.40503,-11.28167c0.75138,-1.12706 1.75673,-3.42242 2.07482,-4.76181c0.09971,-0.4199 0.05603,-0.91995 0.05295,-1.35701c0.42255,0.75527 1.65588,1.7049 1.91342,2.32542c2.11508,4.22087 -0.50522,7.99606 -2.62569,11.88359c-0.32385,0.59374 -0.49649,1.30798 -0.88233,1.85079c-0.06068,0.08536 -0.77958,1.08799 -0.74558,1.13461c2.32646,3.18951 6.59103,-0.8451 8.5829,-2.43666c0.20549,-0.1644 0.80592,-0.51452 1.27132,-0.85173c0.00368,0.92345 0.02183,2.085 0.02183,2.2126c0,2.43372 -0.81066,2.50061 -1.60336,4.58748c-0.33266,1.33063 -2.76487,2.46205 -4.01898,2.8648c-0.71119,0.22839 -1.86311,0.15242 -2.07859,0.86762c-0.53657,1.78095 0.04587,2.1228 1.50874,2.49582c0.81854,0.20872 1.67413,0.2103 2.48034,0.48993c0.19904,0.06485 0.66013,0.20612 0.98786,0.24985c-0.5921,0.21722 -1.16785,1.14253 -1.88774,1.77358c-2.07538,1.81926 -4.49626,2.98582 -6.70063,4.55086c-1.68148,1.27203 -3.6785,1.41355 -5.65861,1.88066c-0.56794,0.13398 -1.10857,0.25584 -1.69138,0.30084c-0.21705,0.01676 -0.83625,-0.08015 -0.61951,-0.10048c0.89051,-0.08354 0.52002,-0.94705 0.30054,-1.76887z" data-paper-data="{&quot;noHover&quot;:false,&quot;origItem&quot;:[&quot;Path&quot;,{&quot;applyMatrix&quot;:true,&quot;segments&quot;:[[[434.5294,320.5666],[-4.93466,5.56894],[-5.34519,-2.62394]],[[420.46881,307.67693],[3.38917,3.38917],[-6.27292,-6.27292]],[[403.7814,285.19832],[4.94436,7.41649],[-1.50275,-2.25413]],[[399.63676,275.67336],[0.63619,2.67878],[-0.19944,-0.8398]],[[399.52913,272.95982],[-0.00617,0.87412],[-0.84511,1.51053]],[[395.71579,277.60585],[0.51508,-1.24104],[-4.23017,8.44174]],[[401.00115,301.34852],[-4.24094,-7.77506],[0.64771,1.18747]],[[402.77755,305.03422],[-0.77169,-1.08563],[0.12136,0.17073]],[[404.27755,307.28422],[0.068,-0.09323],[-4.65291,6.37902]],[[386.92113,302.35053],[3.98375,3.18312],[-0.41099,-0.3288]],[[384.56919,300.70722],[0.9308,0.67443],[-0.00736,1.84691]],[[384.52947,305.11627],[0,-0.25519],[0,4.86744]],[[387.73469,314.25247],[-1.5854,-4.17375],[0.66532,2.66126]],[[395.75381,319.94325],[-2.50821,-0.80549],[1.42237,0.45678]],[[399.89328,321.66106],[-0.43096,-1.4304],[1.07315,3.56192]],[[396.75668,326.81333],[2.92575,-0.74604],[-1.63709,0.41745]],[[391.78561,327.7846],[1.61241,-0.55925],[-0.39808,0.12971]],[[389.95027,328.14191],[0.65547,-0.08747],[1.18421,0.43443]],[[393.71145,331.67693],[-1.43978,-1.2621],[4.15075,3.63851]],[[407.06315,340.76089],[-4.40875,-3.13009],[3.36296,2.54406]],[[418.34849,344.52486],[-3.96022,-0.93422],[1.13589,0.26796]],[[421.72337,345.12886],[-1.16562,-0.09],[0.4341,0.03352]],[[423.02947,345.11627],[0.43348,0.04067],[-1.78103,-0.16708]],[[422.35645,341.39193],[-0.43896,1.64365],[2.39278,-7.17834]]],&quot;closed&quot;:true}],&quot;origPos&quot;:null}" fill="#fffeeb" stroke="none" stroke-width="0.5"/><path d="M274.49343,126.62021z" fill="none" stroke="#cc99ff" stroke-width="2.28521"/></g><path d="M196.29897,141.60172v0z" fill="#d0b059" stroke="#d5b13b" stroke-width="1" stroke-linecap="butt"/><g data-paper-data="{&quot;origPos&quot;:null}"><path d="M250.96942,152.10739l-0.21374,4.29546l7.46812,1.08735l0.07288,4.11588l-7.46573,0.22871l0.0635,4.58397l-6.05607,-0.00631l-1.18882,2.68285l-2.74523,-0.44741l-1.53052,-2.24113l-20.58117,-0.02143l0.07497,-14.31134l10.45237,0.01087l1.2021,-2.23511l4.83635,0.06503l1.93893,2.17836z" data-paper-data="{&quot;origPos&quot;:null,&quot;origRot&quot;:0}" id="ID0.6338139399886131" fill="url(#color-1)" stroke="#9e9e9e" stroke-width="1" stroke-linecap="butt"/><path d="M238.82768,161.04437l-3.71558,-1.44846v-2.63354l3.6063,-0.52672" fill="none" stroke="#9e9e9e" stroke-width="1" stroke-linecap="round"/><path d="M226.36958,155.25057h-2.62277" fill="none" stroke="#9e9e9e" stroke-width="1" stroke-linecap="round"/><path d="M223.74682,158.54249v-2.50186" fill="none" stroke="#9e9e9e" stroke-width="1" stroke-linecap="round"/><path d="M226.8067,159.06921h-2.51348" fill="none" stroke="#9e9e9e" stroke-width="1" stroke-linecap="round"/><path d="M258.60104,160.47147c0,10.85975 -9.10271,19.66331 -20.33148,19.66331c-11.22876,0 -20.33148,-8.80356 -20.33148,-19.66331c0,-10.85975 9.10271,-19.66331 20.33148,-19.66331c11.22876,0 20.33148,8.80356 20.33148,19.66331z" fill="url(#color-2)" stroke="#dadc00" stroke-width="2.28521" stroke-linecap="butt"/><path d="M235.55613,155.46341c0,2.84395 -3.3244,0.1661 -6.81053,0.1661c-3.48612,0 -5.81386,2.67783 -5.81386,-0.1661c0,-2.84395 2.82606,-5.14942 6.3122,-5.14942c3.48612,0 6.3122,2.30547 6.3122,5.14942z" data-paper-data="{&quot;origPos&quot;:null}" fill="#ffffff" stroke="#e7e7e7" stroke-width="1" stroke-linecap="butt"/><path d="M236.5528,154.71591c0,1.42197 -1.15274,2.57471 -2.57471,2.57471c-1.42197,0 -2.57471,-1.15274 -2.57471,-2.57471c0,-1.42197 1.15274,-2.57471 2.57471,-2.57471c1.42197,0 2.57471,1.15274 2.57471,2.57471z" data-paper-data="{&quot;origPos&quot;:null}" fill="#000000" stroke="none" stroke-width="0" stroke-linecap="butt"/><path d="M253.11948,156.41794c0,2.84395 -3.32439,0.16612 -6.81053,0.16612c-3.48612,0 -5.81386,2.67784 -5.81386,-0.16612c0,-2.84395 2.82606,-5.14942 6.3122,-5.14942c3.48612,0 6.31219,2.30547 6.31219,5.14942z" data-paper-data="{&quot;origPos&quot;:null}" fill="#ffffff" stroke="#e7e7e7" stroke-width="1" stroke-linecap="butt"/><path d="M254.49795,156.24318c0,1.42197 -1.15274,2.57471 -2.57472,2.57471c-1.42197,0 -2.57471,-1.15274 -2.57471,-2.57471c0,-1.42197 1.15274,-2.57472 2.57471,-2.57472c1.42197,0 2.57472,1.15274 2.57472,2.57472z" data-paper-data="{&quot;origPos&quot;:null}" fill="#000000" stroke="none" stroke-width="0" stroke-linecap="butt"/><path d="M225.59719,162.47581c0.03409,-1.02257 1.74603,-0.68937 1.74603,-0.68937l0.36271,0.36271c1.32577,1.40172 1.80044,3.45402 3.13767,4.78896c1.71609,1.71316 3.50992,2.12179 5.65442,3.00095c3.93637,1.83028 7.32271,-0.4409 9.38374,-3.66955c0.83579,-1.30925 1.47747,-1.56207 1.47747,-3.0342c0,0 0,-1.02313 1.02313,-1.02313c1.02313,0 1.02313,1.02313 1.02313,1.02313c0,1.72985 -0.89947,2.71702 -1.79737,4.13279c-2.69962,4.25664 -6.90815,6.34887 -11.88629,4.4643c-2.19765,-0.90095 -4.30369,-1.47746 -6.07171,-3.23213c-1.45012,-1.43917 -1.87967,-3.67359 -3.39111,-5.00421l-0.36271,-0.36271c0,0 -0.33318,0.26501 -0.2991,-0.75755z" data-paper-data="{&quot;origPos&quot;:null,&quot;index&quot;:null}" fill="#dadc00" stroke="none" stroke-width="0.5" stroke-linecap="butt"/></g></g></g></svg>