<svg version="1.1" xmlns="http://www.w3.org/2000/svg" xmlns:xlink="http://www.w3.org/1999/xlink" width="54.09989" height="57.7799"><defs><linearGradient x1="238.83673" y1="158.36812" x2="238.83673" y2="200.33292" gradientUnits="userSpaceOnUse" id="color-1"><stop offset="0" stop-color="#feffb0"/><stop offset="1" stop-color="#dae600"/></linearGradient></defs><g transform="translate(-206.8618,-143.69654)"><g data-paper-data="{&quot;isPaintingLayer&quot;:true}" fill="none" fill-rule="nonzero" stroke="none" stroke-width="none" stroke-linecap="butt" stroke-linejoin="miter" stroke-miterlimit="10" stroke-dasharray="" stroke-dashoffset="0" font-family="none" font-weight="none" font-size="none" text-anchor="none" style="mix-blend-mode: normal"><path d="M206.8618,144.44654c0,-0.41422 0.33578,-0.75 0.75,-0.75c0.41422,0 0.75,0.33578 0.75,0.75c0,0.41422 -0.33578,0.75 -0.75,0.75c-0.41422,0 -0.75,-0.33578 -0.75,-0.75z" fill="#c9c9c9" stroke="none" stroke-width="0.5"/><path d="M217.85429,158.36812h41.9648v41.9648h-41.9648z" data-paper-data="{&quot;origPos&quot;:null}" id="ID0.6338139399886131" fill="url(#color-1)" stroke="#dadc00" stroke-width="2.28521"/><path d="M223.60155,182.3579v-15.68628h13.33334v15.68628z" data-paper-data="{&quot;origPos&quot;:null}" fill="#dadc00" stroke="none" stroke-width="0"/><path d="M255.09471,188.82028c0.05904,0.79699 -0.15557,1.35808 -0.47491,1.75265c-0.33597,1.34153 -0.67202,2.6373 -1.22039,3.91683c-2.97077,5.21613 -8.84936,7.18448 -14.61996,6.97116c-2.22064,-0.08209 -5.02126,0.16315 -6.99603,-0.99143c-2.88562,-1.68712 -5.49378,-5.24091 -7.94964,-7.69676c0,0 -1.76777,-1.76777 0,-3.53553c1.76777,-1.76777 3.53553,0 3.53553,0c1.38933,1.38933 3.25178,2.68566 4.49936,4.18055c0.76128,0.91218 1.0381,2.19944 1.90348,3.01354c0.13544,0.12741 -0.20486,-0.54821 -0.01914,-0.55752c1.36484,-0.06841 3.85158,0.54129 5.32005,0.59579c3.26616,0.12121 5.55934,-0.41382 8.28814,-2.30187c0.46295,-0.32031 1.86907,-1.14852 1.44248,-1.64752c0.49757,-1.16099 0.73276,-2.22923 1.03917,-3.45487l2.57401,-2.5535c0,0 2.49317,-0.18468 2.67785,2.30849z" fill="#dadc00" stroke="none" stroke-width="0.5"/><path d="M241.60155,182.69123v-15.68628h13.33334v15.68628z" data-paper-data="{&quot;origPos&quot;:null}" fill="#dadc00" stroke="none" stroke-width="0"/></g></g></svg>