<svg version="1.1" xmlns="http://www.w3.org/2000/svg" xmlns:xlink="http://www.w3.org/1999/xlink" width="20.53521" height="19.93544" viewBox="0,0,20.53521,19.93544"><defs><linearGradient x1="245.51163" y1="179.07116" x2="231.10398" y2="179.05616" gradientUnits="userSpaceOnUse" id="color-1"><stop offset="0" stop-color="#e0e0e0"/><stop offset="1" stop-color="#b7b7b7"/></linearGradient><linearGradient x1="230.70362" y1="179.6135" x2="248.95362" y2="179.6135" gradientUnits="userSpaceOnUse" id="color-2"><stop offset="0" stop-color="#dae600"/><stop offset="1" stop-color="#feffb0"/></linearGradient></defs><g transform="translate(-229.56101,-169.64578)"><g data-paper-data="{&quot;isPaintingLayer&quot;:true}" fill="none" fill-rule="nonzero" stroke="none" stroke-width="none" stroke-linecap="none" stroke-linejoin="miter" stroke-miterlimit="10" stroke-dasharray="" stroke-dashoffset="0" font-family="none" font-weight="none" font-size="none" text-anchor="none" style="mix-blend-mode: normal"><g data-paper-data="{&quot;origPos&quot;:null}"><path d="M245.52846,175.85961l-0.09593,1.92785l3.35178,0.48802l0.03271,1.84726l-3.35071,0.10265l0.0285,2.05734l-2.71803,-0.00283l-0.53356,1.2041l-1.23209,-0.2008l-0.68691,-1.00584l-9.23706,-0.00962l0.03365,-6.4231l4.69114,0.00488l0.53951,-1.00314l2.17061,0.02919l0.87021,0.97767z" data-paper-data="{&quot;origPos&quot;:null,&quot;origRot&quot;:0}" id="ID0.6338139399886131" fill="url(#color-1)" stroke="#9e9e9e" stroke-width="1" stroke-linecap="butt"/><path d="M240.07911,179.87062l-1.66759,-0.65008v-1.18196l1.61855,-0.2364" fill="none" stroke="#9e9e9e" stroke-width="1" stroke-linecap="round"/><path d="M233.31064,177.2703h1.17713" fill="none" stroke="#9e9e9e" stroke-width="1" stroke-linecap="round"/><path d="M233.31064,178.74775v-1.12286" fill="none" stroke="#9e9e9e" stroke-width="1" stroke-linecap="round"/><path d="M233.55587,178.98415h1.12808" fill="none" stroke="#9e9e9e" stroke-width="1" stroke-linecap="round"/><path d="M248.95362,179.6135c0,4.87398 -4.0854,8.82512 -9.125,8.82512c-5.0396,0 -9.125,-3.95114 -9.125,-8.82512c0,-4.87398 4.0854,-8.82512 9.125,-8.82512c5.0396,0 9.125,3.95114 9.125,8.82512z" fill="url(#color-2)" stroke="#dadc00" stroke-width="2.28521" stroke-linecap="butt"/><path d="M238.6108,177.36583c0,1.2764 -1.49203,0.07455 -3.05664,0.07455c-1.56461,0 -2.60933,1.20184 -2.60933,-0.07455c0,-1.2764 1.26837,-2.31112 2.83299,-2.31112c1.56461,0 2.83299,1.03472 2.83299,2.31112z" data-paper-data="{&quot;origPos&quot;:null}" fill="#ffffff" stroke="#e7e7e7" stroke-width="1" stroke-linecap="butt"/><path d="M239.05811,177.03034c0,0.6382 -0.51736,1.15556 -1.15556,1.15556c-0.6382,0 -1.15556,-0.51736 -1.15556,-1.15556c0,-0.6382 0.51736,-1.15556 1.15556,-1.15556c0.6382,0 1.15556,0.51736 1.15556,1.15556z" data-paper-data="{&quot;origPos&quot;:null}" fill="#000000" stroke="none" stroke-width="0" stroke-linecap="butt"/><path d="M246.49343,177.79423c0,1.2764 -1.49202,0.07456 -3.05664,0.07456c-1.56461,0 -2.60933,1.20185 -2.60933,-0.07456c0,-1.2764 1.26837,-2.31112 2.83299,-2.31112c1.56461,0 2.83298,1.03472 2.83298,2.31112z" data-paper-data="{&quot;origPos&quot;:null}" fill="#ffffff" stroke="#e7e7e7" stroke-width="1" stroke-linecap="butt"/><path d="M247.1121,177.71579c0,0.6382 -0.51736,1.15556 -1.15557,1.15556c-0.6382,0 -1.15556,-0.51736 -1.15556,-1.15556c0,-0.6382 0.51736,-1.15557 1.15556,-1.15557c0.6382,0 1.15557,0.51736 1.15557,1.15557z" data-paper-data="{&quot;origPos&quot;:null}" fill="#000000" stroke="none" stroke-width="0" stroke-linecap="butt"/><path d="M234.14111,180.51307c0.0153,-0.45894 0.78364,-0.3094 0.78364,-0.3094l0.16279,0.16279c0.59502,0.62911 0.80806,1.5502 1.40822,2.14934c0.7702,0.76889 1.57529,0.95228 2.53777,1.34686c1.76669,0.82145 3.28651,-0.19788 4.21153,-1.64693c0.37511,-0.58761 0.66311,-0.70107 0.66311,-1.36178c0,0 0,-0.45919 0.45919,-0.45919c0.45919,0 0.45919,0.45919 0.45919,0.45919c0,0.77638 -0.40369,1.21943 -0.80668,1.85484c-1.21162,1.91043 -3.10046,2.84945 -5.3347,2.00363c-0.98633,-0.40436 -1.93155,-0.6631 -2.72505,-1.45062c-0.65083,-0.64592 -0.84362,-1.64875 -1.52197,-2.24595l-0.16279,-0.16279c0,0 -0.14954,0.11894 -0.13424,-0.33999z" data-paper-data="{&quot;origPos&quot;:null,&quot;index&quot;:null}" fill="#dadc00" stroke="none" stroke-width="0.5" stroke-linecap="butt"/></g></g></g></svg>