<svg version="1.1" xmlns="http://www.w3.org/2000/svg" xmlns:xlink="http://www.w3.org/1999/xlink" width="359.11524" height="206.73036" viewBox="0,0,359.11524,206.73036"><g transform="translate(-14.37007,-97.86299)"><g data-paper-data="{&quot;isPaintingLayer&quot;:true}" fill="none" fill-rule="nonzero" stroke="none" stroke-width="0.5" stroke-linecap="butt" stroke-linejoin="miter" stroke-miterlimit="10" stroke-dasharray="" stroke-dashoffset="0" font-family="none" font-weight="none" font-size="none" text-anchor="none" style="mix-blend-mode: normal"><path d="M38.17058,123.65292c-0.28585,0.40877 -0.59983,0.64425 -0.59983,0.64425c-3.48042,2.61032 -7.93925,4.59396 -10.83281,7.86292c-6.92958,7.8286 -5.21794,18.34012 -6.54586,27.9655c-0.96224,6.73567 -1.06641,13.89424 0.4038,20.51019c0.30512,1.37302 0.25009,2.87983 0.91535,4.11907c0.21376,0.39819 0.76508,0.49392 1.08465,0.81349c1.50131,1.50131 2.68836,3.80683 4.37302,5.10186c0.6274,0.48229 4.17612,0.12698 5.10186,0.12698c2.19165,0 4.28733,0.21751 6.39366,-0.42535c1.68026,-0.42006 4.13939,-1.14426 5.4883,-2.31072c0.98105,-0.84835 1.05549,-2.5202 2.11803,-3.26393c2.65951,-1.86155 6.30456,-1.6484 8.88197,-3.73607c0.61856,-0.50102 0.47505,-1.58782 1.03791,-2.15068c3.65944,-3.65945 8.4194,-6.15327 9.84405,-11.73129c0.36208,-1.41768 -0.09728,-3.48951 0.36436,-5.17253c2.9703,-8.91091 1.84625,-20.02946 -2.30015,-28.42734c-1.80539,-3.65652 -4.2517,-8.26754 -8.82814,-7.78209c-3.53968,0 -6.42684,-1.73871 -9.79057,-2.12829c-2.25771,-0.26148 -4.70074,-0.14002 -7.10961,-0.01596zM30.32966,123.11801c-0.53146,-0.45455 -0.98784,-1.21288 -0.68426,-2.42718c0.60634,-2.42535 3.0317,-1.81902 3.0317,-1.81902l1.39366,-0.07464c4.19125,0 8.6383,-0.41629 12.79057,0.12829c2.85218,0.37407 5.23061,1.87171 8.20943,1.87171c6.83562,0.31426 10.45049,4.72969 13.31491,10.57553c4.67994,9.55103 5.9374,22.07326 2.5568,32.21505c-0.88816,1.69511 -0.17694,3.97006 -0.63564,5.82746c-0.9664,3.91324 -4.74227,8.46831 -7.84932,10.96209c-0.68915,0.55312 -1.68178,0.68178 -2.30662,1.30663c-1.14482,1.14482 -1.72565,2.80411 -2.96209,3.84932c-1.27659,1.07916 -2.94622,1.60314 -4.51169,2.18929c-0.64355,0.24096 -1.31309,0.48033 -2,0.5c-0.24679,0.00707 -0.4086,-0.57318 -0.60634,-0.42535c-1.6349,1.22221 -2.32866,3.41172 -3.88197,4.73607c-1.6568,1.41259 -4.44727,2.17318 -6.51169,2.68929c-3.82326,0.84295 -8.48171,1.01968 -12.39691,0.44636c-3.21464,-0.47073 -4.90852,-2.67917 -6.85361,-4.94845c-1.12329,-1.31051 -3.06027,-3.4682 -3.79629,-4.88093c-0.86852,-1.66707 -1.07255,-4.73414 -1.45767,-6.55953c-1.30619,-6.19115 -0.82336,-13.60991 0.06972,-19.86147c1.09573,-7.35964 0.30345,-15.02355 2.59235,-22.23936c0.99481,-3.13618 3.41074,-6.32444 5.56888,-8.74489c1.89584,-2.12626 4.4194,-3.73845 6.92609,-5.31623z" fill="#ff0000"/><path d="M118.25544,175.79034c-2.49317,0.18468 -2.55639,-3.28374 -2.55639,-3.28374l0.5,-1.5c0.60593,-1.15645 0.37526,-2.41129 0.37174,-3.69758c-0.01432,-5.23346 -1.50712,-9.0627 -3.10663,-13.9497c-0.17381,-0.53104 -1.52495,-4.36366 -1.35456,-5.12041c0.09533,-0.42341 1.29829,-0.15524 1.17059,-0.57003c-0.15507,-0.50372 -1.0692,-0.19637 -1.5,-0.5c-0.13801,-0.09727 0.24998,-0.5 0.08114,-0.5c-1.25231,0 -2.95178,1.07372 -3.90382,1.70841c-1.50429,1.00287 -3.15362,1.97892 -4.70424,3.05364c-1.68355,3.1311 -3.42943,6.23875 -4.92383,9.46382c-2.50499,5.406 -5.4931,10.11591 -8.72554,15.10967c-1.87992,2.90427 -3.50371,6.04942 -5.66704,8.75199l0.0666,0.06423l-2.13046,2.20916c-0.45486,0.47302 -1.09417,0.76737 -1.80222,0.76737c-1.38071,0 -2.5,-1.11929 -2.5,-2.5c0,-0.22871 0.03071,-0.45026 0.08824,-0.66073l0.59274,-2.37097c-0.32191,-0.76865 0.40422,-1.61691 0.60634,-2.42535c0.76703,-3.06811 2.0356,-5.4003 3.70402,-8.11148c4.18576,-6.80186 7.99563,-15.21372 13.67996,-20.89755c0.96943,-0.96934 2.03051,-1.84988 3.13789,-2.67816c0.82243,-1.54898 1.61534,-3.10868 2.33645,-4.6966c2.67718,-5.89525 3.88895,-12.39371 6.18375,-18.3995c0.92072,-2.40966 2.72607,-4.77063 4,-7c0,0 1.24035,-2.17061 3.41096,-0.93027c2.17061,1.24035 0.93027,3.41096 0.93027,3.41096c-1.26776,2.21859 -3.10278,4.59345 -4,7c-1.86449,5.00097 -2.95897,10.39586 -4.90874,15.43312c1.85173,-0.8731 3.59501,-1.07641 6.0287,-0.54517c0.51492,0.1124 1.18229,0.07948 1.5,0.5c2.09726,2.77604 2.3063,5.75442 3.34926,8.8618c2.28616,6.81136 4.71825,13.55876 2.73188,20.80049l-0.5,1.5c0,0 0.30614,1.51792 -2.18703,1.7026z" fill="#ff0000"/><path d="M275.48634,136.65301c0.64416,2.41558 -0.04387,1.43473 -0.04387,1.43473c-0.33333,1 -1.16667,3.5 -1.5,4.5c-0.60539,1.81617 -1.10774,3.83075 -2.10395,5.47719c-0.24403,0.40332 -0.56558,0.81696 -1,1c-0.16595,0.06993 -0.21327,-0.62195 -0.28707,-0.45768c-1.10641,2.46253 -0.49086,6.1655 -1.22503,8.76785c-1.22978,4.35906 -4.10822,8.75635 -5.9578,12.90687c-1.10237,2.47374 -1.94372,5.17298 -3.29787,7.5152c-0.4171,0.72144 -0.70943,1.73648 -1.5,2l-1.48255,1.97672c-0.45492,0.62044 -1.18914,1.02328 -2.01746,1.02328c-1.38071,0 -2.5,-1.11929 -2.5,-2.5v-3h0.03173c0.09232,-2.45205 0.33633,-5.05267 0.04292,-7.39366c-0.19419,-1.5493 -0.86725,-3.01179 -1.07421,-4.55944c-0.60346,-4.51281 -0.19646,-9.29525 -0.57657,-13.85656c-0.19322,-2.31861 -0.94427,-5.39316 -0.42387,-7.69034c0.07627,-0.33665 0.8445,-0.40582 0.73224,-0.73224c-0.07323,-0.21291 -0.27165,-0.37339 -0.50183,-0.5152c-1.6108,2.19964 -3.77863,3.52108 -5.4944,5.86559c-1.78083,2.43341 -2.64662,5.71359 -4.18392,8.30977c-1.47529,2.49147 -3.5685,4.69642 -5.48441,6.95896c-0.30844,1.45476 -0.51692,2.95758 -1.14232,4.21945c-0.88419,1.78403 -2.68587,3.04496 -3.42535,4.89366c-0.08754,0.21884 0.45378,0.26888 0.5,0.5c0.13074,0.65372 0.13759,1.34769 0,2c-0.06442,0.30543 -0.14862,0.60541 -0.24451,0.9022l0.0657,0.02628l-1.83532,4.58831c-0.35452,0.94948 -1.26972,1.6256 -2.34282,1.6256c-1.35186,0 -2.4531,-1.07299 -2.49854,-2.41378l-0.07106,-1.8093c-0.45128,-0.40676 -0.17123,-1.2219 -0.07153,-1.82119c0.21089,-1.26764 1.24762,-4.25244 1.7075,-5.63209c1.05752,-3.17257 2.76016,-5.8212 4.63276,-8.37125c0.2395,-1.11054 0.49522,-2.21471 0.92174,-3.2128c1.02853,-2.40679 2.72185,-4.39981 3.86436,-6.67253c1.49626,-2.97642 1.20565,-5.79354 3.58114,-8.58114c0.68369,-0.8023 2,-0.66666 3,-1c0,0 0.77491,-0.2583 1.58649,-0.03668c0.65908,-0.62837 1.3211,-1.24416 1.93632,-1.85938c0.57931,-0.57931 1.55581,-1.21927 1.39606,-2.02281c1.08976,-3.26929 6.52486,-2.35718 7.63947,0.52281c0.52096,1.34608 0.57698,2.83276 0.73224,4.26776c0.76418,7.06304 0.05887,14.43685 0.99956,21.45309c0.15782,1.17711 0.77877,2.26205 0.92579,3.44057c0.09942,0.79696 0.15493,1.60829 0.182,2.42734c0.35172,-0.95412 0.69554,-1.90965 1.09479,-2.8058c1.87084,-4.19933 4.81713,-8.67899 6.04219,-13.09313c0.5956,-2.14604 -0.20587,-5.18215 0.77497,-7.23215c0.63229,-1.32151 1.96998,-2.19507 2.71293,-3.45768c0.32,-0.54381 0.64139,-2.7588 0.89605,-3.52281c0.33333,-1 0.66667,-2 1,-3l0.5,-1.5c0,0 4.14314,-2.26917 4.78729,0.14641z" fill="#ff0000"/><path d="M305.26305,163.53752c-0.31088,0.6282 -0.93586,1.25965 -2.1923,1.25965c-1.25772,0 -1.8827,-0.63274 -2.19326,-1.26158c-0.25097,0.14925 -0.50255,0.29798 -0.75476,0.44586l-0.05321,0.03193l-0.00033,-0.00055c-2.22861,1.30527 -4.50717,2.54412 -6.86155,3.51087c-2.36953,0.97297 -5.7081,2.2188 -6.26519,5.06404c-0.32702,1.67022 -1.76773,4.42873 -1.40084,6.10262c0.07441,0.33949 0.77333,-0.16119 1.04089,0.06063c0.88261,0.73173 1.56493,2.02919 2.70774,2.12082c5.83977,2.38013 8.68896,-1.75004 13.78172,-4.29086c1.30097,-0.64907 3.37578,-0.96549 4.23101,-2.05155c1.09459,-1.39002 3.50982,-1.92935 4.38101,-3.31236c0.13378,-0.21238 -0.53477,-0.27525 -0.53861,-0.52622c-0.04402,-2.88011 2.56854,-5.2118 1.05365,-8.10309c-0.16667,-0.5 -0.22469,-1.94942 -0.5,-1.5c-0.3046,0.49724 0.7739,1.2872 0.37171,1.70943c-0.45981,0.48272 -1.33333,0 -2,0c-1.95644,0 -3.08668,0.18977 -4.8077,0.74035zM305.38117,158.32338c4.13491,-1.00921 10.16939,-1.49251 11.5613,2.68322c1.21807,4.44072 0.15668,10.48136 -2.48496,14.37069c-0.2446,0.36014 -2.168,1.32846 -2.61899,1.68764c-2.75963,2.19788 -5.33174,3.28847 -8.3378,5.08973c-5.53891,3.31898 -9.55952,6.01209 -16.0976,3.34734c-1.82194,-0.96004 -3.85563,-2.01388 -4.86387,-3.80959c-0.72015,-1.28261 -1.58559,-2.54579 -1.90052,-3.98264c-0.37896,-1.72899 0.62833,-3.48667 1.06032,-5.20318c2.17222,-8.63123 13.23908,-11.25865 20.05165,-15.3329c0.26481,-0.16496 0.56271,-0.28178 0.88147,-0.33819c0.729,-0.15922 1.78089,-0.10635 2.54618,1.11643c0.02745,0.04292 0.05363,0.08674 0.07848,0.1314c0.04627,0.08128 0.08762,0.1613 0.12435,0.24003z" fill="#ff0000"/><path d="M234.93593,293.91367c-2.38308,0.75561 -3.13869,-1.62747 -3.13869,-1.62747l-0.91535,0.36868c-2.33294,-1.55529 -4.19126,-4.15193 -6.41792,-5.57698c-5.95815,-3.81317 -12.84491,-5.04198 -18.54712,-9.31864c-0.72648,-1.73384 -1.81303,-3.35769 -2.17944,-5.20152c-0.10443,-0.52549 1.03633,-0.47254 1.30773,-0.93448c0.62163,-1.05806 0.70027,-2.36527 1.24742,-3.4637c0.38784,-0.7786 1.22664,-1.28637 1.56645,-2.0871c0.68226,-1.60769 0.80881,-3.43471 1.61343,-4.98478c0.24683,-0.47552 1.03633,-0.47254 1.30773,-0.93448c1.41053,-2.40082 1.05196,-4.95586 3.16535,-7.18053c1.5154,-1.59518 4.94157,-2.3109 7.01833,-3.00315c0,0 2.37171,-0.79057 3.16228,1.58114c0.79057,2.37171 -1.58114,3.16228 -1.58114,3.16228c-2.02335,0.67445 -4.69962,1.34906 -6.3634,2.73187c-0.19889,0.1653 0.72274,-0.26486 0.77576,-0.01174c0.20654,0.98614 -0.63723,1.91168 -0.95584,2.86751c-0.60974,1.82921 -2.27673,2.74702 -2.99354,4.32263c-0.36973,0.81271 0.05527,1.84203 -0.29825,2.66192c-0.56615,1.31302 -1.61452,2.37047 -2.25691,3.64793c-0.0399,0.07935 -0.07406,0.16107 -0.10385,0.24459c0.45638,-0.12344 0.82179,-0.11023 0.82179,-0.11023l1.70027,0.12666c0.5,0.16667 1,0.33333 1.5,0.5c2.84172,0.94724 5.85307,2.01578 8.91886,1.5c5.15268,-0.86687 8.9849,-4.52719 13.79057,-6.12829c3.78778,-1.26196 8.78831,0.91669 12.5666,1.16029c2.92118,0.29302 4.68232,1.1998 7.40153,1.983c3.32305,0.95712 6.59064,0.76982 9.96518,1.23166c3.13361,0.42887 6.04893,2.13533 9.06669,2.62505c5.63128,0.91383 12.28509,0 18,0c0,0 2.5,0 2.5,2.5c0,2.5 -2.5,2.5 -2.5,2.5c-5.71491,0 -12.36872,0.91383 -18,0c-3.4589,-0.5613 -6.66178,-2.26839 -10.17251,-2.74887c-3.30871,-0.45283 -6.55121,-0.25842 -9.83184,-1.20332c-2.41993,-0.697 -4.20907,-1.90475 -6.75075,-1.89788c-3.387,-0.21837 -8.81174,-2.50422 -12.2449,-1.14993c-1.86586,0.73604 -3.78955,2.84248 -5.83571,3.71234c-5.75483,2.44649 -10.90666,2.77561 -16.64707,1.2084c4.04244,1.80505 8.31025,3.08631 12.0939,5.61501c2.53462,1.69394 4.38936,4.17678 6.96381,5.89308l2.908,2.28035c0,0 0.75561,2.38308 -1.62747,3.13869z" fill="#ff0000"/><path d="M82.22526,304.47702c-2.4097,-0.66584 -1.74386,-3.07554 -1.74386,-3.07554l1.03799,-0.12473c0.5,-1.5 1,-3 1.5,-4.5c0.72496,-1.38364 0.24584,-2.96663 0.5,-4.5c0.29149,-1.75858 1.63707,-3.49915 1.87171,-5.20943c0.20872,-1.5214 -0.11546,-3.0825 0.07464,-4.60634c0.275,-2.20443 1.57175,-4.29182 1.92536,-6.39366c0.7977,-4.74154 0.0869,-9.6664 1.62829,-14.29057c1.14352,-3.37089 1.85987,-6.76434 2.4584,-10.17968c-0.66512,-4.33806 -0.08669,-9.15109 -0.08669,-13.52975c0,-2.23601 -0.08293,-4.78877 1.12829,-6.79057c0.68252,-1.12801 1.93531,-1.8409 2.60394,-2.9772c0.206,-0.35009 0.50818,-1.2859 0.80183,-2.2152l-0.27013,-0.13507l1.97578,-3.95156c0.40086,-0.84561 1.26228,-1.43041 2.26029,-1.43041c1.38071,0 2.5,1.11929 2.5,2.5v0.96471c0.19735,-0.12959 0.43171,-0.24384 0.70943,-0.33642c2.37171,-0.79057 3.16228,1.58114 3.16228,1.58114c0.48403,1.4521 0.77158,3.42875 2.39606,4.0228c0.24408,0.08926 -0.49118,-0.59947 -0.26777,-0.73223c0.85967,-0.51085 2,0 3,0c2.16667,0 4.33333,0 6.5,0c2.13476,0 5.99956,0.73153 8,0c0.25455,-0.09309 -0.8166,-0.00116 -0.76777,-0.26777c0.16988,-0.92738 1.33333,-1.33333 2,-2c1.48244,-1.48244 3.28117,-1.60595 4.9772,-2.60394c0.49719,-0.29256 0.4806,-1.19907 1.0228,-1.39606c3.59568,-1.30639 12.07809,-1.70973 15.55834,0.39606c2.57592,1.55861 3.17421,4.21109 5.28956,5.98496c0.13502,0.11323 0.03423,-0.48651 0.21044,-0.48496c0.68545,0.00603 4.02341,1.02341 4.5,1.5c0.87637,0.87637 1.38743,2.05409 2.08114,3.08114c1.87968,5.63904 0.44007,12.49335 -0.5,18.08114c-0.12239,0.72749 0.35547,1.50756 0.12829,2.20943c-0.51426,1.58882 -1.66981,2.8947 -2.41987,4.38675c-0.21515,0.42798 -0.30105,2.29711 -0.70842,2.40382c-1.65726,0.4341 -3.44959,0.25872 -5.13948,-0.0228c-1.33279,-0.22204 -1.77751,-2.80197 -3.16946,-2.91801c0.0061,0.01202 0.01189,0.02435 0.01735,0.037c0.23836,0.55163 -0.76514,0.94687 -1,1.5c-0.42803,1.00805 -0.15068,2.24733 -0.65477,3.21959c-0.63367,1.22218 -1.95941,1.97491 -2.65759,3.16143c-0.34844,0.59216 0.08977,1.53697 -0.39606,2.0228c-0.88532,0.88532 -3.02486,2.32318 -4.58114,2.58114c-1.24723,0.20673 -2.84141,0.96341 -3.79057,0.12829c-3.95687,-3.48146 -2.99196,-7.66518 -5.37171,-11.70943c-0.11936,-0.20285 -2.05349,-1.68023 -2.39606,-2.0228c-2.00124,-2.00124 -5.47644,-1.26777 -8.23223,-1.26777c-1,0 -2.05899,-0.33839 -3,0c-0.70832,0.25471 -0.98694,1.16259 -1.61325,1.58013c-1.7281,1.15206 -3.12039,2.08197 -5.09618,2.79158c-2.794,1.00348 -5.47852,0.1552 -8.29057,0.62829c-1.63189,0.27454 -2.66349,0.89714 -4.5,1c-0.976,0 -1.81279,-0.39592 -2.52509,-1.0375c-0.32288,1.2814 -0.68579,2.55828 -1.10321,3.82807c-0.59333,1.77998 -0.07837,1.93967 -0.37171,3.70943c-0.21557,1.30056 -0.90958,2.49053 -1.12829,3.79057c-0.27088,1.61009 0.40436,3.54388 0.12829,5.20943c-0.42793,2.58174 -1.74707,4.99279 -2.07464,7.60634c-0.14072,1.12271 0.23859,2.27411 0.07464,3.39366c-0.34474,2.35423 -1.7379,4.4701 -2.12829,6.79057c-0.26951,1.60196 -0.01428,2.72922 -0.5,4.5c-0.5,1.5 -1,3 -1.5,4.5l-0.96201,-0.12473c0,0 -0.66584,2.4097 -3.07554,1.74386zM136.57357,264.58633c-0.24053,-0.04207 -0.47851,-0.07001 -0.68248,-0.01902c-0.30402,0.07601 0.16621,0.04535 0.68248,0.01902zM96.62956,255.59634c-0.25941,-0.04727 -0.51869,-0.08397 -0.73847,-0.02903c-0.31506,0.07876 0.20101,0.05521 0.73847,0.02903z" data-paper-data="{&quot;origPos&quot;:null}" fill="#00ff0b"/><path d="M364.76813,142.026c-2.47365,-0.362 -2.11165,-2.83565 -2.11165,-2.83565l0.20718,-1.65912c0.52694,-1.31736 1.33704,-2.53316 1.68573,-3.90849c0.769,-3.03315 0.22524,-6.47103 0.80371,-9.55623c0.87163,-4.64873 2.60858,-9.14172 3.01206,-13.92434c0.27035,-3.20453 0,-6.56111 0,-9.77919c0,0 0,-2.5 2.5,-2.5c2.5,0 2.5,2.5 2.5,2.5c0,3.21808 0.27035,6.57466 0,9.77919c-0.44655,5.29308 -2.25988,10.22095 -3.22484,15.36743c-0.51434,2.74318 0.06746,5.78289 -0.60609,8.50229c-0.24999,1.0093 -1.56927,4.22902 -2.02818,5.37628l0.09774,0.52617c0,0 -0.362,2.47365 -2.83565,2.11165z" fill="#ff0000"/><path d="M355.93926,187.34425c0,-1.38071 1.11929,-2.5 2.5,-2.5c1.38071,0 2.5,1.11929 2.5,2.5c0,1.38071 -1.11929,2.5 -2.5,2.5c-1.38071,0 -2.5,-1.11929 -2.5,-2.5z" fill="#ff0000"/></g></g></svg>