<svg version="1.1" xmlns="http://www.w3.org/2000/svg" xmlns:xlink="http://www.w3.org/1999/xlink" width="74.29859" height="21.33122" viewBox="0,0,74.29859,21.33122"><g transform="translate(-240.00385,-167.93814)"><g data-paper-data="{&quot;isPaintingLayer&quot;:true}" fill="none" fill-rule="nonzero" stroke="none" stroke-width="none" stroke-linecap="butt" stroke-linejoin="miter" stroke-miterlimit="10" stroke-dasharray="" stroke-dashoffset="0" font-family="none" font-weight="none" font-size="none" text-anchor="none" style="mix-blend-mode: normal"><path d="M242.75385,182.44687v-5.27658h57.41754c0.09922,0.06638 0.20075,0.1314 0.30451,0.19502c0.20092,0.18352 0.41725,0.36 0.64782,0.52873c0.19215,0.43749 0.40058,0.87872 0.63013,1.28764v0.22404c-0.45266,0.54337 -0.63752,1.12428 -0.6247,1.71437c-0.49184,0.32001 -1.81793,0.75547 -2.46839,0.88765c-0.51847,0.12886 -0.94344,0.27003 -1.29259,0.43913z" data-paper-data="{&quot;origPos&quot;:null,&quot;origRot&quot;:0}" fill="#c77f00" stroke="#c77f00" stroke-width="5.5"/><path d="M275.46376,168.1935c2.14373,-0.79919 3.42997,0.53279 3.42997,0.53279l0.34234,0.10451c0.53283,0.66214 1.08447,1.30516 1.66396,1.94246l0.1281,-0.04394c0,0 1.8125,-1.06986 3.53437,0.05631c1.72187,1.12617 -0.09062,2.19603 -0.09062,2.19603l-1.34043,0.36271c-1.16667,0.82845 -2.33333,1.6569 -3.5,2.48534c0,0 -1.64626,1.16901 -3.5277,0.14613c-1.88144,-1.02288 -0.23518,-2.19189 -0.23518,-2.19189c0.41229,-0.29277 0.82458,-0.58553 1.23687,-0.8783c-0.82787,-0.881 -1.60292,-1.76769 -2.3415,-2.6855l-0.15766,0.10451c0,0 -1.28624,-1.33198 0.85749,-2.13116z" data-paper-data="{&quot;origPos&quot;:null}" fill="#0aff00" stroke="none" stroke-width="0.5"/><path d="M301.09356,186.99773c-0.87047,1.45614 -3.21403,0.91529 -3.21403,0.91529l-1.23389,0.00368c-2.6144,-0.5907 -4.99838,-1.39676 -7.57412,-2.03692c0,0 -2.32119,-0.5769 -1.39272,-2.01914c0.92848,-1.44224 3.24967,-0.86535 3.24967,-0.86535c1.73958,0.43234 3.38885,0.94346 5.08139,1.40852c0.03824,0.22488 0.22806,0.49694 0.871,0.62042c0.51558,0.09902 0.87737,0.01699 1.12207,-0.10822c0.1167,0.02745 0.23383,0.05448 0.35142,0.08105l1.26611,0.00368c0,0 2.34356,0.54085 1.4731,1.99699z" data-paper-data="{&quot;origPos&quot;:null}" fill="#0aff00" stroke="none" stroke-width="0.5"/><path d="M307.37,171.96422c1.325,1.31723 -0.795,2.1405 -0.795,2.1405l-1.325,0.39144c-2.1059,0.98135 -4.40177,1.66289 -6.5,2.64068c0,0 -2,0.932 -3.5,-0.31067c-1.5,-1.24267 0.5,-2.17468 0.5,-2.17468c2.10046,-0.97882 4.40735,-1.6655 6.5,-2.64068l1.675,-0.54056c0,0 2.12,-0.82327 3.44499,0.49396z" data-paper-data="{&quot;origPos&quot;:null}" fill="#0aff00" stroke="none" stroke-width="0.5"/><path d="M293.05176,170.79293c1.96011,0.96416 0.40836,2.18205 0.40836,2.18205l-1.12999,0.67414c-1.14115,1.06356 -2.34285,2.06197 -3.62795,3.06007c0,0 -1.56174,1.21295 -3.51391,0.24259c-1.95217,-0.97037 -0.39043,-2.18332 -0.39043,-2.18332c1.19664,-0.92939 2.31046,-1.85321 3.37205,-2.84262l1.37001,-0.8792c0,0 1.55176,-1.21789 3.51187,-0.25373z" data-paper-data="{&quot;origPos&quot;:null}" fill="#0aff00" stroke="none" stroke-width="0.5"/><path d="M286.42407,189.19536c-2.40741,0.41882 -3.08148,-1.07699 -3.08148,-1.07699l-0.2143,-0.23829c-0.37753,-0.70371 -0.70796,-1.39113 -0.99283,-2.08809l-0.09513,0.01075l-0.25938,-0.88639l-1.36107,-0.56379l1.27716,-1.19032c0.23082,-0.36557 0.72781,-0.72964 1.76692,-0.8636c0.05292,-0.00718 0.10647,-0.01333 0.16058,-0.01839c1.42235,-0.14267 2.15502,0.32711 2.51565,0.73264c0.16171,0.16597 0.27482,0.35227 0.32708,0.55127c0.3432,1.16523 0.80119,2.20902 1.40445,3.3335l0.2857,0.38305c0,0 0.67407,1.49581 -1.73334,1.91463z" data-paper-data="{&quot;origPos&quot;:null}" fill="#0aff00" stroke="none" stroke-width="0.5"/><path d="M309.31004,185.80813c-0.95588,1.43531 -3.26592,0.84139 -3.26592,0.84139l-0.94038,-0.42164c-1.8183,-0.98855 -3.04261,-1.173 -5.6025,-1.33205c0,0 -2.48759,-0.15456 -2.23883,-1.70019c0.24876,-1.54563 2.73635,-1.39107 2.73635,-1.39107c0.16457,0.01023 0.32649,0.02093 0.48595,0.03219c-0.17027,-0.11463 -0.32946,-0.25695 -0.47078,-0.43257c-1.11803,-1.38935 1.11803,-2.08402 1.11803,-2.08402c3.39729,-1.05543 5.88557,-2.50353 9.64966,-3.20516l-0.24085,-0.02705c0,0 2.1881,-0.75133 3.39732,0.60822c1.20922,1.35955 -0.97889,2.11088 -0.97889,2.11088l-0.74085,0.28361c-3.42065,0.63761 -5.68306,2.02423 -8.85034,3.0082c0,0 -0.05042,0.01566 -0.1399,0.03758c1.84711,0.29854 3.42747,0.80707 5.16813,1.75341l-0.44038,-0.11097c0,0 2.31004,0.59392 1.35416,2.02923z" data-paper-data="{&quot;origPos&quot;:null}" fill="#0aff00" stroke="none" stroke-width="0.5"/></g></g></svg>