<svg version="1.1" xmlns="http://www.w3.org/2000/svg" xmlns:xlink="http://www.w3.org/1999/xlink" width="55.20771" height="56.00644"><defs><linearGradient x1="239.94451" y1="156.59557" x2="239.94451" y2="198.56037" gradientUnits="userSpaceOnUse" id="color-1"><stop offset="0" stop-color="#e0e0e0"/><stop offset="1" stop-color="#b7b7b7"/></linearGradient></defs><g transform="translate(-206.8618,-143.69654)"><g data-paper-data="{&quot;isPaintingLayer&quot;:true}" fill="none" fill-rule="nonzero" stroke="none" stroke-width="none" stroke-linecap="none" stroke-linejoin="miter" stroke-miterlimit="10" stroke-dasharray="" stroke-dashoffset="0" font-family="none" font-weight="none" font-size="none" text-anchor="none" style="mix-blend-mode: normal"><path d="M206.8618,144.44654c0,-0.41422 0.33578,-0.75 0.75,-0.75c0.41422,0 0.75,0.33578 0.75,0.75c0,0.41422 -0.33578,0.75 -0.75,0.75c-0.41422,0 -0.75,-0.33578 -0.75,-0.75z" fill="#c9c9c9" stroke="none" stroke-width="0.5" stroke-linecap="butt"/><path d="M222.41181,160.64654h21.8" fill="none" stroke="#aeaeae" stroke-width="1" stroke-linecap="round"/><path d="M231.41181,163.64654h25.8" fill="none" stroke="#aeaeae" stroke-width="1" stroke-linecap="round"/><path d="M223.0118,168.84654h24.6" fill="none" stroke="#aeaeae" stroke-width="1" stroke-linecap="round"/><path d="M226.21181,172.04654h30.2" fill="none" stroke="#aeaeae" stroke-width="1" stroke-linecap="round"/><path d="M223.21181,178.84654h22.2" fill="none" stroke="#aeaeae" stroke-width="1" stroke-linecap="round"/><path d="M234.21181,184.04654h20.8" fill="none" stroke="#aeaeae" stroke-width="1" stroke-linecap="round"/><path d="M222.6118,190.44654h22.4" fill="none" stroke="#aeaeae" stroke-width="1" stroke-linecap="round"/><path d="M237.41181,186.84654h17.8" fill="none" stroke="#aeaeae" stroke-width="1" stroke-linecap="round"/><path d="M243.41181,193.64654h11.8" fill="none" stroke="#aeaeae" stroke-width="1" stroke-linecap="round"/><path d="M247.0118,175.64654h10" fill="none" stroke="#aeaeae" stroke-width="1" stroke-linecap="round"/><path d="M218.96212,156.59557h41.9648v41.9648h-41.9648z" data-paper-data="{&quot;origPos&quot;:null}" id="ID0.6338139399886131" fill="url(#color-1)" stroke="#9e9e9e" stroke-width="2.28521" stroke-linecap="butt"/><path d="M225.41181,175.44654v-11.8h11.6v11.8z" fill="#9e9e9e" stroke="#9e9e9e" stroke-width="2.28521" stroke-linecap="butt"/><path d="M244.81181,175.64654v-11.8h11.6v11.8z" data-paper-data="{&quot;origPos&quot;:null}" fill="#9e9e9e" stroke="#9e9e9e" stroke-width="2.28521" stroke-linecap="butt"/><path d="M249.81181,190.24654v-3.6h3.4v3.6z" fill="#9e9e9e" stroke="#9e9e9e" stroke-width="0.5" stroke-linecap="butt"/></g></g></svg>