<svg xmlns="http://www.w3.org/2000/svg" xmlns:xlink="http://www.w3.org/1999/xlink" version="1.1" width="196.64999389648438" height="194.5" viewBox="0.3500000238418579 0.5 196.64999389648438 194.5">
  <!-- Exported by Scratch - http://scratch.mit.edu/ -->
  <g id="ID0.10849537467584014">
    <path id="ID0.2203458435833454" fill="#FFFF99" stroke="#E4E489" stroke-width="3" d="M 40.5 2 L 77.5 2 L 77.5 39 L 40.5 39 L 40.5 2 Z "/>
    <path id="ID0.2203458435833454" fill="#FFFF99" stroke="#E4E489" stroke-width="3" d="M 79 2 L 116 2 L 116 39 L 79 39 L 79 2 Z "/>
    <path id="ID0.2203458435833454" fill="#FFFF99" stroke="#E4E489" stroke-width="3" d="M 118.25 2 L 155.25 2 L 155.25 39 L 118.25 39 L 118.25 2 Z "/>
    <path id="ID0.2203458435833454" fill="#FFFF99" stroke="#E4E489" stroke-width="3" d="M 38.85 155.85 L 38.85 118.85 L 1.85 118.85 L 1.85 155.85 L 38.85 155.85 Z "/>
    <path id="ID0.2203458435833454" fill="#FFFF99" stroke="#E4E489" stroke-width="3" d="M 38.85 117.35 L 38.85 80.35 L 1.85 80.35 L 1.85 117.35 L 38.85 117.35 Z "/>
    <path id="ID0.2203458435833454" fill="#FFFF99" stroke="#E4E489" stroke-width="3" d="M 38.85 78.1 L 38.85 41.1 L 1.85 41.1 L 1.85 78.1 L 38.85 78.1 Z "/>
    <path id="ID0.2203458435833454" fill="#FFFF99" stroke="#E4E489" stroke-width="3" d="M 195.5 156.35 L 195.5 119.35 L 158.5 119.35 L 158.5 156.35 L 195.5 156.35 Z "/>
    <path id="ID0.2203458435833454" fill="#FFFF99" stroke="#E4E489" stroke-width="3" d="M 195.5 117.85 L 195.5 80.85 L 158.5 80.85 L 158.5 117.85 L 195.5 117.85 Z "/>
    <path id="ID0.2203458435833454" fill="#FFFF99" stroke="#E4E489" stroke-width="3" d="M 195.5 78.6 L 195.5 41.6 L 158.5 41.6 L 158.5 78.6 L 195.5 78.6 Z "/>
    <path id="ID0.2203458435833454" fill="#FFFF99" stroke="#E4E489" stroke-width="3" d="M 39.55 156.5 L 76.55 156.5 L 76.55 193.5 L 39.55 193.5 L 39.55 156.5 Z "/>
    <path id="ID0.2203458435833454" fill="#FFFF99" stroke="#E4E489" stroke-width="3" d="M 78.1 156.5 L 115.1 156.5 L 115.1 193.5 L 78.1 193.5 L 78.1 156.5 Z "/>
    <path id="ID0.2203458435833454" fill="#FFFF99" stroke="#E4E489" stroke-width="3" d="M 117.35 156.5 L 154.35 156.5 L 154.35 193.5 L 117.35 193.5 L 117.35 156.5 Z "/>
  </g>
</svg>