<svg version="1.1" xmlns="http://www.w3.org/2000/svg" xmlns:xlink="http://www.w3.org/1999/xlink" width="471" height="194"><g transform="translate(-1,-15)"><g data-paper-data="{&quot;isPaintingLayer&quot;:true}" fill="#9966ff" fill-rule="nonzero" stroke="none" stroke-width="0" stroke-linecap="butt" stroke-linejoin="miter" stroke-miterlimit="10" stroke-dasharray="" stroke-dashoffset="0" font-family="none" font-weight="none" font-size="none" text-anchor="none" style="mix-blend-mode: normal"><path d="M181,102.5c0,33.41323 -40.29437,60.5 -90,60.5c-49.70563,0 -90,-27.08677 -90,-60.5c0,-33.41323 40.29437,-60.5 90,-60.5c49.70563,0 90,27.08677 90,60.5z"/><path d="M301,136c0,37.00308 -42.30909,67 -94.5,67c-52.19091,0 -94.5,-29.99692 -94.5,-67c0,-37.00308 42.30909,-67 94.5,-67c52.19091,0 94.5,29.99692 94.5,67z"/><path d="M368,97.5c0,39.48836 -49.24868,71.5 -110,71.5c-60.75132,0 -110,-32.01164 -110,-71.5c0,-39.48836 49.24868,-71.5 110,-71.5c60.75132,0 110,32.01164 110,71.5z"/><path d="M440,98c0,32.5848 -28.87763,59 -64.5,59c-35.62237,0 -64.5,-26.4152 -64.5,-59c0,-32.5848 28.87763,-59 64.5,-59c35.62237,0 64.5,26.4152 64.5,59z" data-paper-data="{&quot;origPos&quot;:null}"/><path d="M471,140.5c0,28.99495 -38.50351,52.5 -86,52.5c-47.49649,0 -86,-23.50505 -86,-52.5c0,-28.99495 38.50351,-52.5 86,-52.5c47.49649,0 86,23.50505 86,52.5z" data-paper-data="{&quot;origPos&quot;:null}"/><path d="M422,164.5c0,24.57667 -47.45782,44.5 -106,44.5c-58.54218,0 -106,-19.92333 -106,-44.5c0,-24.57667 47.45782,-44.5 106,-44.5c58.54218,0 106,19.92333 106,44.5z" data-paper-data="{&quot;origPos&quot;:null}"/><path d="M208,160c0,25.4051 -43.20452,46 -96.5,46c-53.29548,0 -96.5,-20.5949 -96.5,-46c0,-25.4051 43.20452,-46 96.5,-46c53.29548,0 96.5,20.5949 96.5,46z"/><path d="M253,76.5c0,25.68124 -53.05426,46.5 -118.5,46.5c-65.44574,0 -118.5,-20.81876 -118.5,-46.5c0,-25.68124 53.05426,-46.5 118.5,-46.5c65.44574,0 118.5,20.81876 118.5,46.5z"/><path d="M472,88c0,40.31679 -44.54767,73 -99.5,73c-54.95233,0 -99.5,-32.68321 -99.5,-73c0,-40.31679 44.54767,-73 99.5,-73c54.95233,0 99.5,32.68321 99.5,73z"/></g></g></svg>