<svg version="1.1" xmlns="http://www.w3.org/2000/svg" xmlns:xlink="http://www.w3.org/1999/xlink" width="83.1375" height="104.21289" viewBox="0,0,83.1375,104.21289"><g transform="translate(-200.04717,-120.06166)"><g data-paper-data="{&quot;isPaintingLayer&quot;:true}" fill-rule="nonzero" stroke-linecap="butt" stroke-linejoin="miter" stroke-miterlimit="10" stroke-dasharray="" stroke-dashoffset="0" style="mix-blend-mode: normal"><path d="M217.82217,221.11166l14.55088,-11.98743c0,0 0.54451,-17.96802 -0.75517,-27.41404c-1.94445,-14.13219 -29.07071,-10.9582 -29.07071,-25.22353c0,-23.61578 8.225,-28.2 8.225,-28.2h62.275c0,0 7.6375,18.59887 7.6375,29.375c0,11.08175 -27.67531,13.78154 -28.9235,24.79278c-1.34266,11.84462 -0.78851,26.18195 -0.78851,26.18195l12.08702,13.06277z" data-paper-data="{&quot;origPos&quot;:null}" fill="#e3ff00" stroke="#e1d900" stroke-width="5"/><text transform="translate(213.12217,161.18666) scale(0.7546,0.7546)" font-size="40" xml:space="preserve" data-paper-data="{&quot;origPos&quot;:null}" fill="#e1d900" fill-rule="nonzero" stroke="none" stroke-width="1" stroke-linecap="butt" stroke-linejoin="miter" stroke-miterlimit="10" stroke-dasharray="" stroke-dashoffset="0" font-family="&quot;Microsoft YaHei&quot;, &quot;微软雅黑&quot;, STXihei, &quot;华文细黑&quot;" font-weight="normal" text-anchor="start" style="mix-blend-mode: normal"><tspan x="0" dy="0">高玩</tspan></text><path d="M275.39717,127.11166c0,3.89361 -15.12438,7.05 -33.78125,7.05c-18.65687,0 -33.78125,-3.15639 -33.78125,-7.05c0,-3.89361 15.12438,-7.05 33.78125,-7.05c18.65687,0 33.78125,3.15639 33.78125,7.05z" fill="#e1d900" stroke="none" stroke-width="0"/></g></g></svg>