<?xml version="1.0" encoding="UTF-8"?><svg xmlns="http://www.w3.org/2000/svg" xmlns:xlink="http://www.w3.org/1999/xlink" width="75.20000457763672" height="110.42548370361328" viewBox="-0.3999999985098839 0.20000028610229492 75.20000457763672 110.42548370361328" version="1.1">
    <!-- Generator: Sketch 39.1 (31720) - http://www.bohemiancoding.com/sketch -->
    <title>群组</title>
    <desc>Created with Sketch.</desc>
    <defs/>
    <g id="Page-1" stroke="none" fill-rule="evenodd">
        <g id="kaka">
            <g id="群组">
                <path d="M63.7,99.8 L63.7,99.8 C62.9,98.9 61.5,99.3 60.7,99.7 C60.2,99.9 59.9,100.1 59.9,100.1 C59.5,99.5 54.2,92.6 53.7,91.9 L43.6,98.5 C44.2,98.9 46.2,101.8 46.8,102.3 C49.7,104.5 52.6,107.1 52.6,107.1 C53.3,108 54.1,109.2 54.1,109.2 C55.4,111.3 59.5,107.2 59.5,107.2 C63.5,103.4 64.3,101.9 64.3,101.2 C64.4,100.8 64.3,100.4 63.7,99.8 L63.7,99.8 Z" id="形状" fill="#DB373C" stroke-width="1"/>
                <path d="M20.9,90.1 C21.3,90.6 22.2,91.9 23.6,92.5 C27.8,94 30.2,90.8 30.5,90.4 C31.9,88.7 33,86.1 34.2,81.7 C34.8,79.4 35.4,77 35.9,74.9 C36.4,73.4 36.9,72 37.2,71 C37.5,70 38.3,67.8 35.5,67.1 C33.3,66.6 30.6,68.8 30.6,68.8 C30.1,69 29.2,70.1 29.2,70.1 C23.6,76.2 20.6,84.3 20.6,84.3 C19.6,86.9 20.1,88.8 20.9,90.1 L20.9,90.1 Z" id="形状" fill="#DB373C" stroke-width="1"/>
                <g id="形状">
                    <path d="M 53.8 78.9 C 53.3 77.2 51.2 69.9 50.5 68.1 C 48.2 68.9 44.4 69.5 40.1 69.5 C 38.2 69.5 36.4 69.4 34.8 69.2 C 34.8 69.2 32.6 69.2 32 68.4 C 31.8 68.4 31.6 68.3 31.4 68.3 C 31.3 70.3 30.9 75.6 30.5 79.4 C 30.3 81.9 29 84.4 28.6 86.3 C 27.3 93.4 35.2 99.7 42.7 98.9 C 43.1 98.9 44.3 98.7 44.7 98.7 C 47 98.3 49.2 97.4 51 96.1 C 52.6 94.6 53.9 92.5 54.5 89.9 L 54.5 89.9 C 55.4 87.1 55.1 83.1 53.8 78.9 L 53.8 78.9 Z " fill="#F4474D" stroke-width="1"/>
                    <g>
                        <path d="M 48.9 64.3 C 47.1 61.7 44 61.2 37.3 62.2 C 35.6 62.4 33.9 63.2 32.8 64.3 L 32.8 64.3 L 32.7 64.4 C 32.6 64.5 32.4 64.8 32.2 65 C 34 65.1 36 65.2 38 65.2 C 42.3 65.1 46.1 64.8 48.9 64.3 L 48.9 64.3 Z " fill="#DB373C" stroke-width="1"/>
                        <g>
                            <path d="M 53.7 78.5 C 53.2 76.8 51.1 69.5 50.4 67.7 C 48.1 68.5 44.3 69.1 40 69.1 C 38.1 69.1 36.3 69 34.7 68.8 C 32.1 78.7 32.2 94.6 47.4 93 L 47.4 93 C 50.4 92.7 52.8 91.4 54.3 89.6 C 55.2 86.8 55 82.7 53.7 78.5 L 53.7 78.5 Z " fill="#FF555F" stroke-width="1"/>
                            <path d="M 49.8 66 C 49.7 65.8 49.6 65.6 49.6 65.5 C 49.4 65.1 49.2 64.6 48.9 64.3 C 46.1 64.8 42.3 65.2 38.1 65.2 C 36 65.2 34.1 65.1 32.3 65 C 32 65.4 31.7 65.9 31.6 66.4 C 31.5 66.7 31.4 67.2 31.4 67.6 C 31.4 67.6 31.3 68.2 31.3 68.5 C 31.9 69.4 38.1 69.5 40 69.5 C 44.3 69.5 48.1 68.7 50.4 67.8 C 50.2 67.2 50 66.6 49.8 66 L 49.8 66 Z " fill="#DB373C" stroke-width="1"/>
                        </g>
                    </g>
                </g>
                <g>
                    <polygon id="矩形_2_1_" fill="#C2B5B5" points="36.8 8.1 39.1 8.1 39.5 12.5 36.5 12.5" stroke-width="1"/>
                    <path d="M72.4,31.6 L72.4,31.6 L72.4,31.6 L66.5,31.6 L66.5,49.8 L72.4,49.8 L72.4,49.8 L72.4,49.8 C73.4,49.8 74.3,45.7 74.3,40.7 C74.3,35.7 73.5,31.6 72.4,31.6 L72.4,31.6 Z" id="形状" fill="#D9262C" stroke-width="1"/>
                    <path d="M67.5,57.4 C66.8,59.5 64.9,62.8 59.9,64.1 C55.8,65.2 49,66.3 38,66.3 C26.9,66.3 20.2,65.2 16.1,64.1 C11.1,62.8 9.2,59.4 8.5,57.4 C7.3,54 6,48.3 6,40.4 C6,30.6 6.9,24.8 8,21.4 C9,18.3 11.1,16.4 14.7,15.2 C19.6,13.6 28,11.3 38,11.3 C48,11.3 56.4,13.6 61.3,15.2 C65,16.4 67,18.3 68,21.4 C69.1,24.7 70,30.6 70,40.4 C70,48.3 68.7,54 67.5,57.4 L67.5,57.4 Z" id="矩形_1_拷贝_1_" fill="#FF555F" stroke-width="1"/>
                    <path d="M24,63.4 C19,62.1 17.1,58.7 16.4,56.7 C15.2,53.3 13.9,47.6 13.9,39.7 C13.9,29.9 14.8,24.1 15.9,20.7 C16.9,17.6 19,15.7 22.6,14.5 C25.6,13.5 27.8,12.3 32.9,11.5 C25.1,12.1 18.6,13.9 14.6,15.2 C10.9,16.4 8.9,18.3 7.9,21.4 C6.8,24.7 5.9,30.6 5.9,40.4 C5.9,48.3 7.2,54 8.4,57.4 C9.1,59.5 11,62.8 16,64.1 C20.1,65.2 26.9,66.3 37.9,66.3 C45.2,66.3 50.6,65.8 54.6,65.2 C51.6,65.4 48.1,65.6 43.9,65.6 C32.9,65.6 28.1,64.5 24,63.4 L24,63.4 Z" id="形状" fill="#F4474D" stroke-width="1"/>
                    <g id="形状">
                        <path d="M 37.9 66.3 L 41.5 66.3 L 36.3 66.3 L 37.9 66.3 L 37.9 66.3 Z " stroke-width="1" fill="#F4474D"/>
                        <path d="M 52.6 12.9 L 52.6 12.9 C 52.3 12.8 52.1 12.8 51.8 12.7 C 52.1 12.8 52.3 12.9 52.6 12.9 L 52.6 12.9 Z " stroke-width="1" fill="#F4474D"/>
                    </g>
                    <path d="M66.6,28.2 C66.3,27.2 57.7,23.2 45.1,23.2 L45,23.2 L44.9,23.2 C41.5,23.2 38.2,23.5 34.9,24.1 C24.9,25.9 23.8,27.3 23.4,28.2 C22.7,30.3 22.8,35.2 22.9,41.5 C22.9,46.9 23.8,53.5 24.4,54.1 C25.3,55 27.3,55.5 30.5,56.3 C33.2,57 37.7,57.9 44.9,57.9 L45,57.9 L45.1,57.9 C52.4,57.9 56.9,57 59.6,56.3 C62.9,55.5 64.8,55 65.8,54.1 C66.4,53.5 67.2,46.9 67.3,41.5 C67.1,35.2 67.3,30.3 66.6,28.2 L66.6,28.2 Z" id="形状" fill="#600E12" stroke-width="1"/>
                    <g id="椭圆_2_拷贝_7_">
                        <path d="M 33.5 36.4 C 37 36.4 39.5 40.3 37.1 44 C 37 44.2 36.8 44.4 36.6 44.5 C 32.9 47 29 44.4 29 40.9 L 29 40.9 C 29 38.5 31 36.4 33.5 36.4 L 33.5 36.4 Z M 52.4 38.2 C 57.3 33.7 63.2 39.1 59.9 44.1 C 59.8 44.3 59.6 44.5 59.4 44.6 C 55.7 47.1 51.8 44.5 51.8 41 L 51.8 39.6 C 51.7 39 52 38.5 52.4 38.2 L 52.4 38.2 Z " id="形状" stroke-width="1" fill="#FFFFFF"/>
                    </g>
                    <circle id="椭圆_1_2_" fill="#6F87ED" cx="37.9" cy="4.9" r="4.2" stroke-width="1"/>
                    <circle id="椭圆_21_2_" fill="#FFFFFF" cx="40" cy="3.2" r="1.3" stroke-width="1"/>
                    <path d="M23.5,45.5 C25.6,45.5 27.3,46.3 27.3,47.4 C27.3,48.4 25.6,49.3 23.5,49.3 C21.4,49.3 19.7,48.5 19.7,47.4 C19.7,46.4 21.4,45.5 23.5,45.5 L23.5,45.5 Z" id="椭圆_3_1_" fill="#FFD155" stroke-width="1"/>
                    <path d="M66.7,45.5 C68.8,45.5 70.5,46.3 70.5,47.4 C70.5,48.4 68.8,49.3 66.7,49.3 C64.6,49.3 62.9,48.5 62.9,47.4 C62.9,46.4 64.6,45.5 66.7,45.5 L66.7,45.5 Z" id="椭圆_3_拷贝_1_" fill="#FFD155" stroke-width="1"/>
                    <g id="形状">
                        <path d="M 6.9 49.8 C 7.3 49.8 7.7 49.6 8 49.3 C 7.6 49.6 7.1 49.7 6.6 49.8 L 6.9 49.8 L 6.9 49.8 Z " fill="#F4474D" stroke-width="1"/>
                        <path d="M 6.9 31.6 L 6.6 31.6 C 7.3 31.7 7.9 31.9 8.4 32.3 C 8 31.9 7.5 31.6 6.9 31.6 L 6.9 31.6 Z " fill="#F4474D" stroke-width="1"/>
                        <path d="M 9.7 32.4 C 9.2 32 8.6 31.7 7.9 31.7 L 7.5 31.7 L 3.3 31.7 L 3.3 31.7 L 3.3 31.7 C 2.3 31.7 3.3 35.8 3.3 40.8 C 3.3 45.8 2.2 49.9 3.3 49.9 L 3.3 49.9 L 3.3 49.9 L 7.5 49.9 L 7.9 49.9 C 8.4 49.8 8.9 49.7 9.3 49.4 C 10.5 48.2 11.4 44.8 11.4 40.8 C 11.4 37 10.8 33.8 9.7 32.4 L 9.7 32.4 Z " fill="#D9262C" stroke-width="1"/>
                    </g>
                    <path d="M0.1,40.7 C0.1,45.7 1.1,49.8 3,49.8 C5,49.8 6.2,45.7 6.2,40.7 C6.2,35.7 5.3,31.6 3,31.6 C1,31.6 0.1,35.7 0.1,40.7 L0.1,40.7 Z" id="形状" fill="#DB373C" stroke-width="1"/>
                </g>
                <path d="M29.7,109.1 C30.2,108.3 29.9,107.2 29.6,106.5 C29.4,106 29.2,105.7 29.2,105.7 C29.8,105.4 39,99.4 39.8,98.9 L29.1,90.7 C28.7,91.3 28.2,91.9 27.6,92.5 C25.2,95.3 22.6,98.1 22.6,98.1 C21.7,98.7 20.4,99.5 20.4,99.5 C18.3,100.7 22.1,105 22.1,105 C25.7,109.2 27.2,110 27.8,110.1 C28.2,110.2 28.7,110 29.3,109.6 L29.3,109.6 L29.3,109.6 L29.3,109.6 L29.3,109.6 C29.3,109.6 29.3,109.6 29.3,109.5 C29.5,109.3 29.6,109.2 29.7,109.1 L29.7,109.1 L29.7,109.1 Z" id="形状" fill="#F4474D" stroke-width="1"/>
                <g id="形状">
                    <path d="M 55.8 80.5 C 55.8 80.5 50 74.2 42.4 70.7 C 42.4 70.7 41.1 70.1 40.6 70 L 40.7 70 C 38.8 69.3 37 69.1 35.7 70.1 C 34.7 70.8 34.4 71.6 34.4 72.3 L 34.4 72.2 C 34.4 72.2 34.4 72.2 34.4 72.3 C 34.5 73.2 35.2 73.9 35.7 74.4 C 36.2 74.9 36.7 75.6 37.4 76.3 C 38.9 78.3 40.7 80.8 42.5 83.2 C 45.3 86.8 47.4 88.7 49.3 89.8 C 49.8 90.1 53.2 92.1 56.4 89.1 C 57.5 88.1 57.8 86.5 57.9 85.9 C 58.1 84.4 57.8 82.5 55.8 80.5 L 55.8 80.5 Z " fill="#DB373C" stroke-width="1"/>
                    <path d="M 35.7 70.1 C 33.3 71.8 34.9 73.5 35.7 74.4 C 38.6 77.9 46 85.8 49.2 88.2 C 49.2 88.2 52.8 90.6 55.6 87.5 C 55.6 87.5 57.8 85 55.1 81.4 C 55 81.4 41.2 66.1 35.7 70.1 L 35.7 70.1 Z " fill="#F4474D" stroke-width="1"/>
                </g>
            </g>
        </g>
    </g>
</svg>