<svg version="1.1" xmlns="http://www.w3.org/2000/svg" xmlns:xlink="http://www.w3.org/1999/xlink" width="163.37948" height="112.06418" viewBox="0,0,163.37948,112.06418"><g transform="translate(-235.984,-76.04422)"><g data-paper-data="{&quot;isPaintingLayer&quot;:true}" fill="none" fill-rule="nonzero" stroke="none" stroke-width="none" stroke-linecap="none" stroke-linejoin="miter" stroke-miterlimit="10" stroke-dasharray="" stroke-dashoffset="0" font-family="none" font-weight="none" font-size="none" text-anchor="none" style="mix-blend-mode: normal"><path d="M332,80l-90,107l-5,-5l88,-105l74,41l-72,-31" data-paper-data="{&quot;origPos&quot;:null}" fill="none" stroke="#fa0000" stroke-width="1.5" stroke-linecap="round"/><path d="M355.71686,96.3427c-1.09269,1.96686 -3.05955,0.87416 -3.05955,0.87416l-0.07112,-0.41078c-2.35163,-1.04516 -4.56971,-2.19893 -6.79549,-3.41279c-1.34813,0.88825 -3.3557,1.05289 -4.82955,0.68443c-1.66824,-0.41706 -2.99056,-1.40654 -4.16862,-2.48191c-2.98661,-2.72627 -7.25124,-1.1228 -9.62176,-4.55367c-2.71108,2.78981 -6.44831,5.3705 -8.01507,7.18544c-1.01806,1.17932 -2.22669,3.10229 -3.67328,4.39491c0.01164,0.12428 0.01758,0.25021 0.01758,0.37753c0.42939,0.85889 -1.85569,4.76377 -2.42229,5.53886c-1.31387,1.79734 -6.17802,5.32127 -6.42595,5.69557c-2.98028,4.4993 -6.28427,8.46798 -10.55351,11.7321c-0.87705,0.67056 -0.61967,2.80368 -1.27053,3.82232c-1.50128,2.34958 -3.52693,6.05302 -5.32354,8.14908c-0.74176,0.86539 -2.10594,1.88019 -3.64936,2.62052c-0.14819,0.30496 -0.34669,0.6003 -0.60064,0.87948c-1.83097,2.01286 -4.54099,2.20714 -6.21675,4.6815c-1.33991,1.97847 -1.45177,4.26298 -3.43332,6.11664c-3.41527,3.19485 -7.36631,6.85183 -10.07843,10.28151c-3.81736,4.82734 -6.5942,10.64495 -11.07782,15.28099c-3.7804,3.90892 -6.10414,10.65283 -11.94785,11.95143c-1.04119,0.23138 -1.84591,0.02786 -2.44421,-0.43131c-1.62583,-0.50791 -2.80579,-2.02551 -2.80579,-3.81869c0,-1.92396 1.35834,-3.53066 3.16833,-3.91342c3.20913,-4.2952 8.07406,-7.57622 10.71679,-12.37855c4.84937,-8.81221 12.02726,-14.29228 18.23717,-22.14688c2.90452,-3.67378 4.64515,-7.99006 8.47375,-10.57969c0.40317,-1.50744 2.08775,-2.22096 3.64764,-3.03104c0.06831,-2.01367 1.1009,-4.14732 2.55907,-4.98056c0.65623,-1.11191 1.83509,-1.87865 3.19863,-1.96227c0.18821,-0.23127 0.37309,-0.46897 0.55092,-0.71674c0.84164,-1.17271 1.00787,-3.46362 1.84361,-4.77693c1.30525,-2.05111 4.92678,-4.56747 6.86823,-6.07996c1.48566,-1.15741 2.6356,-4.35464 3.63177,-5.92004c0.95165,-1.49546 2.69967,-1.50803 3.9361,-2.36411c1.64139,-1.13646 2.1118,-4.65342 3.55514,-5.47818l0.00877,-0.15771c0.25202,-0.21602 0.4967,-0.4164 0.7348,-0.60013c-0.26396,-4.46014 8.95347,-10.36571 10.39164,-12.15277c0.98551,-1.22459 4.047,-6.04877 5.30256,-6.11853c0.6261,-0.40645 1.37303,-0.64251 2.17509,-0.64251c1.58266,0 2.95065,0.91917 3.59924,2.25279c0.05003,-0.00186 0.10028,-0.00279 0.15076,-0.00279c1.41363,-0.47138 2.11817,0.25628 2.71876,1.06598c0.32459,0.30092 0.59915,0.65503 0.80984,1.04848c1.99991,2.07395 10.99166,2.90802 13.22471,6.92357c2.52875,1.3982 4.99401,2.72079 7.6605,3.9059l0.42888,0.58922c0,0 1.96686,1.09269 0.87416,3.05955z" data-paper-data="{&quot;origPos&quot;:null}" fill="#ff0707" stroke="none" stroke-width="0.5" stroke-linecap="butt"/><path d="M384.76476,110.41041l0.47778,0.11944c-0.18846,0.32349 -0.33688,0.6777 -0.50911,1.01365c0.00388,0.30981 -0.0033,0.62211 0.02404,0.92664l-0.5,-0.125c-0.01696,-0.00627 -0.03405,-0.01212 -0.05125,-0.0176c-0.00901,0.00942 -0.01812,0.01876 -0.02733,0.02804c-0.07716,0.07771 -0.5135,-0.01965 -0.97815,-0.15002c-0.28956,-0.05406 -0.55571,-0.13685 -0.80316,-0.24206c-0.18363,-0.05752 -0.32639,-0.10244 -0.3901,-0.11836c-1.36887,-0.34222 -2.45474,-1.15087 -3.49823,-2.01415l-0.46634,-0.12388c-0.5088,-0.5088 -1.58816,-1.1496 -2.79422,-1.7045c-0.1644,-0.00215 -0.33056,-0.00261 -0.49868,-0.00261c0,0 -0.703,0 -0.93014,-0.58943c-1.06847,-0.39366 -2.1036,-0.66057 -2.81986,-0.66057c0,0 -0.98967,0 -0.99992,-0.98455c-0.68648,0.04975 -1.26754,-0.2936 -1.26754,-0.2936l-0.39502,-0.09439c-1.44816,-1.0344 -2.94901,-1.91933 -4.48533,-2.80077c-0.85683,0.28673 -1.76601,-0.02062 -1.76601,-0.02062l-1.125,-0.5c-0.09841,-0.05062 -0.19714,-0.09753 -0.29622,-0.14122c-0.2111,-0.05549 -0.34234,-0.11487 -0.34234,-0.11487l-0.04159,-0.03868c-0.7306,-0.2644 -1.48233,-0.39004 -2.26913,-0.56489c0,0 -1.87884,-0.41752 -1.77495,-2.21795c-0.73201,0.11918 -1.38603,-0.1659 -1.38603,-0.1659l-0.76474,-0.50649c-0.27423,-0.12188 -0.53686,-0.24405 -0.79005,-0.36598c-0.99078,-0.27859 -2.00362,-0.51465 -3.03423,-0.74368c0,0 -1.46715,-0.32603 -1.73679,-1.64427c-0.85427,-0.34357 -1.79258,-0.63208 -2.92761,-0.83845c0,0 -2.21371,-0.40249 -1.81122,-2.6162c0.40249,-2.21371 2.6162,-1.81122 2.6162,-1.81122c3.40315,0.61875 5.64812,2.06896 8.50139,3.43979c2.10249,0.61835 4.11681,1.41479 6.03862,2.61592l1.23488,1.358c0,0 0.01253,0.00567 0.0352,0.0171c0.18915,0.07077 0.38077,0.1461 0.57624,0.22681l1.125,0.5c0,0 0.03913,0.01282 0.1042,0.04096c0.66507,-0.04091 1.22427,0.27863 1.22427,0.27863c1.86077,1.0633 3.67457,2.11214 5.4202,3.35902l0.10498,-0.09439c0,0 0.90999,0.53772 1.01598,1.49289c1.73852,0.0862 2.75875,0.48721 3.7228,2.07382c-0.01699,-0.08117 -0.03622,-0.16116 -0.05902,-0.23928l0.27994,0.13997c0.08502,-0.08774 0.17542,-0.17013 0.27285,-0.24554c0.53166,-0.41156 1.99408,0.28124 2.44721,0.60557c1.9486,1.39475 3.49514,2.49757 5.5,3.5l0.16523,0.21242c0,0 0.62466,0.24292 0.65231,0.84242z" data-paper-data="{&quot;origPos&quot;:null}" fill="#ff0707" stroke="none" stroke-width="0.5" stroke-linecap="butt"/></g></g></svg>