<svg version="1.1" xmlns="http://www.w3.org/2000/svg" xmlns:xlink="http://www.w3.org/1999/xlink" width="98.33358" height="61.04524" viewBox="0,0,98.33358,61.04524"><defs><linearGradient x1="231.1043" y1="149.7464" x2="248.74998" y2="165.84354" gradientUnits="userSpaceOnUse" id="color-1"><stop offset="0" stop-color="#92539d"/><stop offset="0.1182" stop-color="#926fb0"/><stop offset="0.197" stop-color="#9281bd"/><stop offset="0.2463" stop-color="#928cc5"/><stop offset="0.3202" stop-color="#929dd1"/><stop offset="0.5188" stop-color="#91ccf0"/><stop offset="0.67" stop-color="#89bae5"/><stop offset="0.7882" stop-color="#6e80c0"/><stop offset="1" stop-color="#524499"/></linearGradient><linearGradient x1="230.42074" y1="151.24968" x2="243.3249" y2="163.02141" gradientUnits="userSpaceOnUse" id="color-2"><stop offset="0" stop-color="#50007f"/><stop offset="0.09852" stop-color="#5800aa"/><stop offset="0.1034" stop-color="#541ea8"/><stop offset="0.1773" stop-color="#5423a9"/><stop offset="0.4581" stop-color="#e0bfff"/><stop offset="0.5419" stop-color="#d1aaff"/><stop offset="0.7291" stop-color="#ceb6f6"/><stop offset="1" stop-color="#5379bc"/><stop offset="1" stop-color="#c83fff"/></linearGradient><linearGradient x1="241.79841" y1="160.26696" x2="243.16346" y2="151.84852" gradientUnits="userSpaceOnUse" id="color-3"><stop offset="0" stop-color="#450f5e"/><stop offset="0.2759" stop-color="#66309d"/><stop offset="0.5067" stop-color="#5379bc"/><stop offset="1" stop-color="#7f5ca5"/></linearGradient></defs><g transform="translate(-190.46229,-117.76727)"><g data-paper-data="{&quot;isPaintingLayer&quot;:true}" fill="none" fill-rule="nonzero" stroke="none" stroke-width="none" stroke-linecap="butt" stroke-linejoin="miter" stroke-miterlimit="10" stroke-dasharray="" stroke-dashoffset="0" font-family="none" font-weight="none" font-size="none" text-anchor="none" style="mix-blend-mode: normal"><path d="M253.70957,126.40987c0,4.14214 -6.71573,7.5 -15,7.5c-8.28427,0 -15,-3.35786 -15,-7.5c0,-4.14214 6.71573,-7.5 15,-7.5c8.28427,0 15,3.35786 15,7.5z" data-paper-data="{&quot;origPos&quot;:null}" fill="none" stroke="#e8e000" stroke-width="2.28521"/><g data-paper-data="{&quot;origPos&quot;:null}"><path d="M219.26474,158.50299c0.36656,0 0.47419,0.32822 0.48843,0.66383c0.14292,0.1082 0.26157,0.28785 0.26157,0.58617c0,0.75 -0.75,0.75 -0.75,0.75c-0.13601,0 -0.27263,-0.00836 -0.40975,-0.02456c-0.06294,0.05883 -0.12433,0.1193 -0.18492,0.17989c-2.12969,2.04004 -4.91349,6.74087 -6.06882,10.20684c-0.66346,1.05701 0.14432,1.66448 -1.08651,2.88783c-0.3504,0.34827 -2.33423,-0.24126 -2.7043,-0.34049c-2.15796,-0.57861 -4.32111,-0.73181 -6.18383,-2.14094c-2.27587,-1.94693 -5.16192,-3.00796 -7.36187,-5.20791c-1.50879,-1.50879 -2.21641,-3.1273 0.16337,-3.9027c0.67627,-0.21151 1.82414,-0.54948 2.75436,-0.60911c-0.41859,-0.19744 -0.8121,-0.43965 -1.25314,-0.62803c-1.63457,-0.69816 -4.05287,-1.88163 -4.5172,-3.73892c0.09927,-0.20818 -1.51434,-2.06444 -1.64739,-2.43191c-0.59286,-1.63743 -0.36228,-6.04356 1.1223,-6.90107c0.33718,-0.19476 2.24241,1.63237 2.51057,1.8469c1.4048,1.12511 2.6049,2.39094 4.34382,2.96276c0.35469,0.11664 0.80265,0.04471 1.20319,0.04429c-0.27957,-0.52773 -0.46907,-1.08346 -0.76089,-1.61847c-2.33705,-4.28459 -5.05857,-8.48877 -2.66689,-13.26162c0.44293,-0.80682 0.88166,-1.20288 1.4752,-1.87c1.00206,-1.12629 1.3269,-2.01861 2.98421,-1.18995c0.59846,0.29923 0.1147,1.76718 0.23485,2.20863c0.36475,1.34017 1.16054,3.33679 1.92768,4.48752c2.42004,3.6301 5.09146,7.94586 8.15629,11.01069c1.72449,1.72449 4.81989,5.62173 7.19504,6.39536l0.35861,-0.23907c0,0 -0.33398,-0.12597 0.41602,-0.12597zM217.2647,159.97815c-2.6726,-1.31197 -5.33571,-4.75025 -7.03029,-6.44483c-3.13646,-3.13646 -5.87152,-7.53106 -8.3437,-11.23931c-0.75137,-1.12706 -1.75423,-3.42309 -2.07232,-4.76248c-0.09972,-0.4199 -0.0569,-0.91971 -0.05381,-1.35677c-0.42255,0.75527 -1.64913,1.70249 -1.90667,2.32301c-2.11508,4.22087 0.52221,7.98381 2.64268,11.87134c0.32386,0.59374 0.50236,1.30004 0.8882,1.84285c0.06068,0.08536 0.784,1.07838 0.75,1.125c-2.32646,3.18951 -6.68634,-0.87529 -8.67821,-2.46685c-0.2055,-0.1644 -0.71057,-0.48444 -1.17597,-0.82165c-0.00368,0.92345 -0.01986,2.07693 -0.01986,2.20452c0,2.43372 0.80991,2.48123 1.60261,4.5681c0.33266,1.33063 2.75545,2.44264 4.00956,2.84539c0.71119,0.22839 1.85425,0.14371 2.06974,0.85891c0.53657,1.78096 -0.10542,2.20311 -1.5683,2.57613c-0.81855,0.20872 -1.67933,0.20601 -2.48553,0.48564c-0.19904,0.06485 -0.58994,0.13492 -0.91767,0.17865c0.59211,0.21722 1.1607,1.13646 1.88059,1.76751c2.07538,1.81925 4.47147,2.97693 6.67585,4.54198c1.68148,1.27203 3.66256,1.41487 5.64267,1.88198c0.56795,0.13398 1.10463,0.257 1.68744,0.302c0.21705,0.01676 0.86979,0.01404 0.65305,-0.00629c-0.89051,-0.08354 -0.55599,-1.04035 -0.33651,-1.86217c1.19639,-3.58917 3.61915,-7.6282 6.08648,-10.41267z" data-paper-data="{&quot;origPos&quot;:null}" fill="#fcffde" stroke="none" stroke-width="0.5"/><path d="M211.14149,170.38211c-0.21948,0.82182 -0.58997,1.68533 0.30054,1.76887c0.21674,0.02033 -0.40246,0.11724 -0.61951,0.10048c-0.58281,-0.045 -1.12344,-0.16686 -1.69138,-0.30084c-1.98011,-0.46711 -3.97713,-0.60863 -5.65861,-1.88066c-2.20437,-1.56504 -4.62525,-2.7316 -6.70063,-4.55086c-0.71989,-0.63105 -1.29564,-1.55636 -1.88774,-1.77358c0.32773,-0.04373 0.78882,-0.185 0.98786,-0.24985c0.80621,-0.27963 1.6618,-0.28121 2.48034,-0.48993c1.46287,-0.37302 2.04531,-0.71487 1.50874,-2.49582c-0.21548,-0.7152 -1.3674,-0.63923 -2.07859,-0.86762c-1.25411,-0.40275 -3.68632,-1.53417 -4.01898,-2.8648c-0.7927,-2.08687 -1.60336,-2.15376 -1.60336,-4.58748c0,-0.1276 0.01815,-1.28915 0.02183,-2.2126c0.4654,0.33721 1.06583,0.68733 1.27132,0.85173c1.99187,1.59156 6.25644,5.62617 8.5829,2.43666c0.034,-0.04662 -0.6849,-1.04925 -0.74558,-1.13461c-0.38584,-0.54281 -0.55848,-1.25705 -0.88233,-1.85079c-2.12047,-3.88753 -4.74077,-7.66272 -2.62569,-11.88359c0.25754,-0.62052 1.49087,-1.57015 1.91342,-2.32542c-0.00308,0.43706 -0.04676,0.93711 0.05295,1.35701c0.31809,1.33939 1.32344,3.63475 2.07482,4.76181c2.47218,3.70825 5.26857,8.14521 8.40503,11.28167c1.69458,1.69458 4.3535,5.16003 7.0261,6.472c-2.46733,2.78447 -4.91706,6.84906 -6.11345,10.43823z" data-paper-data="{&quot;noHover&quot;:false,&quot;origItem&quot;:[&quot;Path&quot;,{&quot;applyMatrix&quot;:true,&quot;segments&quot;:[[[434.5294,320.5666],[-4.93466,5.56894],[-5.34519,-2.62394]],[[420.46881,307.67693],[3.38917,3.38917],[-6.27292,-6.27292]],[[403.7814,285.19832],[4.94436,7.41649],[-1.50275,-2.25413]],[[399.63676,275.67336],[0.63619,2.67878],[-0.19944,-0.8398]],[[399.52913,272.95982],[-0.00617,0.87412],[-0.84511,1.51053]],[[395.71579,277.60585],[0.51508,-1.24104],[-4.23017,8.44174]],[[401.00115,301.34852],[-4.24094,-7.77506],[0.64771,1.18747]],[[402.77755,305.03422],[-0.77169,-1.08563],[0.12136,0.17073]],[[404.27755,307.28422],[0.068,-0.09323],[-4.65291,6.37902]],[[386.92113,302.35053],[3.98375,3.18312],[-0.41099,-0.3288]],[[384.56919,300.70722],[0.9308,0.67443],[-0.00736,1.84691]],[[384.52947,305.11627],[0,-0.25519],[0,4.86744]],[[387.73469,314.25247],[-1.5854,-4.17375],[0.66532,2.66126]],[[395.75381,319.94325],[-2.50821,-0.80549],[1.42237,0.45678]],[[399.89328,321.66106],[-0.43096,-1.4304],[1.07315,3.56192]],[[396.75668,326.81333],[2.92575,-0.74604],[-1.63709,0.41745]],[[391.78561,327.7846],[1.61241,-0.55925],[-0.39808,0.12971]],[[389.95027,328.14191],[0.65547,-0.08747],[1.18421,0.43443]],[[393.71145,331.67693],[-1.43978,-1.2621],[4.15075,3.63851]],[[407.06315,340.76089],[-4.40875,-3.13009],[3.36296,2.54406]],[[418.34849,344.52486],[-3.96022,-0.93422],[1.13589,0.26796]],[[421.72337,345.12886],[-1.16562,-0.09],[0.4341,0.03352]],[[423.02947,345.11627],[0.43348,0.04067],[-1.78103,-0.16708]],[[422.35645,341.39193],[-0.43896,1.64365],[2.39278,-7.17834]]],&quot;closed&quot;:true}],&quot;origPos&quot;:null}" fill="#fffeeb" stroke="none" stroke-width="0.5"/><path d="M204.76474,126.80815z" fill="none" stroke="#cc99ff" stroke-width="2.28521"/></g><g data-paper-data="{&quot;origPos&quot;:null,&quot;index&quot;:null}"><path d="M259.99343,158.31503c0.75,0 0.41602,0.12597 0.41602,0.12597l0.35861,0.23907c2.37515,-0.77363 5.47055,-4.67087 7.19504,-6.39536c3.06483,-3.06483 5.73625,-7.38059 8.15629,-11.01069c0.76714,-1.15073 1.56293,-3.14735 1.92768,-4.48752c0.12015,-0.44145 -0.36361,-1.9094 0.23485,-2.20863c1.65731,-0.82866 1.98215,0.06366 2.98421,1.18995c0.59354,0.66712 1.03227,1.06318 1.4752,1.87c2.39168,4.77285 -0.32984,8.97703 -2.66689,13.26162c-0.29182,0.53501 -0.48132,1.09074 -0.76089,1.61847c0.40054,0.00042 0.8485,0.07235 1.20319,-0.04429c1.73892,-0.57182 2.93902,-1.83765 4.34382,-2.96276c0.26816,-0.21453 2.17339,-2.04166 2.51057,-1.8469c1.48458,0.85751 1.71516,5.26364 1.1223,6.90107c-0.13305,0.36747 -1.74666,2.22373 -1.64739,2.43191c-0.46433,1.85729 -2.88263,3.04076 -4.5172,3.73892c-0.44104,0.18838 -0.83455,0.43059 -1.25314,0.62803c0.93022,0.05963 2.07809,0.3976 2.75436,0.60911c2.37978,0.7754 1.67216,2.39391 0.16337,3.9027c-2.19995,2.19995 -5.086,3.26098 -7.36187,5.20791c-1.86272,1.40913 -4.02587,1.56233 -6.18383,2.14094c-0.37007,0.09923 -2.3539,0.68876 -2.7043,0.34049c-1.23083,-1.22335 -0.42305,-1.83082 -1.08651,-2.88783c-1.15533,-3.46597 -3.93913,-8.1668 -6.06882,-10.20684c-0.06059,-0.06059 -0.12198,-0.12106 -0.18492,-0.17989c-0.13712,0.0162 -0.27374,0.02456 -0.40975,0.02456c0,0 -0.75,0 -0.75,-0.75c0,-0.29832 0.11865,-0.47797 0.26157,-0.58617c0.01424,-0.33561 0.12187,-0.66383 0.48843,-0.66383zM261.99344,159.79018c2.46733,2.78447 4.89009,6.8235 6.08648,10.41267c0.21948,0.82182 0.554,1.77863 -0.33651,1.86217c-0.21674,0.02033 0.436,0.02305 0.65305,0.00629c0.58281,-0.045 1.11949,-0.16802 1.68744,-0.302c1.98011,-0.46711 3.96119,-0.60995 5.64267,-1.88198c2.20438,-1.56505 4.60047,-2.72273 6.67585,-4.54198c0.71989,-0.63105 1.28848,-1.55029 1.88059,-1.76751c-0.32773,-0.04373 -0.71863,-0.1138 -0.91767,-0.17865c-0.8062,-0.27963 -1.66698,-0.27692 -2.48553,-0.48564c-1.46288,-0.37302 -2.10487,-0.79517 -1.5683,-2.57613c0.21549,-0.7152 1.35855,-0.63052 2.06974,-0.85891c1.25411,-0.40275 3.6769,-1.51476 4.00956,-2.84539c0.7927,-2.08687 1.60261,-2.13438 1.60261,-4.5681c0,-0.12759 -0.01618,-1.28107 -0.01986,-2.20452c-0.4654,0.33721 -0.97047,0.65725 -1.17597,0.82165c-1.99187,1.59156 -6.35175,5.65636 -8.67821,2.46685c-0.034,-0.04662 0.68932,-1.03964 0.75,-1.125c0.38584,-0.54281 0.56434,-1.24911 0.8882,-1.84285c2.12047,-3.88753 4.75776,-7.65047 2.64268,-11.87134c-0.25754,-0.62052 -1.48412,-1.56774 -1.90667,-2.32301c0.00309,0.43706 0.04591,0.93687 -0.05381,1.35677c-0.31809,1.33939 -1.32095,3.63542 -2.07232,4.76248c-2.47218,3.70825 -5.20724,8.10285 -8.3437,11.23931c-1.69458,1.69458 -4.35769,5.13286 -7.03029,6.44483z" data-paper-data="{&quot;origPos&quot;:null}" fill="#fcffde" stroke="none" stroke-width="0.5"/><path d="M268.11669,170.19418c-1.19639,-3.58917 -3.64612,-7.65376 -6.11345,-10.43823c2.6726,-1.31197 5.33152,-4.77742 7.0261,-6.472c3.13646,-3.13646 5.93285,-7.57342 8.40503,-11.28167c0.75138,-1.12706 1.75673,-3.42242 2.07482,-4.76181c0.09971,-0.4199 0.05603,-0.91995 0.05295,-1.35701c0.42255,0.75527 1.65588,1.7049 1.91342,2.32542c2.11508,4.22087 -0.50522,7.99606 -2.62569,11.88359c-0.32385,0.59374 -0.49649,1.30798 -0.88233,1.85079c-0.06068,0.08536 -0.77958,1.08799 -0.74558,1.13461c2.32646,3.18951 6.59103,-0.8451 8.5829,-2.43666c0.20549,-0.1644 0.80592,-0.51452 1.27132,-0.85173c0.00368,0.92345 0.02183,2.085 0.02183,2.2126c0,2.43372 -0.81066,2.50061 -1.60336,4.58748c-0.33266,1.33063 -2.76487,2.46205 -4.01898,2.8648c-0.71119,0.22839 -1.86311,0.15242 -2.07859,0.86762c-0.53657,1.78095 0.04587,2.1228 1.50874,2.49582c0.81854,0.20872 1.67413,0.2103 2.48034,0.48993c0.19904,0.06485 0.66013,0.20612 0.98786,0.24985c-0.5921,0.21722 -1.16785,1.14253 -1.88774,1.77358c-2.07538,1.81926 -4.49626,2.98582 -6.70063,4.55086c-1.68148,1.27203 -3.6785,1.41355 -5.65861,1.88066c-0.56794,0.13398 -1.10857,0.25584 -1.69138,0.30084c-0.21705,0.01676 -0.83625,-0.08015 -0.61951,-0.10048c0.89051,-0.08354 0.52002,-0.94705 0.30054,-1.76887z" data-paper-data="{&quot;noHover&quot;:false,&quot;origItem&quot;:[&quot;Path&quot;,{&quot;applyMatrix&quot;:true,&quot;segments&quot;:[[[434.5294,320.5666],[-4.93466,5.56894],[-5.34519,-2.62394]],[[420.46881,307.67693],[3.38917,3.38917],[-6.27292,-6.27292]],[[403.7814,285.19832],[4.94436,7.41649],[-1.50275,-2.25413]],[[399.63676,275.67336],[0.63619,2.67878],[-0.19944,-0.8398]],[[399.52913,272.95982],[-0.00617,0.87412],[-0.84511,1.51053]],[[395.71579,277.60585],[0.51508,-1.24104],[-4.23017,8.44174]],[[401.00115,301.34852],[-4.24094,-7.77506],[0.64771,1.18747]],[[402.77755,305.03422],[-0.77169,-1.08563],[0.12136,0.17073]],[[404.27755,307.28422],[0.068,-0.09323],[-4.65291,6.37902]],[[386.92113,302.35053],[3.98375,3.18312],[-0.41099,-0.3288]],[[384.56919,300.70722],[0.9308,0.67443],[-0.00736,1.84691]],[[384.52947,305.11627],[0,-0.25519],[0,4.86744]],[[387.73469,314.25247],[-1.5854,-4.17375],[0.66532,2.66126]],[[395.75381,319.94325],[-2.50821,-0.80549],[1.42237,0.45678]],[[399.89328,321.66106],[-0.43096,-1.4304],[1.07315,3.56192]],[[396.75668,326.81333],[2.92575,-0.74604],[-1.63709,0.41745]],[[391.78561,327.7846],[1.61241,-0.55925],[-0.39808,0.12971]],[[389.95027,328.14191],[0.65547,-0.08747],[1.18421,0.43443]],[[393.71145,331.67693],[-1.43978,-1.2621],[4.15075,3.63851]],[[407.06315,340.76089],[-4.40875,-3.13009],[3.36296,2.54406]],[[418.34849,344.52486],[-3.96022,-0.93422],[1.13589,0.26796]],[[421.72337,345.12886],[-1.16562,-0.09],[0.4341,0.03352]],[[423.02947,345.11627],[0.43348,0.04067],[-1.78103,-0.16708]],[[422.35645,341.39193],[-0.43896,1.64365],[2.39278,-7.17834]]],&quot;closed&quot;:true}],&quot;origPos&quot;:null}" fill="#fffeeb" stroke="none" stroke-width="0.5"/><path d="M274.49343,126.62021z" fill="none" stroke="#cc99ff" stroke-width="2.28521"/></g><path d="M196.29897,141.60172z" fill="#d0b059" stroke="#d5b13b" stroke-width="1"/><g data-paper-data="{&quot;origPos&quot;:null}" stroke="none" stroke-width="1"><path d="M239.94277,136.65617c11.55788,0 21.07817,9.52029 21.07817,21.07817c0,11.55788 -9.52029,21.07817 -21.07817,21.07817c-11.55788,0 -21.07817,-9.52029 -21.07817,-21.07817c0,-11.55788 9.52029,-21.07817 21.07817,-21.07817z" fill="#fbe945"/><path d="M239.94277,140.27457c9.66081,0 17.45976,7.79895 17.45976,17.45976c0,9.66081 -7.79895,17.45976 -17.45976,17.45976c-9.66081,0 -17.45976,-7.79895 -17.45976,-17.45976c0,-9.66081 7.79895,-17.45976 17.45976,-17.45976z" fill="#e29307"/><path d="M239.97786,175.19404c-3.75893,0 -7.48276,-1.26469 -10.29319,-3.4428c-2.21319,-2.81042 -3.4428,-6.56935 -3.4428,-10.29319c0,-9.66081 7.76381,-17.42462 17.42462,-17.45976c3.75893,0 7.48276,1.26469 10.29319,3.4428c2.21319,2.81042 3.4428,6.56935 3.4428,10.29319c0,9.66081 -7.79895,17.45976 -17.42462,17.45976z" data-paper-data="{&quot;origPos&quot;:null}" fill="#fbb11b"/><path d="M253.71378,164.54958c0,0.80798 -0.17567,1.26469 -0.56208,1.54573c-0.42156,0.28104 -0.9485,0.28104 -1.51059,0.28104c-0.14052,0 -0.21075,0 -0.31619,0c-0.14052,0 -0.21081,0 -0.35127,0h-7.16658c0.31619,1.51059 0.77284,3.1617 1.22955,3.4428c0.49185,0.2459 0.73775,0.70261 0.63237,1.22955c-0.07029,0.49185 -0.45671,0.87827 -0.91342,0.98365c-0.03515,0 -0.07029,0 -0.17567,0c-0.2459,0 -0.66746,-0.14052 -1.05394,-0.63237c-0.14052,1.37007 -0.49185,2.45909 -1.05388,2.74013c-1.12417,0.56208 -1.7214,0.17567 -2.28348,-0.17567c-0.21075,-0.10538 -0.45671,-0.28104 -0.73775,-0.38642c-0.35127,0.10538 -0.66746,0.14052 -0.98365,0.14052c-0.10538,0 -0.21081,0 -0.31619,0c-0.10538,0.03515 -0.17567,0.10538 -0.31619,0.21075c-0.42156,0.31619 -0.98365,0.70261 -1.7214,0.70261c-0.07029,0 -0.21081,-0.03515 -0.35127,-0.03515c-0.52694,-0.10538 -0.98365,-0.35127 -1.33498,-0.84313c-0.42156,-0.59723 -0.59723,-1.51059 -0.70261,-2.424c-0.42156,0.66746 -0.91342,0.84313 -1.22955,0.84313c-0.03515,0 -0.14052,0 -0.17567,0c-0.45671,-0.10538 -0.80798,-0.49185 -0.91342,-0.98365c-0.07029,-0.49185 0.17567,-0.9485 0.63237,-1.22955c0.49185,-0.28104 0.9485,-2.00244 1.22955,-3.54817c-1.1944,-0.14052 -2.10782,-0.63232 -2.10782,-2.35371v-14.26286c0,-0.17567 0,-0.35127 0.03515,-0.52694c-0.66746,-0.14052 -0.91342,-0.49185 -1.05388,-0.80798c-0.28104,-0.66746 0.07029,-1.47544 0.52694,-1.86192c0.17567,-0.17567 0.38642,-0.21081 0.66746,-0.17567c0.52694,0.14052 0.9485,0.70261 1.22955,1.15931c0.66746,-0.28104 1.37007,-0.28104 1.7214,-0.28104c0.10538,0 0.17567,0 0.28104,0c0.03515,0 0.14052,0 0.17567,0c0.45671,0 0.77284,0.17567 1.08902,0.35127c0.38642,0.21081 0.84313,0.42156 1.68625,0.38642c0.66746,0 1.1944,-0.14052 1.75654,-0.31619c0.77284,-0.2459 1.65111,-0.45671 3.12661,-0.45671h0.10538c0.56208,0 1.01879,0 1.65111,-0.03515c1.12417,-0.07029 2.63476,-0.10538 5.76137,-0.10538c0.28104,-0.63232 0.9485,-1.08902 1.65111,-1.08902c0.73775,0 1.37007,0.49185 1.65111,1.15931c1.22955,0.17567 1.51059,1.29984 1.51059,3.02123v0.35127c0,3.19684 0,5.23443 -1.54573,6.42883v0.73775c0,1.05394 -0.87827,1.93215 -1.93215,1.93215h-0.52694c-0.84313,0 -1.54573,-0.59723 -1.82677,-1.33498c-1.12417,0.17567 -2.424,0.28104 -3.65355,0.28104c-2.00244,0 -4.81286,-0.21075 -6.99091,-1.37007c-1.22955,-0.59723 -2.10782,-1.05394 -2.59967,-1.05394c-0.17567,0 -0.35127,0.03515 -0.45671,0.49185c-0.10538,0.42156 -0.10538,1.12417 -0.10538,2.10782v0.10538c0,1.15931 0,3.19684 5.26957,3.86436c2.31857,0.2459 3.93459,0.38642 5.26957,0.38642c1.12417,0 2.07267,-0.14052 3.12661,-0.28104v-0.17567c0,-1.05394 0.87827,-1.93215 1.93215,-1.93215h0.52694c1.05388,0 1.93215,0.84313 1.93215,1.93215v0.14052c0.49185,0.31619 0.70261,0.84313 0.56208,1.7214z" data-paper-data="{&quot;origPos&quot;:null}" fill="#e29307"/><g data-paper-data="{&quot;origPos&quot;:null}"><path d="M251.32486,160.89603v0.80798c0,1.05388 -0.87827,1.93215 -1.93215,1.93215h-0.52694c-1.05388,0 -1.93215,-0.84313 -1.93215,-1.93215v-0.84313c0,-1.05394 0.87827,-1.93215 1.93215,-1.93215h0.52694c1.08902,0 1.9673,0.84313 1.93215,1.9673z" fill="#ffffff"/><path d="M251.32486,155.02929v0.84313c0,1.05388 -0.87827,1.93215 -1.93215,1.93215h-0.52694c-1.05388,0 -1.93215,-0.84313 -1.93215,-1.93215v-0.84313c0,-1.05388 0.87827,-1.93215 1.93215,-1.93215h0.52694c1.08902,0 1.9673,0.87827 1.93215,1.93215z" fill="#ffffff"/><path d="M231.51138,149.3733c0,0.14052 -0.10538,0.21075 -0.21081,0.21075c-0.14052,0 -0.21075,-0.10538 -0.21075,-0.21075c0,-0.14052 0.10538,-0.21081 0.21075,-0.21081c0.07029,0 0.21081,0.07029 0.21081,0.21081z" fill="#fbe945"/><path d="M232.53018,149.83001c0,0.10538 -0.10538,0.21081 -0.21075,0.21081c-0.10538,0 -0.21081,-0.10538 -0.21081,-0.21081c0,-0.10538 0.10538,-0.21081 0.21081,-0.21081c0.10538,0 0.21075,0.07029 0.21075,0.21081z" fill="#fbe945"/><path d="M251.9573,162.7931c0,0.80798 -0.17567,1.26469 -0.56208,1.54573c-0.42156,0.28104 -0.9485,0.28104 -1.51059,0.28104c-0.14052,0 -0.21075,0 -0.31619,0c-0.14052,0 -0.21081,0 -0.35127,0h-7.16658c0.31619,1.51059 0.77284,3.16175 1.22955,3.4428c0.49185,0.2459 0.73775,0.70261 0.63237,1.22955c-0.07029,0.49185 -0.45671,0.87827 -0.91342,0.98365c-0.03515,0 -0.07029,0 -0.17567,0c-0.2459,0 -0.66746,-0.14052 -1.05394,-0.63232c-0.14052,1.37007 -0.49185,2.45909 -1.05388,2.74019c-1.12417,0.56208 -1.7214,0.17567 -2.28348,-0.17567c-0.21081,-0.10538 -0.45671,-0.28104 -0.73775,-0.38642c-0.35127,0.10538 -0.66746,0.14052 -0.98365,0.14052c-0.10538,0 -0.21075,0 -0.31619,0c-0.10538,0.03515 -0.17567,0.10538 -0.31619,0.21081c-0.42156,0.31619 -0.98365,0.70261 -1.7214,0.70261c-0.07029,0 -0.21081,-0.03515 -0.35127,-0.03515c-0.52694,-0.03515 -0.98365,-0.35127 -1.33498,-0.84313c-0.42156,-0.59723 -0.59723,-1.51059 -0.70261,-2.424c-0.42156,0.66746 -0.91342,0.84313 -1.22955,0.84313c-0.03515,0 -0.14052,0 -0.17567,0c-0.45671,-0.10538 -0.80798,-0.49185 -0.91342,-0.98365c-0.07029,-0.49185 0.17567,-0.9485 0.63237,-1.22955c0.49185,-0.28104 0.9485,-2.00244 1.22955,-3.54817c-1.1944,-0.14052 -2.10782,-0.63232 -2.10782,-2.35371v-14.29801c0,-0.17567 0,-0.35127 0.03515,-0.52694c-0.66746,-0.14052 -0.91342,-0.49185 -1.05394,-0.80798c-0.28104,-0.66746 0.07029,-1.4755 0.52694,-1.86192c0.17567,-0.17567 0.38642,-0.21075 0.66746,-0.17567c0.52694,0.14052 0.9485,0.70261 1.22955,1.15931c0.66746,-0.28104 1.37007,-0.28104 1.7214,-0.28104c0.10538,0 0.17567,0 0.28104,0c0.03515,0 0.14052,0 0.17567,0c0.45671,0 0.77284,0.17567 1.08902,0.35127c0.38642,0.21081 0.84313,0.42156 1.68625,0.38642c0.66746,0 1.1944,-0.14052 1.75654,-0.31619c0.77284,-0.2459 1.65111,-0.45671 3.12661,-0.45671v0c0.56208,0 1.01879,0 1.65111,-0.03515c1.12417,-0.07029 2.63476,-0.10538 5.76137,-0.10538c0.28104,-0.63237 0.91342,-1.08902 1.65111,-1.08902c0.73775,0 1.37007,0.49185 1.65111,1.15931c1.22955,0.17567 1.51059,1.29984 1.51059,3.02123v0.35127c0,3.93459 0,6.1127 -2.95094,7.16658c-1.61596,0.56208 -4.14534,0.91342 -6.5342,0.91342c-2.00244,0 -4.81286,-0.21075 -6.99091,-1.37007c-1.22955,-0.59723 -2.10782,-1.05388 -2.59967,-1.05388c-0.17567,0 -0.35127,0.03515 -0.45671,0.49185c-0.10538,0.42156 -0.10538,1.12417 -0.10538,2.10782v0c0,1.15931 0,3.19684 5.26957,3.86436c2.31863,0.2459 3.93459,0.38642 5.26957,0.38642c1.51059,0 2.56453,-0.17567 4.03997,-0.38642l0.28104,-0.03515c0.84313,-0.14052 1.44036,-0.17567 1.93215,-0.17567c1.4755,0 2.03753,0.59723 1.93215,2.10782zM248.90098,146.10617c0,0.52694 0.42156,0.91342 0.91342,0.91342c0.52694,0 0.91342,-0.42156 0.91342,-0.91342c0,-0.52694 -0.42156,-0.91342 -0.91342,-0.91342c-0.49185,0 -0.87827,0.42156 -0.91342,0.91342z" fill="#fbe945"/><g><path d="M234.46233,149.65434c0,0.98365 -0.80798,1.75654 -1.75654,1.75654c-0.98365,0 -1.75654,-0.80798 -1.75654,-1.75654c0,-0.98365 0.80798,-1.75654 1.75654,-1.75654c0.9485,0.03515 1.75654,0.77284 1.75654,1.75654z" fill="#ffffff"/><path d="M233.75972,149.30307c0,0.35127 -0.31619,0.66746 -0.66746,0.66746c-0.35127,0 -0.66746,-0.31619 -0.66746,-0.66746c0,-0.35127 0.31619,-0.66746 0.66746,-0.66746c0.35127,0 0.66746,0.31619 0.66746,0.66746z" fill="#000000"/></g></g></g><g data-paper-data="{&quot;origRot&quot;:0,&quot;origPos&quot;:null}" stroke="none" stroke-width="1"><path d="M231.12479,149.73878c0,0 4.88838,-5.68772 7.32914,-7.19442c2.44075,-1.5067 2.06473,-2.07298 6.68539,2.2123c4.62816,4.30791 5.09084,6.48296 5.1127,7.11625c0.02186,0.6333 -0.30117,7.95728 -0.42423,10.13943c-0.1381,2.13688 -0.42778,3.46206 -2.20952,5.11165c-1.74028,1.63274 -4.74638,3.4208 -6.15829,4.48326c-1.4044,1.08509 -3.34116,3.26014 -5.49971,0.15669c-2.15855,-3.10345 -4.7708,-4.73795 -5.73549,-9.27753c-0.95147,-4.57065 0.89999,-12.74762 0.89999,-12.74762z" fill="url(#color-1)"/><path d="M231.21277,150.21675c0,0 4.68127,-4.11358 6.564,-3.54374c1.88274,0.56983 6.24815,4.08557 6.62807,7.78416c0.09874,0.93596 0.141,1.84353 0.10606,2.73113c-0.01894,0.08476 -2.84791,-3.0542 -2.86686,-2.96944c0.01501,0.04526 -1.43099,-0.3426 -2.09393,-0.35548c0.4746,0.01243 1.70582,0.46199 2.05395,0.73136c1.18553,0.87915 2.8383,3.23792 2.84581,3.26056c-0.1838,2.56648 -0.75894,4.8041 -1.48685,5.5883c-1.0202,1.1086 -5.46597,5.15206 -5.79581,5.36331c-0.30911,0.20281 -5.58799,-3.30093 -6.24912,-6.49982c-0.66112,-3.19889 0.29466,-12.09036 0.29466,-12.09036z" fill="url(#color-2)"/><path d="M240.61853,142.04907c0,0 5.86185,4.2684 7.47822,7.15575c-2.34427,-2.10314 -5.3985,-2.65876 -7.26411,-3.38969c-1.12579,-0.41539 -1.4997,-1.18803 -1.58374,-1.79603c0.48342,-1.09573 1.36964,-1.97002 1.36964,-1.97002z" fill="#8d72c1"/><path d="M237.10192,145.56041c0,0 -2.42263,0.4975 -4.55918,2.77952c0,0 4.92951,-5.42189 6.88326,-5.98552c0.04896,0.00577 -1.04273,1.04071 -2.32408,3.206z" fill="#694bb2"/><path d="M246.84129,166.41258c-0.22931,1.22355 -5.37292,2.87937 -6.59143,4.45397c-1.19778,1.56616 -1.63337,2.02594 -2.25241,1.50714c-0.61903,-0.51879 -0.97954,-3.09503 -0.56501,-3.26368c0.41455,-0.16865 2.00189,-1.48229 2.50147,-1.89103c0.45812,-0.39187 0.27534,-1.93585 0.58379,-1.57326c0.30847,0.36258 -0.12585,2.95391 -0.12585,2.95391l1.13903,-2.87802c0.78878,0.32131 2.28456,-1.62298 2.28456,-1.62298c2.76079,0.2383 3.25513,1.0904 3.02583,2.31394z" fill="#674d99"/><path d="M248.10998,149.17374c0.15977,0.26893 0.24987,0.54054 0.33245,0.78952c0.7708,2.82032 -3.87958,1.42417 -3.87958,1.42417c-1.97379,-3.25568 -5.58717,-5.63886 -5.58717,-5.63886c-0.118,-0.56851 0.00703,-1.18449 0.27322,-1.72948c0.08404,0.608 0.45795,1.38065 1.58374,1.79603c1.82415,0.74778 4.92735,1.30918 7.27734,3.35861z" fill="#6d58af"/><path d="M248.63566,152.24792c1.4509,-0.59026 1.64168,2.18347 0.45972,4.71934c-1.19697,2.49059 -0.82211,5.67749 -1.2515,7.2907c-0.4219,1.63583 -2.48921,-0.55429 -2.95109,-1.80491c-0.22523,-0.67901 -0.12566,-2.08097 0.06432,-3.49401c0.02644,-0.06213 -1.61164,-2.09294 -3.36269,-4.18055c-0.06398,-0.05103 -0.14867,-0.09364 -0.23339,-0.13625c-0.78306,-0.37501 -1.30629,-0.6759 -1.86561,-0.73092c0.97743,0.03905 2.14828,0.59024 2.16329,0.63551c2.32681,2.54694 4.67043,5.21548 4.57072,5.1276c-1.67595,-1.86127 -0.86808,-3.39726 -0.82775,-4.05585c0.11312,-1.71572 0.65741,-1.70596 0.65741,-1.70596c0,0 1.12564,-1.07444 2.57654,-1.66469z" fill="#674d99"/><path d="M231.54708,165.62181c0,0 3.04916,3.30627 4.63242,3.89518c0,0 0.39185,1.53598 0.77325,2.33126c0.00751,0.02263 -2.64735,-2.23672 -5.40568,-6.22644z" fill="#6f5eb5"/><g data-paper-data="{&quot;origPos&quot;:null}"><path d="M238.13792,151.94619c0.27485,0.11938 0.48749,0.26406 0.65298,0.4793c0.31596,0.38521 0.48112,0.88315 0.46154,1.53331c-0.04783,0.63596 -0.27435,1.08774 -0.64386,1.39219v0c-0.18474,0.15223 -0.43347,0.25341 -0.69721,0.30932v0v0l-0.03249,0.39853l-0.17153,0.12116l-0.50251,-0.30932l-0.31516,0.53921c-0.06969,0.00267 -0.14689,-0.01731 -0.21657,-0.01465l0.00391,-0.13003l0.04896,0.00577l0.27941,-0.57606c-0.09793,-0.01153 -0.21657,-0.01465 -0.3145,-0.02618c-0.21657,-0.01465 -0.45388,-0.02086 -0.67046,-0.0355l-0.03852,0.73492c0.04896,0.00577 0.13937,-0.00532 0.20906,-0.00799c0.02073,-0.00843 0.06217,-0.0253 0.09042,-0.0111c0.04896,0.00577 0.06969,-0.00267 0.11864,0.0031l0.44816,0.07455l0.02644,-0.06213c0.02824,0.0142 0.04896,0.00577 0.0772,0.01997c0.33523,0.01775 0.60255,0.11451 0.86989,0.21124c0.26733,0.09674 0.48,0.24143 0.67192,0.39454v0c0.48357,0.39409 0.7767,0.99411 0.85111,1.78584l0.0093,0.09896c0.0168,0.1216 0.02612,0.22057 0.02221,0.3506c-0.0728,1.05713 -0.46156,1.72903 -1.13055,2.05256v0c-0.19977,0.10696 -0.41455,0.16865 -0.6858,0.20193c-0.20156,0.03062 -0.38239,0.05281 -0.61969,0.0466c-0.22979,0.01642 -0.41243,-0.03772 -0.56681,-0.07765c-0.30878,-0.07987 -0.51572,-0.27826 -0.64728,-0.53299l-0.06138,0.94973l0.06138,-0.94973c-0.13904,-0.27737 -0.22342,-0.60268 -0.17201,-1.08597l0.01894,-0.08476l0.02073,-0.00843l0.03673,-0.81126v0l0.14983,-2.52698c0.04896,0.00577 0.13937,-0.00532 0.22979,-0.01642l0.03852,-0.73492c-0.09042,0.0111 -0.16762,-0.00888 -0.23731,-0.00621l0.24761,-4.00526c0.06969,-0.00267 0.16762,0.00888 0.23731,0.00621c0.20906,-0.00799 0.38989,-0.03018 0.60647,-0.01554c0.02824,0.0142 0.04896,0.00577 0.0772,0.01997c0.46138,0.04349 0.84736,0.14335 1.15794,0.29955z" fill="none"/><path d="M235.62841,162.3945v0v0l-3.22037,-0.20547c0.02644,-0.06213 0.03216,-0.11582 0.05859,-0.17796l-0.07147,-0.07366l-0.00751,-0.02263l0.80657,-0.40519l-0.28953,-0.44734v0c0.25264,-0.23122 0.37733,-0.56451 0.36657,-1.02252l0.08454,-1.44722l1.07781,-0.43847l-0.28528,-0.86008l-0.14704,-1.50713l-0.46888,-0.06612l0.0999,-1.68466l0.16549,0.21524l0.09906,0.65326l-0.06822,0.3617l0.39316,0.40519l-0.30274,-0.41628l0.06822,-0.3617l-0.08763,-0.76067l-0.21984,-0.45001l0.01927,-0.36747c0.01534,-0.23743 0.00995,-0.46643 -0.00113,-0.64173l0.61072,-0.42827l0.40067,0.42782l0.06904,0.56274l0.25019,0.25785l-0.18801,-0.28314l-0.02758,-0.5796l-0.38745,-0.45888l0.38451,-0.25917c0,0 -0.28201,-0.42471 -0.59227,-0.86363l0.01894,-0.08476c0.91347,-0.01199 1.60464,0.01508 2.09996,0.01907l-0.03852,0.73492c-0.0772,-0.01997 -0.16762,-0.00888 -0.23731,-0.00621l-0.24761,4.00526c0.09042,-0.0111 0.16762,0.00888 0.23731,0.00621l-0.03852,0.73492c-0.09042,0.0111 -0.18834,-0.00045 -0.22979,0.01642l-0.14983,2.52698l-0.85618,0.96482l0.34566,0.75845l-0.36021,0.40342l0.54183,0.49883l-0.36673,-0.46732l0.39415,-0.44291l-0.24594,-0.67058l0.50316,-0.25607l-0.01894,0.08476c-0.03819,0.45223 0.03297,0.8086 0.17201,1.08597l-0.06138,0.94973z" fill="#1d1460"/><path d="M241.14659,154.42123l-0.00489,0.97813c-0.34697,0.37235 -0.89911,0.62265 -1.64316,0.71984l0.00179,0.07633c0.63258,0.20503 1.14831,0.48329 1.52646,0.84321c-0.13579,0.158 -0.32624,0.36392 -0.29801,0.37812c0.02824,0.0142 0.40671,0.09142 0.73621,0.16287c0.17299,0.23787 0.2838,0.50105 0.36069,0.80372l-0.13107,0.95238l0.03182,0.16687c-0.18295,0.22856 -0.44132,0.51347 -0.46203,0.5219c-0.04896,-0.00577 -0.27224,0.88138 -0.27224,0.88138l-0.46709,0.01021l-0.55963,0.22767l0.61039,-0.14557l0.44065,0.05192l0.36085,-0.96881l0.42417,-0.35238l0.03932,0.18951c-0.41619,1.58213 -1.63762,2.43867 -3.65111,2.53854v0l0.07099,-1.13345v0v0c0.66899,-0.32352 1.05774,-0.99544 1.13055,-2.05256c-0.0168,-0.1216 -0.01289,-0.25163 -0.02221,-0.3506l0.01501,0.04526l0.37733,-0.56451l0.69363,-0.462l0.38239,-0.05281l-0.45388,-0.02086l-0.6729,0.45356l-0.34697,0.37235l0.02432,0.14424c-0.05369,-0.80017 -0.36754,-1.39174 -0.85111,-1.78584v0v0l0.0999,-1.68466v0v0c0.36951,-0.30444 0.5753,-0.74779 0.64386,-1.39219c0.01959,-0.65016 -0.14557,-1.1481 -0.46154,-1.53331l0.06169,-1.23242c0.86989,0.21124 1.55323,0.49837 2.00286,0.93196l0.52552,1.58435z" fill="#1d1460"/><path d="M236.95924,151.65507l0.04604,-0.71229c0.41243,0.03772 0.81733,0.0528 1.16758,0.11583l0.00751,0.02263v0l-0.04243,0.86496c-0.31057,-0.15622 -0.69656,-0.25606 -1.17866,-0.29112z" fill="#1d1460"/><path d="M237.55995,161.48027l-0.06138,0.94973l-1.17329,-0.06213l0.05565,-0.89602c0.18262,0.05414 0.35775,0.08565 0.56681,0.07765c0.24482,0.02884 0.41813,-0.01597 0.61218,-0.06923z" fill="#1d1460"/><path d="M236.31704,151.63377l0.03852,-0.73492v0v0c0.13937,-0.00532 0.28626,0.01198 0.40491,0.01509c0.09042,-0.0111 0.16762,0.00888 0.26554,0.02041v0l-0.04604,0.71229c-0.02824,-0.0142 -0.04896,-0.00577 -0.0772,-0.01997c-0.21657,-0.01465 -0.40491,-0.01509 -0.58575,0.0071z" fill="#1d1460"/><path d="M236.38094,161.47185l-0.05565,0.89602l-0.67046,-0.0355l0.02497,-0.42116l0.06138,-0.94973c0.13155,0.25473 0.3385,0.45312 0.63976,0.51036z" fill="#1d1460"/><path d="M235.67981,161.91121l-0.02497,0.42116v0z" fill="#1d1460"/><path d="M238.20297,162.426v0l-0.07311,1.33982l-0.67046,-0.0355l0.06742,-1.28613l0.02073,-0.00843c0.21657,0.01465 0.44638,-0.00177 0.65544,-0.00977z" fill="#1d1460"/><path d="M238.20297,162.426z" fill="#1d1460"/><path d="M237.54754,162.43576l-0.02073,0.00843l0.06138,-0.94973c0.25051,-0.02485 0.48603,-0.09497 0.6858,-0.20193l-0.07099,1.13345c-0.22979,0.01642 -0.43886,0.02441 -0.65544,0.00977z" fill="#1d1460"/><path d="M238.03716,162.49345v0l0.07099,-1.13345z" fill="#1d1460"/><path d="M238.17286,151.0586c0.25231,0.05148 0.45566,0.09718 0.67975,0.13447l-0.06169,1.23242c-0.15798,-0.19261 -0.39888,-0.35149 -0.65298,-0.4793z" fill="#1d1460"/><path d="M233.8513,153.56163v0l-0.03428,0.32219z" fill="#0b082d"/><path d="M233.84493,154.18072l-0.16549,-0.21524l0.02677,-0.34483l0.21984,0.45001l0.08763,0.76067l-0.06072,0.38433l0.32347,0.40784l-0.40067,-0.42782l0.04749,-0.35327z" fill="#0b082d"/><path d="M239.38052,158.81304l0.0093,0.09896c-0.01501,-0.04526 -0.00179,-0.07633 -0.0093,-0.09896z" fill="#0b082d"/><path d="M239.41055,158.90359c-0.00751,-0.02263 -0.00179,-0.07633 -0.0093,-0.09896l-0.02432,-0.14424l0.34697,-0.37235l0.6729,-0.45356l0.45388,0.02086l-0.38239,0.05281l-0.69363,0.462l-0.37733,0.56451z" fill="#0b082d"/><path d="M234.15765,150.86823v0l0.09793,0.01153v0c-0.02073,0.00843 -0.06969,0.00267 -0.09793,-0.01153z" fill="#0b082d"/><path d="M234.16516,150.89086c0.02073,-0.00843 0.06969,-0.00267 0.09042,-0.0111l-0.01894,0.08476c-0.02824,-0.0142 -0.04325,-0.05946 -0.07147,-0.07366z" fill="#0b082d"/><path d="M234.33505,152.18319l0.09614,-0.06479l0.37994,0.43625l0.03509,0.60223l0.18052,0.2605l-0.24269,-0.23521l-0.07654,-0.58537z" fill="#0b082d"/><path d="M235.60132,159.75968l-0.02073,0.00843l0.05745,-0.81969v0z" fill="#0b082d"/><path d="M235.63805,158.94842l-0.05745,0.81969l-0.50316,0.25607l0.24594,0.67058l-0.40165,0.42028l0.37422,0.48995l-0.54934,-0.52146l0.36021,-0.40342l-0.34566,-0.75845z" fill="#0b082d"/><path d="M236.67703,156.26522l0.0421,-0.58227c0.09793,0.01153 0.21657,0.01465 0.3145,0.02618l-0.27941,0.57606z" fill="#1d1460"/><path d="M237.91136,155.66032z" fill="#1d1460"/><path d="M237.89389,156.10412l-0.02889,0.5512c-0.26733,-0.09674 -0.53467,-0.1935 -0.86989,-0.21124c-0.02824,-0.0142 -0.05647,-0.0284 -0.0772,-0.01997l0.31516,-0.53921l0.50251,0.30932z" fill="#1d1460"/><path d="M236.25711,156.20487l-0.00964,0.18374c-0.06969,0.00267 -0.13937,0.00532 -0.20906,0.00799l0.03852,-0.73492c0.21657,0.01465 0.45388,0.02086 0.67046,0.0355l-0.0421,0.58227z" fill="#1d1460"/><path d="M236.31716,156.38594c0.04896,0.00577 0.06969,-0.00267 0.11864,0.0031z" fill="#1d1460"/><path d="M238.6293,155.34255l-0.0999,1.68466c-0.19943,-0.17574 -0.40458,-0.29778 -0.67192,-0.39454l0.02889,-0.5512l0.45241,-0.33818l-0.42743,-0.08299v0c0.28447,-0.06435 0.51246,-0.15711 0.71794,-0.31775z" fill="#1d1460"/><path d="M238.48422,155.40157l-0.1074,1.66203v0z" fill="#1d1460"/><path d="M236.69384,156.38682c0.06969,-0.00267 0.14689,0.01731 0.21657,0.01465l-0.02644,0.06213l-0.44816,-0.07455c0.0772,0.01997 0.16762,0.00888 0.25803,-0.00222z" fill="#0b082d"/><path d="M236.69384,156.38682c-0.09042,0.0111 -0.18834,-0.00045 -0.25803,0.00222l-0.10543,-0.03417l0.00751,0.02263c-0.04144,0.01686 -0.06969,0.00267 -0.09042,0.0111l0.00964,-0.18374l0.44816,0.07455z" fill="#0b082d"/><path d="M238.35952,155.73487l-0.45241,0.33818l0.00425,-0.41273z" fill="#0b082d"/><path d="M236.35352,162.38208l-0.04783,0.63596c-0.04896,-0.00577 -0.11864,-0.0031 -0.16762,-0.00888l-0.03967,0.09319l-0.51067,0.23344l0.06708,-1.00343z" fill="#1d1460"/><path d="M235.58743,163.61849z" fill="#1d1460"/><path d="M235.6607,163.76849l-0.07329,-0.15001l0.23731,0.00621l0.05256,0.15844c-0.06969,0.00267 -0.14689,-0.01731 -0.21657,-0.01465z" fill="#0b082d"/><path d="M236.27533,163.2102l0.02285,-0.2148c0.02073,-0.00843 0.04896,0.00577 0.06969,-0.00267z" fill="#0b082d"/><path d="M235.50484,163.36952l0.08292,-0.03373l-0.00784,0.26007z" fill="#0b082d"/><path d="M238.19359,151.05017v0l0.07493,-1.26349c0.04325,0.05946 0.07899,0.0963 0.11473,0.13314l0.09826,-0.27115l0.47818,0.16509l-0.07884,1.39352c-0.23158,-0.05991 -0.44245,-0.12826 -0.68725,-0.1571z" fill="#1d1460"/><path d="M238.33866,150.99113z" fill="#1d1460"/><path d="M238.20108,151.0728c0.23731,0.00621 0.44816,0.07455 0.67975,0.13447c-0.23158,-0.05991 -0.43495,-0.10562 -0.67975,-0.13447z" fill="#1d1460"/><path d="M238.31778,149.50974l-0.02856,0.2685c-0.02824,-0.0142 -0.02824,-0.0142 -0.06398,-0.05103v0z" fill="#0b082d"/><path d="M238.99361,149.77425l-0.02073,0.00843l0.00784,-0.26007l0.06217,-0.0253c0.05076,0.08209 0.11473,0.13314 0.17871,0.18417z" fill="#0b082d"/><path d="M236.76046,150.91392c-0.11864,-0.0031 -0.25803,0.00222 -0.40491,-0.01509l0.06708,-1.00343l0.05256,0.15844l0.02073,-0.00843c0.06969,-0.00267 0.14689,0.01731 0.21657,0.01465l-0.09009,-0.2716l0.46921,-0.21658l0.02644,-0.06213l-0.09205,1.42459v0c-0.09793,-0.01153 -0.17513,-0.03151 -0.26554,-0.02041z" fill="#1d1460"/><path d="M236.35555,150.89883v0c0.13937,-0.00532 0.28626,0.01198 0.40491,0.01509c0.09042,-0.0111 0.16762,0.00888 0.26554,0.02041c-0.09042,0.0111 -0.16762,-0.00888 -0.26554,-0.02041c-0.11864,-0.0031 -0.26554,-0.02041 -0.40491,-0.01509z" fill="#1d1460"/><path d="M241.94906,159.18094c0.00751,0.02263 0.00751,0.02263 0,0c0.00751,0.02263 0,0 0,0z" fill="#0b082d"/><path d="M241.92408,159.6021c-0.00751,-0.02263 -0.00751,-0.02263 0.01322,-0.03106z" fill="#0b082d"/><path d="M241.7604,159.46319l0.05435,0.23477l-0.42417,0.35238l-0.36085,0.96881l-0.44065,-0.05192l-0.61039,0.14557l0.55963,-0.22767l0.46709,-0.01021c0,0 0.22327,-0.88715 0.27224,-0.88138c0.04896,0.00577 0.27909,-0.29335 0.48276,-0.53034z" fill="#0b082d"/><path d="M241.19638,155.35142l-0.00213,0.20637l0.00227,1.28346c0,0 -0.04717,0.07056 -0.13579,0.158c-0.37815,-0.35992 -0.89388,-0.63817 -1.52646,-0.84321l-0.00179,-0.07633c0.74406,-0.09719 1.27546,-0.33907 1.66387,-0.72827z" fill="none"/><path d="M241.49894,157.54022c0.25231,0.05148 0.45566,0.09718 0.45566,0.09718l-0.11572,0.71496c-0.07687,-0.30266 -0.18769,-0.56584 -0.33995,-0.81215z" fill="none"/><path d="M241.67621,154.10303c-0.0364,0.52855 -0.20826,0.93241 -0.52129,1.26527l0.00489,-0.97813l0.22866,-0.65815l-0.52552,-1.58435c0.10723,0.11051 0.20695,0.19837 0.29344,0.31731c0.38925,0.53521 0.56942,1.07842 0.5198,1.63806z" fill="#1d1460"/><path d="M241.90907,159.55684l0.04749,-0.35327c-0.00572,0.0537 0.00179,0.07633 -0.00391,0.13003c0.00179,0.07633 -0.01713,0.1611 -0.04358,0.22323z" fill="#1d1460"/><path d="M241.90907,159.55684l0.04749,-0.35327c-0.00572,0.0537 0.00179,0.07633 -0.00391,0.13003c0.00179,0.07633 -0.01713,0.1611 -0.04358,0.22323z" fill="url(#color-3)"/><path d="M241.81474,159.69796l0.10935,-0.09586c-0.01894,0.08476 -0.05108,0.20059 -0.07002,0.28536z" fill="#1d1460"/></g><path d="M243.54046,162.48944c-0.016,0.80283 -2.40274,2.82699 -2.40274,2.82699l-10.79471,-10.55875l0.59524,-4.94302c0.68807,1.08153 12.60221,12.67477 12.60221,12.67477z" data-paper-data="{&quot;origPos&quot;:null}" fill="#ffffff" opacity="0.2"/></g></g></g></svg>