<?xml version="1.0" encoding="UTF-8"?><svg xmlns="http://www.w3.org/2000/svg" xmlns:xlink="http://www.w3.org/1999/xlink" width="75.30000305175781" height="114.7397232055664" viewBox="0 0 75.30000305175781 114.7397232055664" version="1.1">
    <!-- Generator: Sketch 39.1 (31720) - http://www.bohemiancoding.com/sketch -->
    <title>群组</title>
    <desc>Created with Sketch.</desc>
    <defs/>
    <g id="Page-1" stroke="none" fill-rule="evenodd">
        <g id="kaka">
            <g id="群组">
                <path d="M49.9,111.7 L49.9,111.5 L49.9,111.5 C49.8,111 49.4,110.6 49,110.3 C48.9,110.2 48.9,110.2 48.8,110.2 L48.8,110.2 C48.5,110 48.2,109.9 48,109.8 C47.5,109.6 47.1,109.5 47.1,109.5 C47.3,108.8 49.1,98 49.3,97.1 L37.3,97.8 C37.4,98.5 37.5,100.9 37.6,101.7 C38.1,105.4 38.3,109.2 38.3,109.2 C38.2,110.3 37.9,111.7 37.9,111.7 C37.4,114.1 41.8,114.2 41.8,114.2 C47.3,114.4 48.9,113.8 49.4,113.4 C49.7,113.1 50,112.7 50,111.9 L50,111.9 C49.9,111.8 49.9,111.8 49.9,111.7 L49.9,111.7 L49.9,111.7 L49.9,111.7 Z" id="形状" fill="#DB373C" stroke-width="1"/>
                <path d="M30.5,90.9 C30.9,91.4 31.8,92.7 33.2,93.3 C37.4,94.8 39.8,91.6 40.1,91.2 C41.5,89.5 42.6,86.9 43.8,82.5 C44.4,80.2 45,77.8 45.5,75.7 C46,74.2 46.5,72.8 46.8,71.8 C47.1,70.8 47.9,68.6 45.1,67.9 C42.9,67.4 40.2,69.6 40.2,69.6 C39.7,69.8 38.8,70.9 38.8,70.9 C33.2,77 30.2,85.1 30.2,85.1 C29.2,87.8 29.7,89.6 30.5,90.9 L30.5,90.9 Z" id="形状" fill="#DB373C" stroke-width="1"/>
                <g id="形状">
                    <path d="M 54.1 79.3 C 53.6 77.6 51.5 70.3 50.8 68.5 C 48.5 69.3 44.7 69.9 40.4 69.9 C 38.5 69.9 36.7 69.8 35.1 69.6 C 35.1 69.6 32.9 69.6 32.3 68.8 C 32.1 68.8 31.9 68.7 31.7 68.7 C 31.6 70.7 31.2 76 30.8 79.8 C 30.6 82.3 29.3 84.8 28.9 86.7 C 27.6 93.8 35.5 100.1 43 99.3 C 43.4 99.3 44.6 99.1 45 99.1 C 47.3 98.7 49.5 97.8 51.3 96.5 C 52.9 95 54.2 92.9 54.8 90.3 L 54.8 90.3 C 55.7 87.5 55.4 83.5 54.1 79.3 L 54.1 79.3 Z " fill="#F4474D" stroke-width="1"/>
                    <g>
                        <path d="M 49.2 64.7 C 47.4 62.1 44.3 61.6 37.6 62.6 C 35.9 62.8 34.2 63.6 33.1 64.7 L 33.1 64.7 L 33 64.8 C 32.9 64.9 32.7 65.2 32.5 65.4 C 34.3 65.5 36.3 65.6 38.3 65.6 C 42.6 65.5 46.4 65.2 49.2 64.7 L 49.2 64.7 Z " fill="#DB373C" stroke-width="1"/>
                        <g>
                            <path d="M 54 78.9 C 53.5 77.2 51.4 69.9 50.7 68.1 C 48.4 68.9 44.6 69.5 40.3 69.5 C 38.4 69.5 36.6 69.4 35 69.2 C 32.4 79.1 32.5 95 47.7 93.4 L 47.7 93.4 C 50.7 93.1 53.1 91.8 54.6 90 C 55.5 87.2 55.3 83.1 54 78.9 L 54 78.9 Z " fill="#FF555F" stroke-width="1"/>
                            <path d="M 49.2 64.7 C 46.4 65.2 42.6 65.6 38.4 65.6 C 36.3 65.6 34.4 65.5 32.6 65.4 C 32.3 65.8 32 66.3 31.9 66.8 C 31.8 67.1 31.7 67.6 31.7 68 C 31.7 68 31.6 68.6 31.6 68.9 C 32.2 69.8 38.4 69.9 40.3 69.9 C 44.6 69.9 48.4 69.1 50.7 68.2 C 50.5 67.6 49.5 65 49.2 64.7 L 49.2 64.7 Z " fill="#DB373C" stroke-width="1"/>
                        </g>
                    </g>
                </g>
                <g>
                    <polygon id="矩形_2_2_" fill="#C2B5B5" points="37.2 7.9 39.5 7.9 39.9 12.3 36.9 12.3" stroke-width="1"/>
                    <path d="M72.9,31.4 L72.9,31.4 L72.9,31.4 L67,31.4 L67,49.6 L72.9,49.6 L72.9,49.6 L72.9,49.6 C73.9,49.6 74.8,45.5 74.8,40.5 C74.8,35.5 73.9,31.4 72.9,31.4 L72.9,31.4 Z" id="形状" fill="#D9262C" stroke-width="1"/>
                    <path d="M67.9,57.2 C67.2,59.3 65.3,62.6 60.3,63.9 C56.2,65 49.4,66.1 38.4,66.1 C27.3,66.1 20.6,65 16.5,63.9 C11.5,62.6 9.6,59.2 8.9,57.2 C7.7,53.8 6.4,48.1 6.4,40.2 C6.4,30.4 7.3,24.6 8.4,21.2 C9.4,18.1 11.5,16.2 15.1,15 C20,13.4 28.4,11.1 38.4,11.1 C48.4,11.1 56.8,13.4 61.7,15 C65.4,16.2 67.4,18.1 68.4,21.2 C69.5,24.5 70.4,30.4 70.4,40.2 C70.4,48.1 69.1,53.8 67.9,57.2 L67.9,57.2 Z" id="矩形_1_拷贝_2_" fill="#FF555F" stroke-width="1"/>
                    <path d="M24.4,63.3 C19.4,62 17.5,58.6 16.8,56.6 C15.6,53.2 14.3,47.5 14.3,39.6 C14.3,29.8 15.2,24 16.3,20.6 C17.3,17.5 19.4,15.6 23,14.4 C26,13.4 28.2,12.2 33.3,11.4 C25.5,12 19,13.8 15,15.1 C11.3,16.3 9.3,18.2 8.3,21.3 C7.2,24.6 6.3,30.5 6.3,40.3 C6.3,48.2 7.6,53.9 8.8,57.3 C9.5,59.4 11.4,62.7 16.4,64 C20.5,65.1 27.3,66.2 38.3,66.2 C45.6,66.2 51,65.6 55,65 C52,65.2 48.5,65.5 44.3,65.5 C33.3,65.4 28.6,64.3 24.4,63.3 L24.4,63.3 Z" id="形状" fill="#F4474D" stroke-width="1"/>
                    <g id="形状">
                        <path d="M 38.4 66.1 L 42 66.1 L 36.8 66.1 L 38.4 66.1 L 38.4 66.1 Z " stroke-width="1" fill="#F4474D"/>
                        <path d="M 53 12.7 L 53 12.7 C 52.7 12.6 52.5 12.6 52.2 12.5 C 52.5 12.6 52.8 12.7 53 12.7 L 53 12.7 Z " stroke-width="1" fill="#F4474D"/>
                    </g>
                    <path d="M67,28 C66.7,27 58.1,23 45.5,23 L45.4,23 L45.3,23 C41.9,23 38.6,23.3 35.3,23.9 C25.3,25.7 24.2,27.1 23.8,28 C23.1,30.1 23.2,35 23.3,41.3 C23.3,46.7 24.2,53.3 24.8,53.9 C25.7,54.8 27.7,55.3 30.9,56.1 C33.6,56.8 38.1,57.7 45.3,57.7 L45.4,57.7 L45.5,57.7 C52.8,57.7 57.3,56.8 60,56.1 C63.3,55.3 65.2,54.8 66.2,53.9 C66.8,53.3 67.6,46.7 67.7,41.3 C67.6,35 67.7,30.1 67,28 L67,28 Z" id="形状" fill="#600E12" stroke-width="1"/>
                    <g id="椭圆_2_拷贝_1_">
                        <path d="M 34 36.3 C 37.5 36.3 40 40.2 37.6 43.9 C 37.5 44.1 37.3 44.3 37.1 44.4 C 33.4 46.9 29.5 44.3 29.5 40.8 L 29.5 40.8 C 29.4 38.3 31.5 36.3 34 36.3 L 34 36.3 Z M 52.8 38 C 57.7 33.5 63.6 38.9 60.3 43.9 C 60.2 44.1 60 44.3 59.8 44.4 C 56.1 46.9 52.2 44.3 52.2 40.8 L 52.2 39.4 C 52.2 38.9 52.4 38.4 52.8 38 L 52.8 38 Z " id="形状" stroke-width="1" fill="#FFFFFF"/>
                    </g>
                    <circle id="椭圆_1_3_" fill="#6F87ED" cx="38.4" cy="4.7" r="4.2" stroke-width="1"/>
                    <circle id="椭圆_21_3_" fill="#FFFFFF" cx="40.4" cy="3" r="1.3" stroke-width="1"/>
                    <path d="M23.9,45.4 C26,45.4 27.7,46.2 27.7,47.3 C27.7,48.3 26,49.2 23.9,49.2 C21.8,49.2 20.1,48.4 20.1,47.3 C20.1,46.2 21.8,45.4 23.9,45.4 L23.9,45.4 Z" id="椭圆_3_2_" fill="#FFD155" stroke-width="1"/>
                    <path d="M67.2,45.4 C69.3,45.4 71,46.2 71,47.3 C71,48.3 69.3,49.2 67.2,49.2 C65.1,49.2 63.4,48.4 63.4,47.3 C63.4,46.2 65.1,45.4 67.2,45.4 L67.2,45.4 Z" id="椭圆_3_拷贝_2_" fill="#FFD155" stroke-width="1"/>
                    <g id="形状">
                        <path d="M 7.3 49.6 C 7.7 49.6 8.1 49.4 8.4 49.1 C 8 49.4 7.5 49.5 7 49.6 L 7.3 49.6 L 7.3 49.6 Z " fill="#F4474D" stroke-width="1"/>
                        <path d="M 7.3 31.4 L 7 31.4 C 7.7 31.5 8.3 31.7 8.8 32.1 C 8.4 31.7 7.9 31.4 7.3 31.4 L 7.3 31.4 Z " fill="#F4474D" stroke-width="1"/>
                        <path d="M 10.1 32.2 C 9.6 31.8 9 31.5 8.3 31.5 L 7.9 31.5 L 3.7 31.5 L 3.7 31.5 L 3.7 31.5 C 2.7 31.5 3.7 35.6 3.7 40.6 C 3.7 45.6 2.6 49.7 3.7 49.7 L 3.7 49.7 L 3.7 49.7 L 7.9 49.7 L 8.3 49.7 C 8.8 49.6 9.3 49.5 9.7 49.2 C 10.9 48 11.8 44.6 11.8 40.6 C 11.9 36.8 11.2 33.6 10.1 32.2 L 10.1 32.2 Z " fill="#D9262C" stroke-width="1"/>
                    </g>
                    <path d="M0.5,40.5 C0.5,45.5 1.5,49.6 3.4,49.6 C5.4,49.6 6.6,45.5 6.6,40.5 C6.6,35.5 5.7,31.4 3.4,31.4 C1.4,31.4 0.5,35.5 0.5,40.5 L0.5,40.5 Z" id="形状" fill="#DB373C" stroke-width="1"/>
                </g>
                <path d="M43.5,99 L33.9,94.3 C33.8,97.1 27.8,101.9 27.8,101.9 C26.9,102.5 25.6,103.3 25.6,103.3 C23.4,104.5 27.2,108.8 27.2,108.8 C30.7,113 32.2,113.9 32.9,114 C33.3,114.1 33.8,114 34.4,113.5 L34.4,113.5 C34.6,113.3 34.8,113.1 34.9,112.8 C35.5,112 35.2,110.8 34.8,110 C34.7,109.9 34.6,109.7 34.5,109.5 C34.5,109.5 34.5,109.4 34.4,109.4 C35.7,108.7 41.7,105.1 43.5,99 L43.5,99 Z" id="形状" fill="#F4474D" stroke-width="1"/>
                <g id="形状">
                    <g>
                        <path d="M 49.1 86.9 C 48.8 84.8 47.9 82.2 45.7 78.4 C 44.2 75.9 42.7 73.5 41.5 71.5 C 41.1 70.6 40.6 69.8 40.3 69.1 C 40 68.6 39.6 67.7 38.9 67.3 C 38.9 67.2 38.8 67.2 38.8 67.2 C 38.8 67.2 38.8 67.2 38.8 67.3 C 38.2 67 37.5 67 36.5 67.6 C 35.2 68.4 34.7 70.1 34.6 72.1 L 34.6 71.9 C 34.4 72.4 34.5 73.8 34.5 73.8 C 34.8 81.9 38.3 89.4 38.3 89.4 C 39.4 91.9 41 92.9 42.4 93.2 C 42.9 93.3 44.5 93.6 45.8 93 C 49.7 91.2 49.2 87.4 49.1 86.9 L 49.1 86.9 Z " fill="#DB373C" stroke-width="1"/>
                        <path d="M 36.5 67.6 C 38.9 66.1 39.8 68.2 40.3 69.1 C 42.3 72.9 46.7 82.5 47.7 86.2 C 47.7 86.2 48.5 90.3 44.7 91.7 C 44.7 91.7 41.7 92.8 39.5 89 C 39.5 89.1 30.9 71.1 36.5 67.6 L 36.5 67.6 Z " fill="#F4474D" stroke-width="1"/>
                    </g>
                    <path d="M 36.3 68.6 C 38.1 67.5 39.3 68.3 40.3 69.1 C 39.7 67.8 38.5 66 36.5 67.4 C 35.6 68 35 69.3 34.7 70.9 C 35.1 70.1 35.5 69 36.3 68.6 L 36.3 68.6 Z " fill="#DB373C" stroke-width="1"/>
                </g>
            </g>
        </g>
    </g>
</svg>