<svg version="1.1" xmlns="http://www.w3.org/2000/svg" xmlns:xlink="http://www.w3.org/1999/xlink" width="7.125" height="7.125"><g transform="translate(-225.62503,-175.37502)"><g data-paper-data="{&quot;isPaintingLayer&quot;:true}" fill="none" fill-rule="nonzero" stroke="none" stroke-width="1" stroke-linecap="butt" stroke-linejoin="miter" stroke-miterlimit="10" stroke-dasharray="" stroke-dashoffset="0" font-family="none" font-weight="none" font-size="none" text-anchor="none" style="mix-blend-mode: normal"><g><path d="M229.18754,175.37502c1.95344,0 3.5625,1.60906 3.5625,3.5625c0,1.95344 -1.60906,3.5625 -3.5625,3.5625c-1.95344,0 -3.5625,-1.60906 -3.5625,-3.5625c0,-1.95344 1.60906,-3.5625 3.5625,-3.5625z" fill="#fbe945"/><path d="M229.18754,175.98658c1.63281,0 2.95094,1.31813 2.95094,2.95094c0,1.63281 -1.31813,2.95094 -2.95094,2.95094c-1.63281,0 -2.95094,-1.31813 -2.95094,-2.95094c0,-1.63281 1.31813,-2.95094 2.95094,-2.95094z" fill="#e29307"/><path d="M229.19346,181.88845c-0.63531,0 -1.26469,-0.21375 -1.73969,-0.58188c-0.37406,-0.475 -0.58188,-1.11031 -0.58188,-1.73969c0,-1.63281 1.31219,-2.945 2.945,-2.95094c0.63531,0 1.26469,0.21375 1.73969,0.58188c0.37406,0.475 0.58188,1.11031 0.58188,1.73969c0,1.63281 -1.31813,2.95094 -2.945,2.95094z" data-paper-data="{&quot;origPos&quot;:null}" fill="#fbb11b"/><path d="M231.51502,180.08939c0,0.13656 -0.02969,0.21375 -0.095,0.26125c-0.07125,0.0475 -0.16031,0.0475 -0.25531,0.0475c-0.02375,0 -0.03562,0 -0.05344,0c-0.02375,0 -0.03563,0 -0.05937,0h-1.21125c0.05344,0.25531 0.13062,0.53437 0.20781,0.58188c0.08313,0.04156 0.12469,0.11875 0.10688,0.20781c-0.01188,0.08313 -0.07719,0.14844 -0.15438,0.16625c-0.00594,0 -0.01188,0 -0.02969,0c-0.04156,0 -0.11281,-0.02375 -0.17813,-0.10688c-0.02375,0.23156 -0.08313,0.41562 -0.17812,0.46312c-0.19,0.095 -0.29094,0.02969 -0.38594,-0.02969c-0.03562,-0.01781 -0.07719,-0.0475 -0.12469,-0.06531c-0.05937,0.01781 -0.11281,0.02375 -0.16625,0.02375c-0.01781,0 -0.03563,0 -0.05344,0c-0.01781,0.00594 -0.02969,0.01781 -0.05344,0.03562c-0.07125,0.05344 -0.16625,0.11875 -0.29094,0.11875c-0.01188,0 -0.03563,-0.00594 -0.05937,-0.00594c-0.08906,-0.01781 -0.16625,-0.05937 -0.22563,-0.1425c-0.07125,-0.10094 -0.10094,-0.25531 -0.11875,-0.40969c-0.07125,0.11281 -0.15438,0.1425 -0.20781,0.1425c-0.00594,0 -0.02375,0 -0.02969,0c-0.07719,-0.01781 -0.13656,-0.08313 -0.15438,-0.16625c-0.01188,-0.08313 0.02969,-0.16031 0.10688,-0.20781c0.08313,-0.0475 0.16031,-0.33844 0.20781,-0.59969c-0.20187,-0.02375 -0.35625,-0.10687 -0.35625,-0.39781v-2.41062c0,-0.02969 0,-0.05937 0.00594,-0.08906c-0.11281,-0.02375 -0.15438,-0.08313 -0.17812,-0.13656c-0.0475,-0.11281 0.01188,-0.24937 0.08906,-0.31469c0.02969,-0.02969 0.06531,-0.03563 0.11281,-0.02969c0.08906,0.02375 0.16031,0.11875 0.20781,0.19594c0.11281,-0.0475 0.23156,-0.0475 0.29094,-0.0475c0.01781,0 0.02969,0 0.0475,0c0.00594,0 0.02375,0 0.02969,0c0.07719,0 0.13062,0.02969 0.18406,0.05937c0.06531,0.03563 0.1425,0.07125 0.285,0.06531c0.11281,0 0.20187,-0.02375 0.29688,-0.05344c0.13062,-0.04156 0.27906,-0.07719 0.52844,-0.07719h0.01781c0.095,0 0.17219,0 0.27906,-0.00594c0.19,-0.01188 0.44531,-0.01781 0.97375,-0.01781c0.0475,-0.10687 0.16031,-0.18406 0.27906,-0.18406c0.12469,0 0.23156,0.08313 0.27906,0.19594c0.20781,0.02969 0.25531,0.21969 0.25531,0.51063v0.05937c0,0.54031 0,0.88469 -0.26125,1.08656v0.12469c0,0.17813 -0.14844,0.32656 -0.32656,0.32656h-0.08906c-0.1425,0 -0.26125,-0.10094 -0.30875,-0.22563c-0.19,0.02969 -0.40969,0.0475 -0.6175,0.0475c-0.33844,0 -0.81344,-0.03562 -1.18156,-0.23156c-0.20781,-0.10094 -0.35625,-0.17813 -0.43938,-0.17813c-0.02969,0 -0.05937,0.00594 -0.07719,0.08313c-0.01781,0.07125 -0.01781,0.19 -0.01781,0.35625v0.01781c0,0.19594 0,0.54031 0.89063,0.65313c0.39187,0.04156 0.665,0.06531 0.89063,0.06531c0.19,0 0.35031,-0.02375 0.52844,-0.0475v-0.02969c0,-0.17813 0.14844,-0.32656 0.32656,-0.32656h0.08906c0.17812,0 0.32656,0.1425 0.32656,0.32656v0.02375c0.08313,0.05344 0.11875,0.1425 0.095,0.29094z" data-paper-data="{&quot;origPos&quot;:null}" fill="#e29307"/><g data-paper-data="{&quot;origPos&quot;:null}"><path d="M231.11126,179.47189v0.13656c0,0.17812 -0.14844,0.32656 -0.32656,0.32656h-0.08906c-0.17812,0 -0.32656,-0.1425 -0.32656,-0.32656v-0.1425c0,-0.17813 0.14844,-0.32656 0.32656,-0.32656h0.08906c0.18406,0 0.3325,0.1425 0.32656,0.3325z" fill="#ffffff"/><path d="M231.11126,178.48033v0.1425c0,0.17812 -0.14844,0.32656 -0.32656,0.32656h-0.08906c-0.17812,0 -0.32656,-0.1425 -0.32656,-0.32656v-0.1425c0,-0.17812 0.14844,-0.32656 0.32656,-0.32656h0.08906c0.18406,0 0.3325,0.14844 0.32656,0.32656z" fill="#ffffff"/><path d="M227.76251,177.52439c0,0.02375 -0.01781,0.03562 -0.03563,0.03562c-0.02375,0 -0.03562,-0.01781 -0.03562,-0.03562c0,-0.02375 0.01781,-0.03563 0.03562,-0.03563c0.01188,0 0.03563,0.01188 0.03563,0.03563z" fill="#fbe945"/><path d="M227.9347,177.60158c0,0.01781 -0.01781,0.03563 -0.03562,0.03563c-0.01781,0 -0.03563,-0.01781 -0.03563,-0.03563c0,-0.01781 0.01781,-0.03563 0.03563,-0.03563c0.01781,0 0.03562,0.01188 0.03562,0.03563z" fill="#fbe945"/><path d="M231.21816,179.79252c0,0.13656 -0.02969,0.21375 -0.095,0.26125c-0.07125,0.0475 -0.16031,0.0475 -0.25531,0.0475c-0.02375,0 -0.03562,0 -0.05344,0c-0.02375,0 -0.03563,0 -0.05937,0h-1.21125c0.05344,0.25531 0.13062,0.53438 0.20781,0.58188c0.08313,0.04156 0.12469,0.11875 0.10688,0.20781c-0.01188,0.08313 -0.07719,0.14844 -0.15438,0.16625c-0.00594,0 -0.01188,0 -0.02969,0c-0.04156,0 -0.11281,-0.02375 -0.17813,-0.10687c-0.02375,0.23156 -0.08313,0.41562 -0.17812,0.46313c-0.19,0.095 -0.29094,0.02969 -0.38594,-0.02969c-0.03563,-0.01781 -0.07719,-0.0475 -0.12469,-0.06531c-0.05937,0.01781 -0.11281,0.02375 -0.16625,0.02375c-0.01781,0 -0.03562,0 -0.05344,0c-0.01781,0.00594 -0.02969,0.01781 -0.05344,0.03563c-0.07125,0.05344 -0.16625,0.11875 -0.29094,0.11875c-0.01188,0 -0.03563,-0.00594 -0.05937,-0.00594c-0.08906,-0.00594 -0.16625,-0.05937 -0.22563,-0.1425c-0.07125,-0.10094 -0.10094,-0.25531 -0.11875,-0.40969c-0.07125,0.11281 -0.15438,0.1425 -0.20781,0.1425c-0.00594,0 -0.02375,0 -0.02969,0c-0.07719,-0.01781 -0.13656,-0.08313 -0.15438,-0.16625c-0.01188,-0.08313 0.02969,-0.16031 0.10688,-0.20781c0.08313,-0.0475 0.16031,-0.33844 0.20781,-0.59969c-0.20187,-0.02375 -0.35625,-0.10687 -0.35625,-0.39781v-2.41656c0,-0.02969 0,-0.05937 0.00594,-0.08906c-0.11281,-0.02375 -0.15438,-0.08313 -0.17813,-0.13656c-0.0475,-0.11281 0.01188,-0.24938 0.08906,-0.31469c0.02969,-0.02969 0.06531,-0.03562 0.11281,-0.02969c0.08906,0.02375 0.16031,0.11875 0.20781,0.19594c0.11281,-0.0475 0.23156,-0.0475 0.29094,-0.0475c0.01781,0 0.02969,0 0.0475,0c0.00594,0 0.02375,0 0.02969,0c0.07719,0 0.13062,0.02969 0.18406,0.05937c0.06531,0.03563 0.1425,0.07125 0.285,0.06531c0.11281,0 0.20187,-0.02375 0.29688,-0.05344c0.13062,-0.04156 0.27906,-0.07719 0.52844,-0.07719v0c0.095,0 0.17219,0 0.27906,-0.00594c0.19,-0.01188 0.44531,-0.01781 0.97375,-0.01781c0.0475,-0.10688 0.15438,-0.18406 0.27906,-0.18406c0.12469,0 0.23156,0.08313 0.27906,0.19594c0.20781,0.02969 0.25531,0.21969 0.25531,0.51063v0.05937c0,0.665 0,1.03313 -0.49875,1.21125c-0.27312,0.095 -0.70062,0.15438 -1.10437,0.15438c-0.33844,0 -0.81344,-0.03562 -1.18156,-0.23156c-0.20781,-0.10094 -0.35625,-0.17812 -0.43938,-0.17812c-0.02969,0 -0.05937,0.00594 -0.07719,0.08313c-0.01781,0.07125 -0.01781,0.19 -0.01781,0.35625v0c0,0.19594 0,0.54031 0.89063,0.65313c0.39188,0.04156 0.665,0.06531 0.89063,0.06531c0.25531,0 0.43344,-0.02969 0.68281,-0.06531l0.0475,-0.00594c0.1425,-0.02375 0.24344,-0.02969 0.32656,-0.02969c0.24938,0 0.34437,0.10094 0.32656,0.35625zM230.7016,176.9722c0,0.08906 0.07125,0.15438 0.15438,0.15438c0.08906,0 0.15438,-0.07125 0.15438,-0.15438c0,-0.08906 -0.07125,-0.15438 -0.15438,-0.15438c-0.08313,0 -0.14844,0.07125 -0.15438,0.15438z" fill="#fbe945"/><g><path d="M228.26126,177.57189c0,0.16625 -0.13656,0.29688 -0.29688,0.29688c-0.16625,0 -0.29688,-0.13656 -0.29688,-0.29688c0,-0.16625 0.13656,-0.29688 0.29688,-0.29688c0.16031,0.00594 0.29688,0.13062 0.29688,0.29688z" fill="#ffffff"/><path d="M228.14251,177.51252c0,0.05937 -0.05344,0.11281 -0.11281,0.11281c-0.05937,0 -0.11281,-0.05344 -0.11281,-0.11281c0,-0.05937 0.05344,-0.11281 0.11281,-0.11281c0.05937,0 0.11281,0.05344 0.11281,0.11281z" fill="#000000"/></g></g></g></g></g></svg>