<svg xmlns="http://www.w3.org/2000/svg" xmlns:xlink="http://www.w3.org/1999/xlink" version="1.1" width="36.41148603924182" height="51.23298491009143" viewBox="0.46885710473821973 -0.20874286178781176 36.41148603924182 51.23298491009143">
  <!-- Exported by Scratch - http://scratch.mit.edu/ -->
  <g id="ID0.987751052249223">
    <path id="ID0.731122356839478" fill="#B2B2B2" stroke="none" d="M 11.5775 24.3741 L 16.0003 24.3741 L 16.0003 25.6084 L 11.5775 25.6084 L 11.5775 24.3741 Z " stroke-width="0.41142857395300325"/>
    <path id="ID0.2311339257284999" fill="#CCCC00" stroke="none" d="M 15.2803 10.077 L 18.5718 10.077 L 18.5718 13.1627 L 15.2803 13.1627 L 15.2803 10.077 Z " stroke-width="0.41142857395300325"/>
    <path id="ID0.7628679848276079" fill="#CCCC00" stroke="none" d="M 20.8346 9.8945 L 24.126 9.8945 L 24.126 13.1859 L 20.8346 13.1859 L 20.8346 9.8945 Z " stroke-width="0.41142857395300325"/>
    <path id="ID0.4044138016179204" fill="#FFFF00" stroke="#CCCC00" stroke-width="0.8228571479060065" d="M 1.086 2.877 L 6.4346 2.877 L 6.4346 27.357 L 1.086 27.357 L 1.086 2.877 Z "/>
    <path id="ID0.6064806166104972" fill="#FFFF00" stroke="#CCCC00" stroke-width="0.8228571479060065" d="M 30.2975 0.4084 L 36.2632 0.4084 L 36.2632 27.7684 L 30.2975 27.7684 L 30.2975 0.4084 Z "/>
    <path id="ID0.7370170108042657" fill="#FFFF00" stroke="#CCCC00" stroke-width="0.8228571479060065" d="M 8.6975 16.4541 L 15.6918 16.4541 L 15.6918 45.8713 L 8.6975 45.8713 L 8.6975 16.4541 Z "/>
    <path id="ID0.968620294239372" fill="#FFFF00" stroke="#CCCC00" stroke-width="0.8228571479060065" d="M 19.0013 27.3671 L 25.1728 27.3671 L 25.1728 50.4071 L 19.0013 50.4071 L 19.0013 27.3671 Z "/>
    <path id="ID0.16135278716683388" fill="#FFFF00" stroke="#CCCC00" stroke-width="0.8228571479060065" d="M 25.3603 18.5113 L 30.9146 18.5113 L 30.9146 44.8427 L 25.3603 44.8427 L 25.3603 18.5113 Z "/>
    <path id="ID0.1638021022081375" fill="#FFFF00" stroke="#CCCC00" stroke-width="0.7016416570983426" d="M 16.9962 1.0316 L 22.8189 1.0316 L 22.8189 34.9745 L 16.9962 34.9745 L 16.9962 1.0316 Z "/>
    <path id="ID0.7304020249284804" fill="#FFFF00" stroke="#CCCC00" stroke-width="1.2342857218590098" d="M 12.606 6.3741 L 26.1832 6.3741 L 26.1832 19.9513 L 12.606 19.9513 L 12.606 6.3741 Z "/>
    <path id="ID0.5371130155399442" fill="#CCCC00" stroke="none" d="M 14.6632 9.2541 L 19.1889 9.2541 L 19.1889 12.5455 L 14.6632 12.5455 L 14.6632 9.2541 Z " stroke-width="0.41142857395300325"/>
    <path id="ID0.5371130155399442" fill="#CCCC00" stroke="none" d="M 20.0279 9.2541 L 24.5536 9.2541 L 24.5536 12.5455 L 20.0279 12.5455 L 20.0279 9.2541 Z " stroke-width="0.41142857395300325"/>
  </g>
</svg>