<svg version="1.1" xmlns="http://www.w3.org/2000/svg" xmlns:xlink="http://www.w3.org/1999/xlink" width="284.05272" height="228.05774" viewBox="0,0,284.05272,228.05774"><g transform="translate(-99.51937,-56.73942)"><g data-paper-data="{&quot;isPaintingLayer&quot;:true}" fill="#ff0000" fill-rule="nonzero" stroke="none" stroke-width="0.5" stroke-linecap="butt" stroke-linejoin="miter" stroke-miterlimit="10" stroke-dasharray="" stroke-dashoffset="0" font-family="none" font-weight="none" font-size="none" text-anchor="none" style="mix-blend-mode: normal"><path d="M100.3542,133.1147c-1.81753,-1.71656 -0.10097,-3.53409 -0.10097,-3.53409l1.31961,-1.285c6.97074,-5.21675 13.94148,-10.43349 20.91222,-15.65024c3.0646,-2.29348 6.81582,-4.41242 9.56032,-7.05823c2.91606,-2.81121 5.30411,-6.57154 7.85092,-9.72692c4.63882,-5.74728 9.63718,-11.34339 13.98699,-17.31002c4.96355,-6.80849 8.96001,-14.22066 14.23529,-20.81477c0,0 1.56174,-1.95217 3.51391,-0.39043c1.95217,1.56174 0.39043,3.51391 0.39043,3.51391c-5.17569,6.46961 -9.08856,13.75328 -13.95953,20.43478c-4.44846,6.10195 -9.53304,11.8302 -14.27633,17.7069c-2.54681,3.15538 -4.93486,6.91572 -7.85092,9.72692c-3.08122,2.97042 -7.02948,5.3572 -10.45525,7.92098c-6.97074,5.21675 -13.94148,10.43349 -20.91222,15.65024l-0.68039,0.715c0,0 -1.71656,1.81753 -3.53409,0.10097z"/><path d="M229.07076,284.79716c-2.5,0 -2.5,-2.5 -2.5,-2.5c0,-3.16667 0,-8.33333 0,-11.5c0,-17.66667 0,-35.33333 0,-53c0,-18.33333 0,-36.66667 0,-55c0,-4.28398 0,-8.56796 0,-12.85194c-7.31671,0.15791 -14.63342,0.31583 -21.95013,0.47374c-7.77546,0.16782 -15.45616,0.07026 -23.13541,1.32038c-14.8613,2.41928 -30.42611,3.60719 -44.53665,8.89864c0,0 -2.34082,0.87781 -3.21863,-1.46301c-0.87781,-2.34082 1.46301,-3.21863 1.46301,-3.21863c14.4339,-5.41271 30.29625,-6.67881 45.48889,-9.15203c7.91076,-1.2878 15.82475,-1.21138 23.8309,-1.38417c7.35267,-0.15869 14.70535,-0.31738 22.05802,-0.47607c0,-12.3823 0,-24.7646 0,-37.1469c0,-3.47377 0,-6.94754 0,-10.42131c-9.31557,0.3409 -18.62978,0.76862 -27.93515,1.09705c-8.32815,0.29393 -16.6563,0.58787 -24.98444,0.8818c-3.76823,0.133 -8.09521,-0.31744 -11.78983,0.31417c-1.41713,0.24226 -2.87049,0.71518 -4.31368,1.24758l0.0571,0.17129l-4.68806,1.56269c-0.2642,0.09499 -0.54902,0.14675 -0.84593,0.14675c-0.03207,0 -0.064,-0.0006 -0.09578,-0.0018c-0.74132,-0.00022 -1.75369,-0.27214 -2.24213,-1.61075c-0.02393,-0.063 -0.04538,-0.12722 -0.06424,-0.19254c-0.41351,-1.36449 0.23268,-2.18992 0.82566,-2.63529c0.03331,-0.02709 0.06733,-0.05335 0.10202,-0.07873l2.87475,-2.1514l0.58199,0.77767c2.05791,-0.7948 4.1781,-1.62346 6.22716,-1.97887c4.23485,-0.73454 8.90147,-0.41612 13.19461,-0.56764c8.32815,-0.29393 16.6563,-0.58787 24.98444,-0.8818c9.36418,-0.3305 18.73717,-0.76064 28.11151,-1.10257c0,-10.69209 0,-21.38418 0,-32.07628c0,0 0,-2.5 2.5,-2.5c2.5,0 2.5,2.5 2.5,2.5c0,10.63444 0,21.26888 0,31.90332c7.31683,-0.23777 14.63368,-0.40146 21.947,-0.40177c11.50882,-0.00049 23.01763,-0.00098 34.52645,-0.00146l2.02645,-0.00009c0,0 2.38915,-0.10623 2.49775,2.39141c0.10859,2.49764 -2.49753,2.60859 -2.49753,2.60859c-11.50882,0.00049 -25.04408,0.00106 -36.55289,0.00155c-7.31333,0.00031 -14.63028,0.16489 -21.94721,0.40357c0,3.53163 0,7.06325 0,10.59488c0,12.34633 0,24.69266 0,37.03899c0.97833,-0.02112 1.95666,-0.04223 2.935,-0.06335c18.32906,-0.39559 36.65813,-0.79118 54.98719,-1.18677c18.02959,-0.38913 36.04375,-0.78887 54.07781,-0.78887c11.66667,0 23.33333,0 35,0h2.5c0,0 2.36402,-0.12895 2.49649,2.36753c0.13247,2.49649 -2.49649,2.63247 -2.49649,2.63247c-11.66667,0 -25.83333,0 -37.5,0c-17.99808,0 -35.97628,0.39935 -53.96992,0.7877c-18.32906,0.39559 -36.65813,0.79118 -54.98719,1.18677c-1.0143,0.02189 -2.02859,0.04378 -3.04289,0.06567c0,4.31995 0,8.6399 0,12.95985c0,18.33333 0,36.66667 0,55c0,17.66667 0,35.33333 0,53c0,3.16667 0,6.33333 0,9.5v2c0,0 0,2.5 -2.5,2.5z"/></g></g></svg>