<svg version="1.1" xmlns="http://www.w3.org/2000/svg" xmlns:xlink="http://www.w3.org/1999/xlink" width="74.80976" height="55.29996" viewBox="0,0,74.80976,55.29996"><defs><radialGradient cx="242.35205" cy="180.5754" r="30.3376" gradientUnits="userSpaceOnUse" id="color-1"><stop offset="0" stop-color="#dcffff"/><stop offset="1" stop-color="#b0e8e0"/></radialGradient></defs><g transform="translate(-202.15591,-156.0961)"><g data-paper-data="{&quot;isPaintingLayer&quot;:true}" fill="none" fill-rule="nonzero" stroke="none" stroke-width="none" stroke-linecap="none" stroke-linejoin="miter" stroke-miterlimit="10" stroke-dasharray="" stroke-dashoffset="0" font-family="none" font-weight="none" font-size="none" text-anchor="none" style="mix-blend-mode: normal"><path d="M220.05195,157.2387h41.9648v41.9648h-41.9648z" data-paper-data="{&quot;origPos&quot;:null}" id="ID0.6338139399886131" fill="url(#color-1)" stroke="#aed1d0" stroke-width="2.28521" stroke-linecap="butt"/><path d="M221.28624,198.36991v-18.3596h39.51685v18.3596z" data-paper-data="{&quot;origPos&quot;:null}" fill="#aff4ff" stroke="#6bffff" stroke-width="2.28521" stroke-linecap="butt"/><path d="M226.0664,166.2072h12.0597v12.0597h-12.0597z" id="ID0.42519977083429694" fill="#aed1d0" stroke="none" stroke-width="0.24612" stroke-linecap="butt"/><path d="M243.8164,166.3572h12.0597v12.0597h-12.0597z" data-paper-data="{&quot;origPos&quot;:null}" id="ID0.42519977083429694" fill="#aed1d0" stroke="none" stroke-width="0.24612" stroke-linecap="butt"/><path d="M251.36101,185.25591h-21.68181" fill="none" stroke="#6bffff" stroke-width="2.28521" stroke-linecap="round"/><path d="M229.15464,190.67636h22.20637" fill="none" stroke="#6bffff" stroke-width="2.28521" stroke-linecap="round"/><path d="M218.81986,188.77503c0,0 -1.77118,-6.02542 -4.28392,-10.13596c-3.22809,-5.28075 -10.42625,-13.92805 -10.42625,-13.92805l7.30965,-2.39994l8.51424,12.47959l14.63899,30.51074z" data-paper-data="{&quot;origPos&quot;:null,&quot;origRot&quot;:0}" fill="#00deff" stroke="#15a3a3" stroke-width="2.28521" stroke-linecap="butt"/><path d="M244.54902,205.38442l14.63899,-30.51075l8.51424,-12.47959l7.30965,2.39994c0,0 -7.19816,8.6473 -10.42625,13.92806c-2.51274,4.11054 -4.28393,10.13596 -4.28393,10.13596z" data-paper-data="{&quot;origPos&quot;:null,&quot;origRot&quot;:0,&quot;index&quot;:null}" fill="#00deff" stroke="#15a3a3" stroke-width="2.28521" stroke-linecap="butt"/></g></g></svg>