<svg version="1.1" xmlns="http://www.w3.org/2000/svg" xmlns:xlink="http://www.w3.org/1999/xlink" width="38.36319" height="17.36426" viewBox="0,0,38.36319,17.36426"><defs><linearGradient x1="231.33861" y1="188.06834" x2="249.55507" y2="172.08894" gradientUnits="userSpaceOnUse" id="color-1"><stop offset="0" stop-color="#92539d"/><stop offset="0.1182" stop-color="#926fb0"/><stop offset="0.197" stop-color="#9281bd"/><stop offset="0.2463" stop-color="#928cc5"/><stop offset="0.3202" stop-color="#929dd1"/><stop offset="0.5188" stop-color="#91ccf0"/><stop offset="0.67" stop-color="#89bae5"/><stop offset="0.7882" stop-color="#6e80c0"/><stop offset="1" stop-color="#524499"/></linearGradient><linearGradient x1="233.17866" y1="188.59568" x2="246.50023" y2="176.91006" gradientUnits="userSpaceOnUse" id="color-2"><stop offset="0" stop-color="#50007f"/><stop offset="0.09852" stop-color="#5800aa"/><stop offset="0.1034" stop-color="#541ea8"/><stop offset="0.1773" stop-color="#5423a9"/><stop offset="0.4581" stop-color="#e0bfff"/><stop offset="0.5419" stop-color="#d1aaff"/><stop offset="0.7291" stop-color="#ceb6f6"/><stop offset="1" stop-color="#5379bc"/><stop offset="1" stop-color="#c83fff"/></linearGradient><linearGradient x1="243.29422" y1="178.35111" x2="233.13655" y2="177.53147" gradientUnits="userSpaceOnUse" id="color-3"><stop offset="0" stop-color="#450f5e"/><stop offset="0.2759" stop-color="#66309d"/><stop offset="0.5067" stop-color="#5379bc"/><stop offset="1" stop-color="#7f5ca5"/></linearGradient></defs><g transform="translate(-220.81841,-171.31787)"><g data-paper-data="{&quot;isPaintingLayer&quot;:true}" fill-rule="nonzero" stroke="none" stroke-width="1" stroke-linecap="butt" stroke-linejoin="miter" stroke-miterlimit="10" stroke-dasharray="" stroke-dashoffset="0" style="mix-blend-mode: normal"><path d="M231.32827,188.05091c0,0 -7.099,-3.98942 -9.04779,-6.03879c-1.94879,-2.04936 -2.6042,-1.69923 2.24985,-5.88658c4.88069,-4.19483 7.45654,-4.68937 8.21326,-4.7356c0.75672,-0.04624 9.54233,-0.08208 12.16157,-0.06953c2.56594,0.02753 4.16936,0.22135 6.24994,1.69368c2.05793,1.43715 4.37717,3.96412 5.73296,5.14139c1.38243,1.16979 4.10118,2.75377 0.51508,4.75738c-3.5861,2.00361 -5.38692,4.33692 -10.7631,5.36825c-5.41414,1.02121 -15.31176,-0.23018 -15.31176,-0.23018z" fill="url(#color-1)"/><path d="M231.89514,187.9541c0,0 -5.20251,-3.87786 -4.63258,-5.53333c0.56992,-1.65549 4.51808,-5.58856 8.92245,-6.07708c1.11441,-0.12587 2.19821,-0.2016 3.26268,-0.20959c0.10258,0.01275 -3.48609,2.59865 -3.38351,2.61141c0.05328,-0.01496 -0.32484,1.25437 -0.30078,1.82919c-0.01339,-0.41166 0.45139,-1.49759 0.75308,-1.81076c0.98169,-1.06486 3.70657,-2.59824 3.73322,-2.60572c3.08287,0.0486 5.79543,0.45037 6.77742,1.04712c1.38769,0.83597 6.49224,4.51284 6.76474,4.78946c0.26116,0.25903 -3.61823,4.98287 -7.40774,5.69346c-3.78951,0.71057 -14.489,0.26586 -14.489,0.26586z" fill="url(#color-2)"/><path d="M221.55874,180.15839c0,0 4.75993,-5.26181 8.11965,-6.78644c-2.37772,2.12138 -2.86088,4.79105 -3.62465,6.43865c-0.43015,0.99312 -1.33269,1.35032 -2.05543,1.44932c-1.34032,-0.37154 -2.43957,-1.10154 -2.43957,-1.10154z" fill="#8d72c1"/><path d="M225.97103,183.05331c0,0 0.73976,2.07717 3.59844,3.8296c0,0 -6.78327,-4.0365 -7.57425,-5.70465c0.00399,-0.04266 1.30777,0.85841 3.9758,1.87505z" fill="#694bb2"/><path d="M250.34986,173.71782c1.47817,0.14591 3.76643,4.53019 5.72369,5.51786c1.94594,0.97008 2.52221,1.32759 1.9381,1.8862c-0.5841,0.5586 -3.64624,0.98193 -3.87279,0.63011c-0.22655,-0.35183 -1.89344,-1.67025 -2.41243,-2.0854c-0.49633,-0.37996 -2.3335,-0.15508 -1.91787,-0.4379c0.41561,-0.28284 3.54315,-0.0183 3.54315,-0.0183l-3.51266,-0.86264c0.33761,-0.69713 -2.07866,-1.90905 -2.07866,-1.90905c0.12081,-2.40181 1.11129,-2.86676 2.58944,-2.72086z" fill="#674d99"/><path d="M229.6404,173.36183c0.31238,-0.14999 0.63212,-0.23974 0.92521,-0.32202c3.32985,-0.78927 1.93569,3.29931 1.93569,3.29931c-3.77931,1.85013 -6.41664,5.08293 -6.41664,5.08293c-0.67344,0.12672 -1.41819,0.04496 -2.08636,-0.16213c0.72273,-0.099 1.62529,-0.4562 2.05543,-1.44932c0.78642,-1.61241 1.27356,-4.32475 3.58666,-6.44876z" fill="#6d58af"/><path d="M233.28871,172.77396c-0.79291,-1.2314 2.51572,-1.51622 5.62139,-0.60164c3.05238,0.92953 6.84459,0.46744 8.80107,0.76988c1.98313,0.29497 -0.51521,2.18017 -1.98462,2.63418c-0.79932,0.22437 -2.48331,0.19854 -4.18596,0.09488c-0.07594,-0.02023 -2.40914,1.4863 -4.80361,3.09312c-0.05727,0.05762 -0.10323,0.13282 -0.14918,0.20805c-0.40223,0.69449 -0.73122,1.16071 -0.76377,1.64759c-0.01147,-0.84839 0.57854,-1.88639 0.63183,-1.90135c2.90996,-2.12538 5.96448,-4.27056 5.86524,-4.1804c-2.12803,1.53202 -4.01462,0.8984 -4.80532,0.89185c-2.06035,-0.02404 -2.08109,-0.49596 -2.08109,-0.49596c0,0 -1.35308,-0.92878 -2.14598,-2.16018z" fill="#674d99"/><path d="M250.31419,187.00053c0,0 3.77582,-2.78384 4.38642,-4.18072c0,0 1.81514,-0.40564 2.74433,-0.77031c0.02664,-0.00748 -2.51956,2.38968 -7.13076,4.95104z" fill="#6f5eb5"/><g><path d="M233.55275,181.88064c0.12652,-0.24323 0.28703,-0.43367 0.53481,-0.5863c0.44225,-0.29031 1.02843,-0.45484 1.8078,-0.4659c0.76405,0.01402 1.3183,0.19078 1.70472,0.49774v0c0.19321,0.15347 0.32913,0.36457 0.41177,0.59063v0v0l0.47895,0.01097l0.15523,0.14337l-0.34032,0.44863l0.66418,0.24976c0.00735,0.06026 -0.01197,0.12799 -0.00464,0.18824l-0.15587,0.00222l0.00399,-0.04266l-0.70615,-0.21721c-0.00797,0.08533 -0.00464,0.18824 -0.01261,0.27356c-0.00464,0.18824 0.00206,0.39408 -0.00256,0.58231l0.88196,0.00169c0.00399,-0.04266 -0.01467,-0.1205 -0.02202,-0.18076c-0.01133,-0.01759 -0.03399,-0.05277 -0.01867,-0.07785c0.00399,-0.04266 -0.00735,-0.06026 -0.00336,-0.10291l0.06255,-0.39143l-0.07594,-0.02023c0.01532,-0.02507 0.00399,-0.04266 0.01931,-0.06773c0.00128,-0.29116 0.10117,-0.5269 0.20104,-0.76265c0.09988,-0.23574 0.26039,-0.42621 0.43222,-0.59906v0c0.4429,-0.43588 1.14363,-0.71566 2.08686,-0.81424l0.1179,-0.01232c0.14454,-0.0198 0.26245,-0.03213 0.41832,-0.03435c1.26966,0.0175 2.09704,0.3253 2.52413,0.89087v0c0.13993,0.16844 0.22655,0.35183 0.28254,0.58537c0.04866,0.17328 0.08599,0.32897 0.09269,0.5348c0.03334,0.19835 -0.02059,0.35889 -0.05919,0.49435c-0.07721,0.27093 -0.30235,0.45873 -0.59942,0.58368l1.14043,0.01224l-1.14043,-0.01224c-0.32372,0.1324 -0.70806,0.21952 -1.2896,0.19581l-0.10258,-0.01275l-0.01133,-0.01759l-0.97322,0.00315v0l-3.03357,-0.02088c0.00399,-0.04266 -0.01467,-0.1205 -0.03334,-0.19835l-0.88196,-0.00169c0.01867,0.07785 -0.00065,0.14558 0.0067,0.20584l-4.80882,-0.04186c-0.00735,-0.06026 0.00065,-0.14558 -0.0067,-0.20584c-0.02202,-0.18076 -0.05935,-0.33645 -0.05472,-0.52468c0.01532,-0.02507 0.00399,-0.04266 0.01931,-0.06773c0.02458,-0.40154 0.12111,-0.74021 0.28959,-1.01597z" fill="none"/><path d="M246.20823,183.60418v0v0l-0.05414,2.79851c-0.07594,-0.02023 -0.14055,-0.02287 -0.2165,-0.04308l-0.08391,0.06509l-0.02664,0.00748l-0.53302,-0.68123l-0.5182,0.27009v0c-0.2918,-0.20889 -0.69815,-0.30253 -1.24572,-0.27347l-1.73727,-0.01086l-0.58901,-0.91476l-1.01248,0.28419l-1.79519,0.19233l-0.05122,0.40902l-2.02239,-0.01393l0.24777,-0.15263l0.77601,-0.11397l0.43699,0.0435l0.46157,-0.35804l-0.48023,0.28019l-0.43699,-0.0435l-0.90526,0.1087l-0.52554,0.20983l-0.44098,-0.00085c-0.2851,-0.00306 -0.55888,0.01148 -0.76805,0.02864l-0.54899,-0.51058l0.48821,-0.36552l0.66945,-0.08406l0.29373,-0.22784l-0.32771,0.17507l-0.6921,0.04887l-0.52618,0.3554l-0.33311,-0.32191c0,0 -0.49156,0.2626 -0.99844,0.55028l-0.10258,-0.01275c-0.06875,-0.79078 -0.07751,-1.39067 -0.10224,-1.81991l0.88196,0.00169c-0.01931,0.06773 -0.00065,0.14558 0.0067,0.20584l4.80882,0.04186c-0.01867,-0.07785 0.00065,-0.14558 -0.0067,-0.20584l0.88196,0.00169c0.01867,0.07785 0.01068,0.16317 0.03334,0.19835l3.03357,0.02088l1.20583,0.70008l0.88724,-0.33212l0.50432,0.29464l0.5648,-0.49086l-0.53752,0.33782l-0.55361,-0.32234l-0.788,0.24195l-0.33647,-0.42483l0.10258,0.01275c0.54357,0.01359 0.96588,-0.06341 1.2896,-0.19581l1.14043,0.01224z" fill="#1d1460"/><path d="M236.33605,179.1677l1.17105,-0.03792c0.46634,0.28452 0.79882,0.75202 0.95947,1.39236l0.09126,-0.00484c0.20773,-0.55681 0.51008,-1.01556 0.91836,-1.35864c0.1972,0.11082 0.45502,0.26692 0.47033,0.24185c0.01532,-0.02507 0.08521,-0.35626 0.1511,-0.64476c0.27441,-0.16011 0.58283,-0.26744 0.94052,-0.34709l1.14775,0.07249l0.19784,-0.03475c0.28447,0.14863 0.64088,0.36016 0.65221,0.37774c-0.00399,0.04266 1.07117,0.19784 1.07117,0.19784l0.04004,0.40418l0.30584,0.47497l-0.21059,-0.52248l0.0359,-0.38395l-1.18111,-0.27083l-0.44704,-0.35225l0.22449,-0.04223c1.91851,0.29233 3.01648,1.31348 3.25592,3.05337v0l-1.36091,-0.01264v0v0c-0.42708,-0.56557 -1.25447,-0.87336 -2.52413,-0.89087c-0.14454,0.0198 -0.30042,0.02202 -0.41832,0.03435l0.05328,-0.01496l-0.69815,-0.30253l-0.5943,-0.58095l-0.08599,-0.32897l0.00206,0.39408l0.58296,0.56335l0.46634,0.28452l0.17119,-0.02729c-0.95456,0.081 -1.64395,0.37837 -2.08686,0.81424v0v0l-2.02239,-0.01393v0v0c-0.38641,-0.30696 -0.92933,-0.46613 -1.70472,-0.49774c-0.77937,0.01105 -1.36554,0.17558 -1.8078,0.4659l-1.47881,-0.00032c0.20104,-0.76265 0.50402,-1.36697 0.99622,-1.77515l1.86508,-0.52352z" fill="#1d1460"/><path d="M233.27449,182.91422l-0.85531,-0.00918c0.02059,-0.35889 0.01452,-0.71029 0.0691,-1.01641l0.02664,-0.00748v0l1.03783,-0.00053c-0.16849,0.27577 -0.26501,0.61443 -0.27826,1.03357z" fill="#1d1460"/><path d="M244.99891,181.97038l1.14043,0.01224l-0.00449,1.01904l-1.0758,-0.00959c0.05393,-0.16053 0.08122,-0.31359 0.05919,-0.49435c0.01994,-0.21332 -0.04402,-0.36152 -0.11933,-0.52732z" fill="#1d1460"/><path d="M233.28724,183.47145l-0.88196,-0.00169v0v0c-0.01467,-0.1205 -0.00271,-0.24849 -0.00605,-0.3514c-0.01867,-0.07785 0.00065,-0.14558 0.00862,-0.2309v0l0.85531,0.00918c-0.01532,0.02507 -0.00399,0.04266 -0.01931,0.06773c-0.00464,0.18824 0.00605,0.3514 0.04338,0.5071z" fill="#1d1460"/><path d="M245.05905,182.99206l1.0758,0.00959l-0.00256,0.58231l-0.50559,-0.00348l-1.14043,-0.01224c0.29707,-0.12494 0.5222,-0.31275 0.57277,-0.57619z" fill="#1d1460"/><path d="M246.13228,183.58396v0l-0.50559,-0.00348z" fill="#1d1460"/><path d="M246.0926,181.3726v0l1.60804,0.00558l-0.00256,0.58231l-1.54344,-0.00297l-0.01133,-0.01759c0.00464,-0.18824 -0.0287,-0.3866 -0.05073,-0.56736z" fill="#1d1460"/><path d="M246.0926,181.3726z" fill="#1d1460"/><path d="M246.14332,181.93995l0.01133,0.01759l-1.14043,-0.01224c-0.04467,-0.21593 -0.14262,-0.41693 -0.28254,-0.58537l1.36091,0.01264c0.03334,0.19835 0.05536,0.37911 0.05073,0.56736z" fill="#1d1460"/><path d="M244.82231,181.50068l1.36091,0.01264v0z" fill="#1d1460"/><path d="M232.48827,181.88863c0.04659,-0.22079 0.08919,-0.39891 0.12047,-0.59463l1.47881,0.00032c-0.22113,0.14515 -0.39695,0.36068 -0.53481,0.5863z" fill="#1d1460"/><path d="M235.74163,185.5243v0l0.38769,0.01581z" fill="#0b082d"/><path d="M236.48302,185.50314l-0.24777,0.15263l-0.41433,-0.00833l0.52554,-0.20983l0.90526,-0.1087l0.46363,0.03604l0.46889,-0.29778l-0.48821,0.36552l-0.42567,-0.02591z" fill="#0b082d"/><path d="M241.69797,180.50827l0.1179,-0.01232c-0.05328,0.01496 -0.09126,0.00484 -0.1179,0.01232z" fill="#0b082d"/><path d="M241.80456,180.47835c-0.02664,0.00748 -0.09126,0.00484 -0.1179,0.01232l-0.17119,0.02729l-0.46634,-0.28452l-0.58296,-0.56335l-0.00206,-0.39408l0.08599,0.32897l0.5943,0.58095l0.69815,0.30253z" fill="#0b082d"/><path d="M232.49954,185.37501v0l0.00797,-0.08533v0c0.01133,0.01759 0.00735,0.06026 -0.00797,0.08533z" fill="#0b082d"/><path d="M232.52618,185.36754c-0.01133,-0.01759 -0.00735,-0.06026 -0.01867,-0.07785l0.10258,0.01275c-0.01532,0.02507 -0.0686,0.04003 -0.08391,0.06509z" fill="#0b082d"/><path d="M234.0629,185.16467l-0.08328,-0.08049l0.49954,-0.34793l0.71874,-0.05635l0.30106,-0.1676l-0.26708,0.22037l-0.69609,0.09154z" fill="#0b082d"/><path d="M243.05611,183.7412l0.01133,0.01759l-0.98454,-0.01444v0z" fill="#0b082d"/><path d="M242.08289,183.74436l0.98454,0.01444l0.33647,0.42483l0.788,-0.24195l0.52697,0.32982l0.56416,-0.34529l-0.59145,0.49834l-0.50432,-0.29464l-0.88724,0.33212z" fill="#0b082d"/><path d="M238.80938,182.95999l-0.69945,-0.01137c0.00797,-0.08533 0.00464,-0.18824 0.01261,-0.27356l0.70615,0.21721z" fill="#1d1460"/><path d="M238.01184,181.91682z" fill="#1d1460"/><path d="M238.54408,181.91282l0.66147,0.00127c-0.09988,0.23574 -0.19977,0.4715 -0.20104,0.76265c-0.01532,0.02507 -0.03063,0.05014 -0.01931,0.06773l-0.66418,-0.24976l0.34032,-0.44863z" fill="#1d1460"/><path d="M238.76216,183.32635l0.2205,0.00043c0.00735,0.06026 0.01467,0.1205 0.02202,0.18076l-0.88196,-0.00169c0.00464,-0.18824 -0.00206,-0.39408 0.00256,-0.58231l0.69945,0.01137z" fill="#1d1460"/><path d="M238.97196,183.16361c-0.00399,0.04265 0.00735,0.06024 0.00336,0.10291z" fill="#1d1460"/><path d="M237.58874,181.3086l2.02239,0.01393c-0.19847,0.18033 -0.33233,0.3633 -0.43222,0.59906l-0.66147,-0.00127l-0.43172,-0.37732l-0.07388,0.37384v0c-0.09397,-0.24365 -0.21857,-0.43715 -0.42309,-0.60822z" fill="#1d1460"/><path d="M239.66377,181.45313v0l-1.99575,-0.0214z" fill="#1d1460"/><path d="M238.95393,182.94018c-0.00735,-0.06026 0.01197,-0.12799 0.00464,-0.18824l0.07594,0.02023l-0.06255,0.39143c0.01931,-0.06773 0.00065,-0.14558 -0.01802,-0.22342z" fill="#0b082d"/><path d="M238.95393,182.94018c0.01867,0.07785 0.01068,0.16317 0.01802,0.22342l-0.03462,0.09281l0.02664,-0.00748c0.02265,0.03517 0.00735,0.06026 0.01867,0.07785l-0.2205,-0.00043l0.06255,-0.39143z" fill="#0b082d"/><path d="M238.07439,181.52538l0.43172,0.37732l-0.49427,0.01411z" fill="#0b082d"/><path d="M246.15017,182.97659l0.76405,0.01402c-0.00399,0.04266 0.00336,0.10291 -0.00065,0.14558l0.11391,0.03034l0.30983,0.43231l-1.20504,-0.01486z" fill="#1d1460"/><path d="M247.67571,183.58692z" fill="#1d1460"/><path d="M247.85089,183.51698l-0.17519,0.06995l-0.0067,-0.20584l0.18651,-0.05236c0.00735,0.06026 -0.01197,0.12799 -0.00464,0.18824z" fill="#0b082d"/><path d="M247.14604,183.00862l-0.25846,-0.01053c-0.01133,-0.01759 0.00399,-0.04266 -0.00735,-0.06026z" fill="#0b082d"/><path d="M247.38263,183.66919l-0.04531,-0.07037l0.31176,-0.00442z" fill="#0b082d"/><path d="M232.47695,181.87104v0l-1.51678,-0.01045c0.0686,-0.04003 0.11057,-0.07258 0.15252,-0.10513l-0.33041,-0.07343l0.16912,-0.42134l1.67266,0.00823c-0.05792,0.20319 -0.12716,0.3888 -0.14711,0.6021z" fill="#1d1460"/><path d="M232.39765,181.74791z" fill="#1d1460"/><path d="M232.50359,181.86357c-0.0067,-0.20584 0.06255,-0.39143 0.12047,-0.59463c-0.05792,0.20319 -0.10052,0.38133 -0.12047,0.59463z" fill="#1d1460"/><path d="M230.62574,181.82985l0.32308,0.01317c-0.01532,0.02507 -0.01532,0.02507 -0.05727,0.05762v0z" fill="#0b082d"/><path d="M230.9021,181.23301l0.01133,0.01759l-0.31176,0.00442l-0.03399,-0.05277c0.09524,-0.04751 0.15252,-0.10513 0.2098,-0.16275z" fill="#0b082d"/><path d="M232.39922,183.11836c0.00336,0.10291 0.01802,0.22342 0.00605,0.3514l-1.20504,-0.01486l0.18651,-0.05236l-0.01133,-0.01759c-0.00735,-0.06026 0.01197,-0.12799 0.00464,-0.18824l-0.31973,0.08975l-0.28718,-0.39712l-0.07594,-0.02023l1.71063,0.01834v0c-0.00797,0.08533 -0.02729,0.15306 -0.00862,0.2309z" fill="#1d1460"/><path d="M232.40527,183.46976v0c-0.01467,-0.1205 -0.00271,-0.24849 -0.00605,-0.3514c-0.01867,-0.07785 0.00065,-0.14558 0.00862,-0.2309c0.01867,0.07785 -0.00065,0.14558 -0.00862,0.2309c0.00336,0.10291 -0.00862,0.2309 0.00605,0.3514z" fill="#1d1460"/><path d="M241.98536,178.26741c0.02664,-0.00748 0.02664,-0.00748 0,0c0.02664,-0.00748 0,0 0,0z" fill="#0b082d"/><path d="M242.49095,178.27089c-0.02664,0.00748 -0.02664,0.00748 -0.03797,-0.01011z" fill="#0b082d"/><path d="M242.33443,178.41867l0.27777,-0.0572l0.44704,0.35225l1.18111,0.27083l-0.0359,0.38395l0.21059,0.52248l-0.30584,-0.47497l-0.04004,-0.40418c0,0 -1.07517,-0.15517 -1.07117,-0.19784c0.00399,-0.04266 -0.36775,-0.22911 -0.66354,-0.39534z" fill="#0b082d"/><path d="M237.44647,179.08448l0.24714,-0.00705l1.53609,-0.05728c0,0 0.08727,0.03782 0.1972,0.11082c-0.40828,0.34308 -0.71062,0.80183 -0.91836,1.35864l-0.09126,0.00484c-0.16065,-0.64035 -0.4818,-1.09025 -0.97079,-1.40994z" fill="none"/><path d="M240.04832,178.72805c0.04659,-0.22079 0.08919,-0.39891 0.08919,-0.39891l0.86266,0.06942c-0.35769,0.07964 -0.6661,0.18698 -0.95185,0.32948z" fill="none"/><path d="M235.92364,178.72263c0.63482,0.00875 1.12845,0.14022 1.5455,0.39704l-1.17105,0.03792l-0.80139,-0.16971l-1.86508,0.52352c0.12588,-0.09765 0.22511,-0.18782 0.36233,-0.26787c0.61744,-0.36026 1.25689,-0.53975 1.9297,-0.52088z" fill="#1d1460"/><path d="M242.43766,178.28585l-0.42567,-0.02591c0.06462,0.00264 0.09126,-0.00484 0.15587,-0.00222c0.09126,-0.00484 0.19384,0.0079 0.26979,0.02813z" fill="#1d1460"/><path d="M242.43766,178.28585l-0.42567,-0.02591c0.06462,0.00264 0.09126,-0.00484 0.15587,-0.00222c0.09126,-0.00484 0.19384,0.0079 0.26979,0.02813z" fill="url(#color-3)"/><path d="M242.6122,178.36148l-0.12126,-0.09059c0.10258,0.01275 0.24314,0.03561 0.34573,0.04836z" fill="#1d1460"/></g><path d="M245.85066,176.74626c0.96189,-0.02074 3.52684,1.95953 3.52684,1.95953l-11.99534,9.80602l-5.95196,-0.30258c1.25355,-0.64265 14.42044,-11.46297 14.42044,-11.46297z" fill="#ffffff" opacity="0.2"/></g></g></svg>