<svg version="1.1" xmlns="http://www.w3.org/2000/svg" xmlns:xlink="http://www.w3.org/1999/xlink" width="46.30095" height="70.69538" viewBox="0,0,46.30095,70.69538"><defs><radialGradient cx="243.6852" cy="195.55841" r="13.66006" gradientUnits="userSpaceOnUse" id="color-1"><stop offset="0" stop-color="#ffffff"/><stop offset="1" stop-color="#f4ff99"/></radialGradient></defs><g transform="translate(-219.89235,-143.89953)"><g data-paper-data="{&quot;isPaintingLayer&quot;:true}" fill="none" fill-rule="nonzero" stroke="none" stroke-width="none" stroke-linecap="butt" stroke-linejoin="miter" stroke-miterlimit="10" stroke-dasharray="" stroke-dashoffset="0" font-family="none" font-weight="none" font-size="none" text-anchor="none" style="mix-blend-mode: normal"><g><path d="M243.74111,144.28235c2.17061,1.24035 0.93026,3.41096 0.93026,3.41096l-1.45232,1.39547c-0.98073,1.96146 -1.89303,3.92208 -2.75695,5.9379c0,0 -0.9848,2.29786 -3.28266,1.31306c-2.29786,-0.9848 -1.31306,-3.28266 -1.31306,-3.28266c0.90202,-2.10471 1.85636,-4.15602 2.88054,-6.20437l1.58324,-1.6401c0,0 1.24035,-2.17061 3.41096,-0.93026z" fill="#c18c00" stroke="none" stroke-width="0.5"/><path d="M265.0507,197.19032c0,11.73549 -9.0182,16.26198 -22.54994,16.26198c-13.53173,0 -21.4658,-4.96014 -21.4658,-16.69563c0,-6.3386 -1.51613,-10.17222 3.3191,-14.27081c3.2656,-2.76809 9.13546,-3.69683 13.06341,-5.3991c4.69188,-2.03334 -7.81411,0.65992 -11.9247,-2.38166c-3.91742,-2.89864 0.32884,-13.12582 2.56966,-15.95853c3.43363,-4.3406 4.75571,-5.67338 10.27041,-6.14089c6.11317,-0.51825 9.89437,1.55844 14.27724,5.85143c0.14063,0.13774 5.60237,10.24004 1.20324,14.05831c-2.50346,2.17291 -11.59193,4.0764 -8.27698,4.0764c0,0 7.84797,0.64651 11.04455,2.92515c6.23685,4.44585 8.46981,5.93786 8.46981,17.67335z" data-paper-data="{&quot;origPos&quot;:null}" fill="#fff700" stroke="#e8e000" stroke-width="2.28521"/><path d="M229.37467,208.68212v-24.93503h27.32012v24.93503z" data-paper-data="{&quot;origPos&quot;:null}" fill="url(#color-1)" stroke="#e8e000" stroke-width="2.28521"/><path d="M234.69499,195.02206v-7.15527h7.15527v7.15527z" data-paper-data="{&quot;origPos&quot;:null}" fill="#fcff5a" stroke="none" stroke-width="0"/><path d="M246.19979,195.25188v-7.15527h7.15527v7.15527z" data-paper-data="{&quot;origPos&quot;:null}" fill="#fcff51" stroke="none" stroke-width="0"/><path d="M248.13823,203.26146v-2.60192h2.81874v2.60192z" data-paper-data="{&quot;origPos&quot;:null}" fill="#fcff53" stroke="none" stroke-width="0"/><path d="M231.0599,160.32984c0,-0.69036 0.55964,-1.25 1.25,-1.25c0.69036,0 1.25,0.55964 1.25,1.25c0,0.69036 -0.55964,1.25 -1.25,1.25c-0.69036,0 -1.25,-0.55964 -1.25,-1.25z" fill="#e8e000" stroke="none" stroke-width="0.5"/><path d="M238.86565,159.02889c0,-0.69036 0.55964,-1.25 1.25,-1.25c0.69036,0 1.25,0.55964 1.25,1.25c0,0.69036 -0.55964,1.25 -1.25,1.25c-0.69036,0 -1.25,-0.55964 -1.25,-1.25z" fill="#e8e000" stroke="none" stroke-width="0.5"/><path d="M246.23775,162.49811c0,-0.69036 0.55964,-1.25 1.25,-1.25c0.69036,0 1.25,0.55964 1.25,1.25c0,0.69036 -0.55964,1.25 -1.25,1.25c-0.69036,0 -1.25,-0.55964 -1.25,-1.25z" fill="#e8e000" stroke="none" stroke-width="0.5"/><path d="M246.6714,167.48511c0,-0.69036 0.55964,-1.25 1.25,-1.25c0.69036,0 1.25,0.55964 1.25,1.25c0,0.69036 -0.55964,1.25 -1.25,1.25c-0.69036,0 -1.25,-0.55964 -1.25,-1.25z" fill="#e8e000" stroke="none" stroke-width="0.5"/><path d="M235.1796,168.13559c0,-0.69036 0.55964,-1.25 1.25,-1.25c0.69036,0 1.25,0.55964 1.25,1.25c0,0.69036 -0.55964,1.25 -1.25,1.25c-0.69036,0 -1.25,-0.55964 -1.25,-1.25z" fill="#e8e000" stroke="none" stroke-width="0.5"/><path d="M236.48056,164.8832c0,-0.69036 0.55964,-1.25 1.25,-1.25c0.69036,0 1.25,0.55964 1.25,1.25c0,0.69036 -0.55964,1.25 -1.25,1.25c-0.69036,0 -1.25,-0.55964 -1.25,-1.25z" fill="#e8e000" stroke="none" stroke-width="0.5"/><path d="M227.15703,170.30386c0,-0.69036 0.55964,-1.25 1.25,-1.25c0.69036,0 1.25,0.55964 1.25,1.25c0,0.69036 -0.55964,1.25 -1.25,1.25c-0.69036,0 -1.25,-0.55964 -1.25,-1.25z" fill="#e8e000" stroke="none" stroke-width="0.5"/><path d="M244.28631,169.21972c0,-0.69036 0.55964,-1.25 1.25,-1.25c0.69036,0 1.25,0.55964 1.25,1.25c0,0.69036 -0.55964,1.25 -1.25,1.25c-0.69036,0 -1.25,-0.55964 -1.25,-1.25z" fill="#e8e000" stroke="none" stroke-width="0.5"/><path d="M241.90122,172.90577c0,-0.69036 0.55964,-1.25 1.25,-1.25c0.69036,0 1.25,0.55964 1.25,1.25c0,0.69036 -0.55964,1.25 -1.25,1.25c-0.69036,0 -1.25,-0.55964 -1.25,-1.25z" fill="#e8e000" stroke="none" stroke-width="0.5"/><path d="M240.60026,179.84421c0,-0.69036 0.55964,-1.25 1.25,-1.25c0.69036,0 1.25,0.55964 1.25,1.25c0,0.69036 -0.55964,1.25 -1.25,1.25c-0.69036,0 -1.25,-0.55964 -1.25,-1.25z" fill="#e8e000" stroke="none" stroke-width="0.5"/><path d="M223.47098,188.95092c0,-0.69036 0.55964,-1.25 1.25,-1.25c0.69036,0 1.25,0.55964 1.25,1.25c0,0.69036 -0.55964,1.25 -1.25,1.25c-0.69036,0 -1.25,-0.55964 -1.25,-1.25z" fill="#e8e000" stroke="none" stroke-width="0.5"/><path d="M223.03733,200.44272c0,-0.69036 0.55964,-1.25 1.25,-1.25c0.69036,0 1.25,0.55964 1.25,1.25c0,0.69036 -0.55964,1.25 -1.25,1.25c-0.69036,0 -1.25,-0.55964 -1.25,-1.25z" fill="#e8e000" stroke="none" stroke-width="0.5"/><path d="M244.98755,210.4551c0.39528,1.18585 -0.79057,1.58114 -0.79057,1.58114c-0.32524,0.10841 -1.6262,0.54207 -1.95144,0.65048c0,0 -1.18585,0.39528 -1.58114,-0.79057c-0.39528,-1.18585 0.79057,-1.58114 0.79057,-1.58114c0.32524,-0.10841 0.65048,-0.21683 0.97572,-0.32524l0.97572,-0.32524c0,0 1.18585,-0.39528 1.58114,0.79057z" fill="#e8e000" stroke="none" stroke-width="0.5"/><path d="M259.24733,200.65954c0,-0.69036 0.55964,-1.25 1.25,-1.25c0.69036,0 1.25,0.55964 1.25,1.25c0,0.69036 -0.55964,1.25 -1.25,1.25c-0.69036,0 -1.25,-0.55964 -1.25,-1.25z" fill="#e8e000" stroke="none" stroke-width="0.5"/><path d="M258.1632,194.58841c0,-0.69036 0.55964,-1.25 1.25,-1.25c0.69036,0 1.25,0.55964 1.25,1.25c0,0.69036 -0.55964,1.25 -1.25,1.25c-0.69036,0 -1.25,-0.55964 -1.25,-1.25z" fill="#e8e000" stroke="none" stroke-width="0.5"/><path d="M260.54829,189.6014c0,-0.69036 0.55964,-1.25 1.25,-1.25c0.69036,0 1.25,0.55964 1.25,1.25c0,0.69036 -0.55964,1.25 -1.25,1.25c-0.69036,0 -1.25,-0.55964 -1.25,-1.25z" fill="#e8e000" stroke="none" stroke-width="0.5"/><path d="M248.83966,180.27787c0,-0.69036 0.55964,-1.25 1.25,-1.25c0.69036,0 1.25,0.55964 1.25,1.25c0,0.69036 -0.55964,1.25 -1.25,1.25c-0.69036,0 -1.25,-0.55964 -1.25,-1.25z" fill="#e8e000" stroke="none" stroke-width="0.5"/><path d="M234.52913,180.71152c0,-0.69036 0.55964,-1.25 1.25,-1.25c0.69036,0 1.25,0.55964 1.25,1.25c0,0.69036 -0.55964,1.25 -1.25,1.25c-0.69036,0 -1.25,-0.55964 -1.25,-1.25z" fill="#e8e000" stroke="none" stroke-width="0.5"/></g></g></g></svg>