<svg version="1.1" xmlns="http://www.w3.org/2000/svg" xmlns:xlink="http://www.w3.org/1999/xlink" width="22.80505" height="66.15583"><g transform="translate(-228,-144.8)"><g data-paper-data="{&quot;isPaintingLayer&quot;:true}" fill="none" fill-rule="nonzero" stroke="none" stroke-width="none" stroke-linecap="butt" stroke-linejoin="miter" stroke-miterlimit="10" stroke-dasharray="" stroke-dashoffset="0" font-family="none" font-weight="none" font-size="none" text-anchor="none" style="mix-blend-mode: normal"><path d="M233.56282,165.83402v-11.60845h12.25337v11.60845z" data-paper-data="{&quot;origPos&quot;:null}" fill="#9966ff" stroke="none" stroke-width="0"/><path d="M232.29372,192.10505v-26.78236h15.62304v26.78236z" data-paper-data="{&quot;origPos&quot;:null}" fill="#31cfb5" stroke="none" stroke-width="0"/><path d="M229.14286,175.69429v-3.8073h3.67601v3.8073z" fill="#9966ff" stroke="none" stroke-width="0"/><path d="M247.26033,175.16915v-3.67601h3.54472v3.67601z" data-paper-data="{&quot;origPos&quot;:null}" fill="#9966ff" stroke="none" stroke-width="0"/><path d="M232.42501,210.87896v-18.90519h5.38273v18.90519z" fill="#9966ff" stroke="none" stroke-width="0"/><path d="M243.32175,210.74767v-18.64262h4.46373v18.64262z" data-paper-data="{&quot;origPos&quot;:null}" fill="#9966ff" stroke="none" stroke-width="0"/><path d="M235.05073,159.02096v-1.70672h3.8073v1.70672z" fill="#000000" stroke="none" stroke-width="0"/><path d="M240.17089,159.02096v-1.70672h4.06987v1.70672z" fill="#000000" stroke="none" stroke-width="0"/><path d="M236.36359,162.82826v-0.919h6.43302v0.919z" fill="#ff0000" stroke="none" stroke-width="0"/><path d="M237.05284,162.04054c0,-0.12689 0.10286,-0.22975 0.22975,-0.22975c0.12689,0 0.22975,0.10286 0.22975,0.22975c0,0.12689 -0.10286,0.22975 -0.22975,0.22975c-0.12689,0 -0.22975,-0.10286 -0.22975,-0.22975z" fill="#ffffff" stroke="none" stroke-width="0.5"/><path d="M237.97184,162.04054c0,-0.12689 0.10286,-0.22975 0.22975,-0.22975c0.12689,0 0.22975,0.10286 0.22975,0.22975c0,0.12689 -0.10286,0.22975 -0.22975,0.22975c-0.12689,0 -0.22975,-0.10286 -0.22975,-0.22975z" fill="#ffffff" stroke="none" stroke-width="0.5"/><path d="M239.54728,162.30311c0,-0.12689 0.10286,-0.22975 0.22975,-0.22975c0.12689,0 0.22975,0.10286 0.22975,0.22975c0,0.12689 -0.10286,0.22975 -0.22975,0.22975c-0.12689,0 -0.22975,-0.10286 -0.22975,-0.22975z" fill="#ffffff" stroke="none" stroke-width="0.5"/><path d="M240.86014,162.17183c0,-0.12689 0.10286,-0.22975 0.22975,-0.22975c0.12689,0 0.22975,0.10286 0.22975,0.22975c0,0.12689 -0.10286,0.22975 -0.22975,0.22975c-0.12689,0 -0.22975,-0.10286 -0.22975,-0.22975z" fill="#ffffff" stroke="none" stroke-width="0.5"/><path d="M241.91043,162.17183c0,-0.12689 0.10286,-0.22975 0.22975,-0.22975c0.12689,0 0.22975,0.10286 0.22975,0.22975c0,0.12689 -0.10286,0.22975 -0.22975,0.22975c-0.12689,0 -0.22975,-0.10286 -0.22975,-0.22975z" fill="#ffffff" stroke="none" stroke-width="0.5"/><path d="M241.38528,162.56568c0,-0.12689 0.10286,-0.22975 0.22975,-0.22975c0.12689,0 0.22975,0.10286 0.22975,0.22975c0,0.12689 -0.10286,0.22975 -0.22975,0.22975c-0.12689,0 -0.22975,-0.10286 -0.22975,-0.22975z" fill="#ffffff" stroke="none" stroke-width="0.5"/><path d="M237.70927,162.69697c0,-0.12689 0.10286,-0.22975 0.22975,-0.22975c0.12689,0 0.22975,0.10286 0.22975,0.22975c0,0.12689 -0.10286,0.22975 -0.22975,0.22975c-0.12689,0 -0.22975,-0.10286 -0.22975,-0.22975z" fill="#ffffff" stroke="none" stroke-width="0.5"/><path d="M243.05918,165.45398c0,1.30513 -1.52825,2.36315 -3.41344,2.36315c-1.88519,0 -3.41344,-1.05802 -3.41344,-2.36315c0,-1.30513 1.52825,-2.36315 3.41344,-2.36315c1.88519,0 3.41344,1.05802 3.41344,2.36315z" data-paper-data="{&quot;origPos&quot;:null}" fill="#9966ff" stroke="none" stroke-width="0"/><path d="M232.42501,209.43481v-3.01958h5.38273v3.01958z" fill="#00bfaf" stroke="none" stroke-width="0"/><path d="M232.42501,210.95583v-1.72313h5.25144v1.72313z" data-paper-data="{&quot;origPos&quot;:null}" fill="#ff7800" stroke="none" stroke-width="0"/><path d="M243.19047,210.87896v-1.838h4.7263v1.838z" data-paper-data="{&quot;origPos&quot;:null}" fill="#ff7800" stroke="none" stroke-width="0"/><path d="M243.19047,209.04095v-2.10058h4.46373v2.10058z" fill="#00bfaf" stroke="none" stroke-width="0"/><path d="M228,146.7v-1.9l21.27016,0c-0.0081,0.28156 0.00794,0.57726 0.0457,0.8775c-0.04307,0.18385 -0.06586,0.37552 -0.06586,0.5725c0,0.15363 0.01386,0.30402 0.04039,0.45z" fill="#ff0000" stroke="none" stroke-width="0"/><path d="M246.58553,153.41402c0,0.30447 -3.08531,0.5513 -6.89123,0.5513c-3.80592,0 -6.89123,-0.24682 -6.89123,-0.5513c0,-0.30447 3.08531,-0.5513 6.89123,-0.5513c3.80592,0 6.89123,0.24682 6.89123,0.5513z" data-paper-data="{&quot;origPos&quot;:null}" fill="#000000" stroke="#000000" stroke-width="2"/><path d="M234.625,152.5v-4.5h10.25v4.5z" data-paper-data="{&quot;origPos&quot;:null}" fill="#000000" stroke="#000000" stroke-width="2"/></g></g></svg>