<svg xmlns="http://www.w3.org/2000/svg" xmlns:xlink="http://www.w3.org/1999/xlink" version="1.1" width="481" height="361" viewBox="-0.5 -0.5 481 361">
  <!-- Exported by Scratch - http://scratch.mit.edu/ -->
  <path id="ID0.33972105709835887" fill="#000000" stroke="none" d="M 0 0 L 480 0 L 480 360 L 0 360 L 0 0 Z " stroke-width="1"/>
  <path id="ID0.9462099093943834" fill="#FFFFCC" stroke="none" d="M 104 47 L 387 47 L 387 293 L 104 293 L 104 47 Z " stroke-width="1"/>
  <path id="ID0.31926337303593755" fill="#FFFFCC" stroke="none" d="M 345 119 L 416 119 L 416 321 L 345 321 L 345 119 Z " stroke-width="1"/>
  <path id="ID0.4301230604760349" fill="#FFFFCC" stroke="none" d="M 24 173 L 62 173 L 62 206 L 24 206 L 24 173 Z " stroke-width="1"/>
  <path id="ID0.4481279831379652" fill="#FFFFCC" stroke="none" d="M 171 253 L 309 253 L 309 311 L 171 311 L 171 253 Z " stroke-width="1"/>
  <path id="ID0.8786509167402983" fill="#FFFFCC" stroke="none" d="M 60 18 L 134 18 L 134 163 L 60 163 L 60 18 Z " stroke-width="1"/>
  <path id="ID0.6957887909375131" fill="#FFFFCC" stroke="none" d="M 182 31 L 400 31 L 400 131 L 182 131 L 182 31 Z " stroke-width="1"/>
  <path id="ID0.06529620056971908" fill="#FFFFCC" stroke="none" d="M 407 166 L 431 166 L 431 250 L 407 250 L 407 166 Z " stroke-width="1"/>
  <path id="ID0.3069173595868051" fill="#FFFFCC" stroke="none" d="M 433 45 L 446 45 L 446 62 L 433 62 L 433 45 Z " stroke-width="1"/>
  <path id="ID0.04618946369737387" fill="#FFFFCC" stroke="none" d="M 78 212 L 137 212 L 137 323 L 78 323 L 78 212 Z " stroke-width="1"/>
  <path id="ID0.09020847734063864" fill="#FFFFCC" stroke="none" d="M 123 277 L 206 277 L 206 316 L 123 316 L 123 277 Z " stroke-width="1"/>
</svg>